<?xml version="1.0" standalone="no"?>
<!DOCTYPE svg PUBLIC "-//W3C//DTD SVG 20010904//EN"
 "http://www.w3.org/TR/2001/REC-SVG-20010904/DTD/svg10.dtd">
<svg version="1.0" xmlns="http://www.w3.org/2000/svg"
 width="674.000000pt" height="300.000000pt" viewBox="0 0 674.000000 300.000000"
 preserveAspectRatio="xMidYMid meet">

<g transform="translate(0.000000,300.000000) scale(0.100000,-0.100000)"
fill="#627492" stroke="none">
<path d="M750 2799 c-30 -10 -75 -23 -100 -30 -57 -17 -106 -45 -115 -67 -11
-26 -15 -541 -5 -797 6 -178 12 -242 26 -285 10 -30 22 -56 26 -58 4 -2 8 -9
8 -16 0 -15 123 -146 138 -146 6 0 28 -10 49 -22 73 -43 135 -60 244 -65 82
-4 119 -2 165 12 115 33 214 93 289 174 22 24 47 51 56 60 30 30 67 116 80
184 10 55 10 85 0 154 -19 132 -71 216 -172 275 -116 69 -218 73 -276 10 -43
-47 -114 -153 -108 -163 4 -5 34 -9 68 -9 114 0 161 -48 159 -162 -2 -66 -4
-74 -34 -106 -60 -63 -131 -102 -185 -102 -70 0 -121 17 -158 53 -72 72 -74
88 -75 635 -1 349 -4 473 -13 480 -7 5 -33 2 -67 -9z"/>
<path d="M2520 2419 c-10 -17 -11 -60 -5 -168 8 -169 8 -172 4 -311 -4 -96 -2
-110 22 -161 42 -89 119 -129 249 -129 117 0 207 48 252 133 18 34 23 63 26
159 4 105 2 124 -19 175 -13 32 -32 69 -44 82 -66 77 -227 82 -326 10 -23 -17
-53 -4 -43 19 11 20 7 183 -4 194 -4 4 -29 11 -54 14 -41 6 -47 4 -58 -17z
m337 -289 c50 -30 66 -63 71 -146 6 -94 -11 -156 -51 -190 -28 -23 -38 -26
-94 -22 -75 5 -106 28 -122 93 -26 102 -8 202 46 252 41 40 99 45 150 13z"/>
<path d="M3791 2416 c-18 -21 -21 -730 -4 -747 13 -13 116 -19 128 -7 12 11 5
706 -7 732 -16 36 -94 50 -117 22z"/>
<path d="M3335 2261 c-44 -12 -118 -56 -130 -77 -5 -11 -13 -21 -16 -24 -3 -3
-15 -23 -25 -45 -15 -33 -19 -62 -19 -160 1 -103 4 -127 24 -170 45 -100 103
-136 228 -143 127 -7 190 24 262 126 24 35 22 58 -4 68 -21 9 -135 -18 -135
-31 0 -14 -78 -45 -113 -45 -51 0 -81 24 -95 76 -20 75 -17 76 196 75 l180 -1
7 27 c8 33 -12 146 -34 192 -21 45 -78 100 -110 108 -14 3 -32 10 -39 16 -16
13 -138 18 -177 8z m155 -137 c26 -23 31 -32 28 -66 l-3 -39 -90 -2 c-50 0
-96 2 -103 7 -19 12 -14 48 13 89 24 34 29 37 75 37 38 0 55 -6 80 -26z"/>
<path d="M4152 2246 c-24 -8 -53 -23 -64 -33 -26 -23 -50 -71 -43 -83 10 -16
119 -12 141 5 12 9 44 14 91 15 61 0 74 -3 83 -19 33 -62 -1 -95 -114 -111
-118 -18 -184 -52 -213 -110 -55 -108 -4 -222 115 -256 97 -28 234 -3 295 54
64 60 72 90 72 272 0 196 -5 213 -80 250 -41 20 -67 25 -145 27 -61 2 -110 -2
-138 -11z m228 -301 c19 -23 -7 -124 -43 -157 -64 -61 -165 -45 -183 29 -18
72 26 103 207 142 4 0 12 -6 19 -14z"/>
<path d="M1746 1825 c-9 -9 -16 -33 -16 -53 0 -55 -25 -138 -65 -219 -48 -97
-163 -214 -260 -264 -175 -91 -296 -111 -665 -107 -276 3 -279 3 -343 -72 -37
-44 -73 -152 -79 -240 l-3 -45 205 0 c409 0 758 28 837 68 16 8 43 17 62 21
42 8 62 23 54 42 -3 8 0 14 6 14 6 0 11 -5 11 -11 0 -8 4 -9 13 0 8 6 18 7 22
3 5 -4 5 -1 1 6 -4 6 -14 12 -22 12 -8 0 -14 4 -14 9 0 4 -19 7 -42 6 -24 -1
-63 1 -88 5 -44 7 -43 8 22 9 83 1 180 21 294 61 105 36 122 46 197 119 138
134 232 372 225 567 l-3 79 -167 3 c-141 2 -168 0 -182 -13z m-576 -795 c11
-7 7 -10 -17 -10 -18 0 -36 0 -40 -1 -4 0 -9 4 -11 10 -5 14 48 14 68 1z m57
-26 c-3 -3 -12 -4 -19 -1 -8 3 -5 6 6 6 11 1 17 -2 13 -5z"/>
<path d="M5440 1374 c-6 -14 -10 -47 -10 -74 0 -50 -10 -67 -32 -53 -48 30
-118 40 -165 22 -71 -26 -107 -92 -106 -194 0 -75 35 -151 84 -179 81 -48 196
-38 259 22 33 32 39 45 45 96 10 75 -3 357 -17 374 -18 21 -48 14 -58 -14z
m-64 -183 c39 -24 58 -76 52 -143 -4 -39 -12 -57 -39 -84 -30 -32 -38 -35 -73
-31 -23 3 -49 16 -64 30 -21 22 -25 35 -26 94 -1 77 16 121 54 140 35 18 60
16 96 -6z"/>
<path d="M3106 1264 c-105 -38 -120 -93 -108 -384 7 -168 8 -175 28 -178 36
-5 50 21 58 104 7 92 16 105 54 82 72 -43 171 -23 210 42 56 91 49 220 -15
291 -50 55 -145 73 -227 43z m129 -66 c75 -59 72 -207 -6 -248 -13 -7 -38 -9
-63 -6 -58 9 -76 41 -76 134 0 56 4 75 21 96 38 49 82 57 124 24z"/>
<path d="M3545 1268 c-73 -40 -97 -88 -96 -194 0 -90 15 -133 58 -170 32 -27
121 -47 169 -38 47 9 104 58 104 90 0 30 -26 32 -77 4 -55 -29 -106 -27 -132
6 -12 15 -21 39 -21 54 0 26 4 29 48 35 26 3 78 1 116 -4 95 -14 103 -8 96 68
-7 70 -29 106 -86 138 -43 25 -143 31 -179 11z m132 -66 c21 -13 34 -61 23
-82 -9 -16 -21 -19 -70 -19 -37 1 -64 6 -71 15 -14 17 -2 71 19 84 20 11 82
13 99 2z"/>
<path d="M3965 1266 c-44 -19 -64 -47 -81 -107 -16 -63 -19 -231 -4 -260 12
-21 52 -26 68 -6 5 6 13 68 17 137 8 138 17 161 74 181 35 12 64 0 83 -34 6
-12 13 -79 16 -154 l5 -132 29 -6 c18 -4 35 -2 41 4 8 8 13 63 15 149 l3 137
-30 42 c-21 29 -42 45 -68 52 -52 15 -132 13 -168 -3z"/>
<path d="M4416 1269 c-92 -23 -126 -76 -126 -200 0 -98 23 -157 73 -187 51
-31 79 -33 137 -12 44 16 57 17 67 7 17 -17 -1 -83 -27 -97 -27 -14 -82 -12
-123 5 -82 34 -115 6 -58 -49 26 -25 38 -29 110 -32 102 -4 149 11 176 57 18
30 20 56 23 219 4 180 3 186 -20 220 -13 19 -39 43 -58 52 -45 22 -124 30
-174 17z m127 -84 c28 -27 30 -40 27 -150 -1 -63 -32 -95 -88 -95 -74 1 -109
64 -95 173 11 87 96 127 156 72z"/>
<path d="M4815 1264 c-45 -25 -65 -45 -65 -66 0 -16 6 -17 43 -12 23 3 51 10
63 15 11 6 40 9 65 7 43 -3 44 -4 44 -38 0 -34 -1 -35 -55 -48 -100 -22 -127
-32 -154 -53 -23 -18 -26 -28 -26 -78 0 -49 4 -61 28 -83 15 -15 49 -32 75
-39 41 -10 58 -9 112 6 103 28 125 63 125 207 0 128 -4 143 -45 168 -46 28
-169 37 -210 14z m161 -219 c10 -38 -25 -98 -63 -109 -45 -12 -80 -1 -87 29
-14 55 39 102 116 104 21 1 29 -5 34 -24z"/>
<path d="M5652 1267 c-36 -13 -52 -32 -52 -60 0 -20 15 -20 136 -1 52 7 84 -8
84 -41 0 -31 -22 -43 -104 -54 -83 -12 -122 -38 -136 -93 -14 -51 -8 -77 26
-111 25 -25 78 -47 115 -47 42 0 126 35 156 65 l33 33 0 127 c0 69 -5 135 -10
145 -22 41 -174 63 -248 37z m176 -221 c6 -29 -27 -92 -54 -105 -14 -6 -41
-11 -60 -11 -39 0 -56 26 -47 73 6 32 23 47 66 57 52 13 91 8 95 -14z"/>
<path d="M6068 1267 c-39 -18 -68 -48 -68 -69 0 -22 28 -23 85 -3 78 29 140
12 133 -35 -3 -24 -42 -39 -140 -55 -78 -12 -130 -109 -92 -173 69 -117 299
-76 324 58 13 64 12 181 -1 219 -7 19 -24 38 -43 48 -39 21 -162 27 -198 10z
m143 -197 c25 -14 25 -56 -1 -97 -21 -35 -48 -46 -101 -41 -31 3 -34 6 -37 40
-4 53 11 75 66 91 26 8 48 15 50 16 2 1 12 -4 23 -9z"/>
<path d="M6470 1266 c-19 -7 -45 -28 -57 -46 -21 -30 -23 -44 -23 -177 0 -142
0 -144 24 -154 16 -8 29 -8 42 -1 17 9 18 22 15 119 -3 122 9 170 52 198 29
18 67 12 92 -15 13 -14 17 -45 19 -149 2 -86 8 -136 16 -146 7 -9 29 -15 51
-15 l39 0 0 151 c0 146 -1 151 -26 184 -43 57 -159 81 -244 51z"/>
<path d="M1595 1013 c-22 -8 -50 -15 -63 -14 -13 0 -20 -3 -17 -9 9 -14 47
-12 70 4 11 7 34 18 50 24 17 6 23 10 15 11 -8 0 -33 -7 -55 -16z"/>
<path d="M748 772 c-85 -31 -131 -126 -112 -227 11 -63 112 -135 189 -135 44
0 116 35 143 70 24 30 27 44 27 107 0 63 -3 76 -30 115 -51 72 -137 100 -217
70z"/>
<path d="M1363 767 c-63 -23 -113 -100 -113 -175 0 -41 6 -58 33 -94 37 -50
106 -88 157 -88 125 1 216 133 173 252 -9 26 -27 58 -40 70 -47 44 -142 60
-210 35z"/>
</g>
</svg>
