<?xml version="1.0" standalone="no"?>
<!DOCTYPE svg PUBLIC "-//W3C//DTD SVG 20010904//EN"
 "http://www.w3.org/TR/2001/REC-SVG-20010904/DTD/svg10.dtd">
<svg version="1.0" xmlns="http://www.w3.org/2000/svg"
 width="512.000000pt" height="185.000000pt" viewBox="0 0 512.000000 185.000000"
 preserveAspectRatio="xMidYMid meet">

<g transform="translate(0.000000,185.000000) scale(0.100000,-0.100000)"
fill="#627492" stroke="none">
<path d="M1329 1521 c-69 -27 -128 -72 -208 -157 -120 -129 -222 -300 -255
-430 -21 -80 -21 -203 -1 -251 24 -57 62 -101 107 -124 34 -17 55 -20 117 -17
105 4 189 46 287 142 73 73 97 117 74 139 -9 9 -19 3 -43 -27 -81 -99 -133
-147 -190 -176 -170 -85 -241 15 -189 264 l17 79 95 32 c270 90 440 242 442
394 0 58 -31 109 -82 136 -39 20 -114 18 -171 -4z m106 -27 c8 -4 22 -19 31
-35 35 -68 -32 -189 -169 -305 -59 -51 -196 -134 -220 -134 -14 0 -11 16 19
102 50 143 88 213 151 279 74 78 141 111 188 93z"/>
<path d="M2698 1303 c-36 -4 -55 -23 -23 -23 26 0 32 -33 38 -217 7 -228 4
-251 -37 -270 -25 -11 -26 -13 -6 -9 14 3 47 6 73 6 44 0 47 1 33 16 -14 13
-16 51 -16 260 0 189 -3 244 -12 242 -7 -1 -30 -3 -50 -5z"/>
<path d="M2167 1177 c-4 -15 -26 -40 -48 -56 l-40 -30 28 -3 28 -3 1 -126 c1
-72 7 -136 13 -148 20 -36 81 -40 126 -7 18 13 15 14 -27 9 -63 -7 -69 6 -66
154 l3 118 48 3 c62 4 61 22 -2 22 l-50 0 -3 48 c-3 41 -4 44 -11 19z"/>
<path d="M3525 1110 c-12 -4 -27 -15 -34 -24 -12 -14 -15 -14 -38 4 -14 11
-34 20 -44 20 -16 0 -15 -3 6 -24 55 -55 36 -187 -29 -194 -37 -5 -73 29 -81
77 -8 50 14 112 45 128 20 10 21 13 7 13 -30 0 -78 -40 -94 -78 -19 -46 -9
-90 32 -128 31 -30 36 -31 83 -23 27 4 59 13 71 21 40 25 63 103 42 137 -13
20 5 51 28 51 11 0 21 -7 25 -15 3 -8 15 -15 26 -15 26 0 27 36 1 50 -22 11
-19 11 -46 0z"/>
<path d="M1533 1090 c-75 -45 -98 -173 -44 -247 34 -47 78 -68 128 -60 39 7
93 51 92 76 0 14 -1 14 -6 1 -24 -66 -103 -81 -147 -30 -66 79 -56 241 17 270
13 5 16 9 7 9 -8 1 -29 -8 -47 -19z"/>
<path d="M1634 1089 c14 -11 26 -26 26 -34 0 -20 29 -40 41 -28 26 26 -28 83
-77 83 -13 0 -10 -5 10 -21z"/>
<path d="M1828 1095 c-32 -18 -44 -50 -27 -71 15 -19 29 -6 43 38 10 30 15 33
51 33 34 0 42 -4 53 -28 25 -51 9 -74 -72 -111 -78 -36 -96 -55 -96 -105 0
-68 80 -95 138 -46 36 30 42 31 42 6 0 -25 25 -32 70 -22 23 6 28 9 13 10 -35
2 -43 31 -43 153 0 62 -4 118 -8 124 -23 35 -115 45 -164 19z m129 -181 c-6
-76 -32 -114 -78 -114 -34 0 -52 27 -47 73 2 25 14 39 57 69 30 21 59 38 64
38 6 0 8 -26 4 -66z"/>
<path d="M2386 1089 c-20 -15 -26 -29 -24 -48 4 -35 29 -33 41 4 14 43 26 55
57 55 34 0 60 -28 60 -67 0 -38 -20 -56 -93 -83 -85 -32 -112 -96 -62 -145 31
-32 72 -32 119 0 33 22 36 23 36 6 0 -25 24 -33 69 -24 33 6 34 7 12 13 -33 8
-41 42 -40 170 1 96 -1 106 -21 122 -33 26 -119 25 -154 -3z m134 -164 c0 -82
-27 -125 -78 -125 -43 0 -68 65 -39 104 13 17 95 74 110 75 4 1 7 -24 7 -54z"/>
<path d="M2934 1078 c-61 -54 -80 -130 -50 -201 27 -66 108 -109 173 -92 41
10 99 74 113 124 29 109 -38 201 -148 201 -44 0 -57 -5 -88 -32z m150 -8 c59
-71 57 -197 -4 -252 -33 -30 -55 -34 -93 -17 -74 33 -89 193 -26 273 30 39 88
36 123 -4z"/>
<path d="M3653 1096 c14 -15 17 -37 17 -142 0 -119 1 -126 25 -149 13 -14 31
-25 40 -25 26 0 79 26 99 49 26 29 36 26 36 -9 0 -28 2 -30 38 -30 27 0 33 3
22 10 -12 7 -16 40 -20 156 l-5 148 -38 2 c-35 1 -37 1 -17 -13 17 -12 20 -25
20 -99 0 -96 -14 -140 -55 -172 -35 -28 -57 -28 -81 -1 -16 18 -20 40 -23 150
-3 117 -5 129 -21 129 -10 0 -27 3 -37 7 -17 7 -17 6 0 -11z"/>
<path d="M4082 1088 c-40 -29 -72 -92 -72 -146 0 -109 74 -177 174 -158 34 7
92 44 82 53 -3 3 -17 -4 -32 -16 -75 -59 -174 6 -174 115 l0 34 105 0 105 0 0
25 c0 39 -27 83 -60 100 -40 21 -48 19 -17 -5 30 -24 42 -63 27 -90 -9 -17
-21 -20 -85 -20 -42 0 -75 4 -75 10 0 28 36 92 59 105 15 8 20 14 11 15 -8 0
-30 -10 -48 -22z"/>
<path d="M3288 859 c-32 -18 -41 -48 -23 -75 8 -13 24 -24 35 -24 27 0 34 -17
10 -25 -40 -13 -80 -56 -80 -85 0 -38 41 -70 89 -69 35 1 36 1 8 9 -42 13 -57
29 -57 62 0 45 15 65 65 83 55 21 136 16 165 -10 30 -27 26 -72 -11 -106 -17
-16 -26 -29 -19 -29 21 0 80 67 81 92 4 84 -20 103 -140 112 -50 4 -98 9 -106
12 -18 7 -20 35 -3 52 14 14 9 15 -14 1z"/>
<path d="M3428 583 c7 -3 16 -2 19 1 4 3 -2 6 -13 5 -11 0 -14 -3 -6 -6z"/>
<path d="M1755 455 c0 -50 4 -85 10 -85 6 0 9 15 8 32 -1 18 -2 57 -2 86 -1
28 -4 52 -8 52 -5 0 -8 -38 -8 -85z"/>
<path d="M2191 540 c-8 -20 -4 -170 4 -170 6 0 9 26 7 62 -3 68 -8 116 -11
108z"/>
<path d="M2559 536 c-8 -8 3 -166 12 -166 5 0 9 38 9 85 0 74 -6 96 -21 81z"/>
<path d="M2624 524 c3 -9 6 -47 6 -85 0 -38 4 -69 9 -69 5 0 7 15 6 33 -2 17
-3 56 -4 85 -1 31 -6 52 -12 52 -6 0 -8 -7 -5 -16z"/>
<path d="M3355 530 c-3 -5 -1 -10 4 -10 6 0 11 5 11 10 0 6 -2 10 -4 10 -3 0
-8 -4 -11 -10z"/>
<path d="M3487 463 c2 -97 2 -93 11 -93 4 0 6 38 4 85 -2 47 -7 85 -10 85 -4
0 -6 -35 -5 -77z"/>
<path d="M1995 486 c-5 -6 -8 -33 -5 -61 4 -40 9 -50 25 -52 11 -2 14 0 8 3
-8 3 -13 24 -13 50 0 35 4 44 18 45 13 0 14 2 2 6 -8 3 -17 9 -20 13 -3 4 -9
3 -15 -4z"/>
<path d="M2878 396 c-2 -53 1 -86 7 -86 11 0 13 156 2 166 -3 3 -7 -33 -9 -80z"/>
<path d="M3244 462 c13 -16 17 -30 13 -52 -7 -35 -2 -39 13 -10 14 27 4 57
-23 71 -22 12 -22 12 -3 -9z"/>
<path d="M3358 425 c2 -30 7 -55 11 -55 9 0 4 104 -6 107 -4 2 -6 -22 -5 -52z"/>
<path d="M1562 458 c-26 -26 -8 -88 25 -88 8 0 6 7 -6 19 -16 16 -18 26 -11
50 10 35 9 36 -8 19z"/>
<path d="M1614 449 c0 -10 6 -19 13 -19 7 0 13 4 13 9 0 5 -6 13 -13 19 -10 8
-13 6 -13 -9z"/>
<path d="M1880 459 c0 -5 5 -7 10 -4 6 3 10 8 10 11 0 2 -4 4 -10 4 -5 0 -10
-5 -10 -11z"/>
<path d="M1930 431 c0 -23 0 -44 -1 -48 0 -4 4 -9 10 -11 14 -5 15 84 1 93 -6
4 -10 -10 -10 -34z"/>
<path d="M2070 459 c0 -5 5 -7 10 -4 6 3 10 8 10 11 0 2 -4 4 -10 4 -5 0 -10
-5 -10 -11z"/>
<path d="M2120 432 c0 -23 0 -45 -1 -49 0 -4 3 -9 8 -10 10 -4 9 85 -1 94 -3
4 -6 -12 -6 -35z"/>
<path d="M2252 458 c-17 -17 -15 -54 4 -72 20 -20 30 -21 14 -1 -7 8 -10 31
-8 50 2 19 4 35 3 35 -1 0 -6 -5 -13 -12z"/>
<path d="M2320 445 c8 -22 7 -33 -6 -54 l-17 -26 21 19 c26 22 29 58 7 76 -14
11 -14 10 -5 -15z"/>
<path d="M2377 463 c-13 -12 -7 -40 10 -54 15 -13 15 -12 6 5 -6 10 -8 27 -6
37 5 20 1 24 -10 12z"/>
<path d="M2432 453 c3 -11 1 -29 -5 -39 -9 -17 -9 -18 6 -5 20 16 22 47 5 57
-7 5 -9 1 -6 -13z"/>
<path d="M2750 390 c0 -57 4 -80 13 -80 9 0 11 21 9 80 -2 44 -8 80 -13 80 -5
0 -9 -36 -9 -80z"/>
<path d="M2818 459 c14 -16 16 -60 2 -77 -5 -7 0 -3 12 8 18 16 20 24 13 46
-6 15 -17 29 -25 32 -12 4 -13 2 -2 -9z"/>
<path d="M2949 451 c10 -18 10 -29 2 -48 -9 -19 -9 -24 1 -21 20 7 22 63 2 79
-16 13 -16 12 -5 -10z"/>
<path d="M3055 449 c-4 -13 -2 -27 6 -35 12 -11 14 -8 14 21 0 39 -10 46 -20
14z"/>
<path d="M3105 436 c0 -27 3 -32 13 -24 14 13 12 50 -3 55 -5 2 -10 -12 -10
-31z"/>
<path d="M3180 450 c-12 -23 -6 -52 15 -70 12 -10 12 -7 2 19 -9 24 -9 36 1
51 7 11 8 20 2 20 -5 0 -14 -9 -20 -20z"/>
<path d="M3422 458 c-24 -24 -6 -88 25 -88 15 0 15 2 -1 13 -14 10 -17 23 -14
50 2 20 4 37 3 37 -1 0 -6 -5 -13 -12z"/>
<path d="M1802 413 c16 -38 28 -51 28 -29 0 22 -18 56 -30 56 -6 0 -5 -12 2
-27z"/>
<path d="M2678 405 c9 -19 20 -35 24 -35 11 0 10 7 -7 40 -22 42 -36 37 -17
-5z"/>
<path d="M1668 423 c12 -2 32 -2 45 0 12 2 2 4 -23 4 -25 0 -35 -2 -22 -4z"/>
<path d="M1885 416 c-18 -13 -16 -46 4 -46 6 0 8 7 5 15 -4 8 -1 22 6 30 15
19 10 19 -15 1z"/>
<path d="M2075 416 c-18 -13 -16 -46 4 -46 6 0 8 7 5 15 -4 8 -1 22 6 30 15
19 10 19 -15 1z"/>
<path d="M2372 378 c3 -7 20 -14 39 -16 44 -4 56 -16 39 -39 -13 -17 -13 -17
4 -1 24 22 14 48 -19 48 -15 0 -36 5 -47 11 -16 9 -19 8 -16 -3z"/>
<path d="M2500 379 c0 -5 5 -7 10 -4 6 3 10 8 10 11 0 2 -4 4 -10 4 -5 0 -10
-5 -10 -11z"/>
<path d="M2990 380 c0 -5 5 -10 10 -10 6 0 10 5 10 10 0 6 -4 10 -10 10 -5 0
-10 -4 -10 -10z"/>
<path d="M3054 376 c3 -10 1 -25 -5 -33 -10 -11 -8 -18 6 -31 18 -16 18 -16 6
1 -18 23 2 47 40 47 34 0 45 -15 28 -38 -12 -16 -12 -16 5 0 27 24 14 48 -27
48 -18 0 -39 6 -46 13 -12 10 -13 9 -7 -7z"/>
<path d="M3300 379 c0 -5 5 -7 10 -4 6 3 10 8 10 11 0 2 -4 4 -10 4 -5 0 -10
-5 -10 -11z"/>
<path d="M2364 339 c-3 -6 2 -18 12 -27 17 -16 17 -16 5 0 -7 9 -10 22 -6 28
3 5 4 10 1 10 -3 0 -8 -5 -12 -11z"/>
</g>
</svg>
