<?xml version="1.0" standalone="no"?>
<!DOCTYPE svg PUBLIC "-//W3C//DTD SVG 20010904//EN"
 "http://www.w3.org/TR/2001/REC-SVG-20010904/DTD/svg10.dtd">
<svg version="1.0" xmlns="http://www.w3.org/2000/svg"
 width="1000.000000pt" height="1000.000000pt" viewBox="0 0 1000.000000 1000.000000"
 preserveAspectRatio="xMidYMid meet">

<g transform="translate(0.000000,1000.000000) scale(0.100000,-0.100000)"
fill="#627492" stroke="none">
<path d="M201 6366 c-12 -13 -31 -51 -41 -83 -10 -33 -30 -77 -44 -98 -14 -21
-27 -50 -28 -64 -3 -64 -6 -78 -22 -113 -9 -21 -16 -48 -16 -60 0 -13 -7 -41
-14 -63 -8 -22 -12 -52 -9 -67 3 -16 1 -34 -5 -40 -16 -20 -22 -70 -14 -108 5
-21 4 -42 -2 -52 -15 -25 30 -383 52 -411 5 -7 12 -25 15 -42 6 -36 25 -91 42
-125 8 -14 22 -43 33 -65 10 -22 26 -46 35 -54 10 -7 17 -18 17 -23 0 -18 61
-82 119 -125 31 -23 65 -51 76 -62 11 -11 36 -26 55 -32 19 -7 47 -21 61 -31
50 -37 190 -33 272 9 36 18 43 12 22 -20 -8 -13 -17 -33 -19 -43 -4 -18 -28
-79 -47 -116 -12 -24 -11 -28 6 -28 14 0 14 -3 0 -30 -9 -16 -11 -30 -6 -30
12 0 -30 -88 -70 -146 -39 -57 -72 -64 -113 -25 -35 34 -66 39 -86 16 -19 -22
-34 -18 -53 14 -9 16 -52 65 -95 109 -77 79 -122 113 -122 92 0 -6 10 -14 23
-19 24 -9 163 -151 193 -196 18 -28 18 -28 -15 -57 -30 -27 -33 -34 -27 -69 4
-22 2 -39 -3 -39 -6 0 -35 33 -66 74 -31 41 -81 98 -111 125 l-56 51 56 0 c52
0 56 2 56 23 -1 12 -7 36 -15 52 -14 29 -14 24 1 -37 l6 -28 -61 0 c-34 0 -61
-4 -61 -8 0 -4 14 -16 30 -25 33 -20 137 -136 175 -197 14 -22 31 -40 37 -40
7 0 24 12 40 27 22 21 30 24 42 14 9 -7 18 -28 22 -47 7 -36 54 -75 97 -79 12
-1 22 -3 22 -4 0 -2 7 -4 16 -6 9 -1 33 -14 55 -27 46 -29 171 -88 184 -88 6
0 10 -2 10 -5 0 -14 -52 -105 -74 -133 -15 -16 -26 -33 -26 -36 0 -3 17 -5 38
-5 30 2 32 3 10 6 -34 5 -34 6 -4 46 13 18 33 51 45 74 15 29 26 41 36 37 21
-8 19 -20 -11 -60 -15 -19 -22 -34 -16 -34 5 0 22 16 36 35 25 32 66 48 66 25
0 -15 -62 -82 -95 -102 -16 -10 -25 -18 -19 -18 5 0 19 7 30 15 32 24 39 17
11 -13 -15 -15 -27 -31 -27 -35 0 -14 56 -6 100 15 25 12 49 20 53 19 4 0 22
21 39 49 45 72 65 64 33 -14 -20 -49 -13 -45 22 9 16 25 36 45 46 45 24 0 22
-11 -14 -59 -31 -44 -94 -80 -138 -81 -24 0 -24 0 -5 23 l19 22 -22 -19 c-13
-11 -23 -23 -23 -28 0 -17 58 -7 115 21 50 25 64 37 82 75 16 32 27 44 38 40
19 -8 19 -7 -5 -54 -28 -54 -11 -50 22 5 15 25 34 45 43 45 20 0 19 -2 -9 -59
-29 -56 -63 -81 -120 -89 l-40 -5 17 29 18 29 -20 -24 c-32 -36 -26 -44 25
-38 56 6 91 31 121 83 51 90 58 92 98 29 31 -50 45 -54 21 -6 -9 16 -16 35
-16 41 0 17 30 11 37 -7 4 -10 22 -42 41 -71 18 -30 31 -56 28 -59 -3 -3 -21
-2 -40 1 -43 8 -94 49 -112 91 -7 16 -13 24 -14 16 -1 -52 87 -121 155 -121
41 0 42 3 15 37 -25 32 -18 43 10 18 11 -10 22 -16 25 -14 2 3 -9 13 -24 23
-30 20 -71 75 -71 94 0 27 31 9 56 -33 31 -54 42 -53 20 0 -35 82 -13 74 51
-19 48 -70 49 -75 29 -79 -13 -3 -8 -5 13 -6 l34 -1 -23 25 c-32 34 -22 39 27
14 23 -11 55 -19 73 -17 l32 3 -34 30 -33 30 25 -29 25 -29 -40 6 c-47 8 -108
50 -136 95 l-21 32 21 0 c13 0 30 -15 47 -40 33 -49 45 -45 14 4 -19 32 -20
56 -2 56 4 0 17 -18 29 -39 25 -44 109 -91 162 -91 37 0 38 3 7 43 -34 46 -68
116 -61 127 3 6 12 10 18 10 7 0 58 23 114 50 56 28 107 50 112 50 6 0 11 5
11 11 0 6 7 8 15 5 17 -6 95 40 95 57 0 6 -8 19 -17 30 -10 11 -12 17 -5 13 9
-5 25 0 43 13 35 26 41 26 57 1 20 -33 39 -23 95 53 29 39 81 98 115 129 34
31 62 59 62 62 0 4 -27 6 -60 6 l-60 0 6 28 c3 15 14 44 24 65 10 20 14 37 9
37 -15 0 -167 -150 -206 -202 -32 -45 -37 -48 -52 -33 -26 23 -53 18 -91 -15
-19 -16 -40 -29 -47 -30 -24 0 -71 52 -102 114 -18 36 -36 68 -41 71 -6 4 -10
11 -10 16 0 6 5 7 11 3 7 -4 10 -1 7 7 -3 9 -15 13 -32 11 -15 -2 -34 2 -42 8
-16 14 -20 35 -4 25 6 -3 10 -1 10 6 0 8 7 7 23 -3 20 -13 24 -13 40 2 16 15
16 18 2 30 -13 11 -14 10 -9 -4 8 -22 -9 -20 -29 2 -24 26 -21 33 9 26 15 -4
25 -3 23 2 -3 5 -13 27 -23 49 -29 64 -56 125 -56 129 0 2 23 -8 50 -22 83
-41 240 -40 282 1 7 8 27 18 44 24 27 9 64 35 139 94 33 26 115 114 115 123 0
6 8 19 19 30 37 42 111 203 111 244 0 15 7 36 15 46 8 11 15 34 15 52 0 18 4
44 10 58 17 45 28 257 19 361 -5 55 -11 124 -14 154 -2 30 -9 59 -15 65 -5 5
-10 24 -10 41 0 16 -7 50 -15 75 -8 25 -17 66 -20 92 -4 28 -16 59 -29 75 -13
16 -31 54 -40 86 -10 33 -29 71 -47 90 -23 25 -29 28 -25 12 16 -67 15 -137
-3 -220 -23 -111 -54 -175 -121 -248 -70 -77 -150 -128 -278 -177 -142 -55
-162 -68 -216 -149 -26 -38 -61 -76 -79 -86 -41 -21 -81 -17 -85 10 -2 11 -9
26 -15 34 -6 7 -10 26 -9 41 2 15 -4 32 -13 40 -13 10 -13 15 -3 21 10 6 8 12
-10 24 -28 20 -28 29 -1 41 21 10 20 10 -7 22 -24 12 -26 11 -14 -2 10 -14 9
-16 -8 -16 -11 0 -25 7 -32 15 -9 10 -9 15 -1 15 6 0 11 -6 11 -12 0 -7 5 -5
11 5 5 9 18 17 27 17 18 0 42 18 42 32 0 4 -6 5 -13 2 -7 -2 -25 4 -39 16 -21
16 -27 32 -33 82 -4 35 -14 78 -21 97 -10 24 -11 38 -4 45 5 5 10 19 10 30 0
17 -2 18 -10 6 -6 -9 -10 -10 -10 -3 0 6 5 15 10 18 6 3 10 11 10 16 0 6 -4 7
-10 4 -6 -4 -10 8 -10 29 0 36 0 36 -20 16 -24 -24 -21 -23 -140 -24 -69 -1
-103 -6 -126 -18 -35 -19 -54 -10 -54 26 0 19 -1 19 -14 1 -9 -12 -20 -16 -35
-12 -17 4 -21 2 -17 -9 3 -8 -1 -14 -10 -14 -12 0 -12 -4 -4 -20 6 -11 15 -20
21 -20 6 0 7 5 4 10 -3 6 -1 10 5 10 7 0 10 7 6 18 -5 14 -4 14 9 -2 8 -11 18
-17 21 -13 4 4 12 2 19 -3 8 -6 24 -3 51 11 33 17 52 20 125 16 58 -3 97 0
118 9 34 14 43 1 11 -16 -25 -13 -27 -32 -2 -23 15 6 15 4 4 -9 -11 -14 -10
-17 10 -21 l23 -4 -22 -8 -23 -7 24 -29 c19 -22 26 -46 32 -99 6 -62 10 -74
37 -96 16 -13 27 -27 24 -30 -10 -11 -58 9 -76 32 -22 28 -31 30 -31 9 0 -20
-20 -19 -36 3 -12 16 -14 16 -30 -6 -15 -22 -17 -23 -36 -5 -19 17 -20 17 -29
0 -6 -9 -15 -17 -20 -17 -6 0 -8 4 -5 9 3 5 -5 9 -18 9 -15 0 -28 -9 -34 -23
-6 -12 -21 -25 -34 -28 l-23 -6 21 17 c12 9 27 28 34 41 19 37 0 46 -92 43
-84 -2 -118 3 -118 18 0 5 15 4 32 -1 27 -7 42 -4 84 16 56 28 96 63 59 52
-11 -3 -49 0 -85 7 l-65 13 107 0 c79 0 108 -4 112 -13 7 -17 -20 -44 -43 -44
-9 0 -26 -7 -37 -16 -18 -15 -18 -15 11 -9 51 11 80 29 83 53 7 44 -10 51
-121 44 -88 -4 -108 -9 -150 -34 -27 -16 -51 -27 -54 -24 -2 2 2 17 11 34 16
30 56 62 78 62 7 0 -1 -9 -18 -19 -31 -19 -52 -41 -39 -41 4 0 20 9 35 20 16
11 35 17 44 14 11 -4 15 -2 13 7 -2 8 -2 11 0 7 10 -17 21 -7 19 16 0 13 -3
22 -5 20 -3 -2 -15 6 -28 18 -12 12 -26 18 -30 14 -4 -4 0 -12 11 -18 16 -9
14 -12 -21 -28 -45 -20 -80 -63 -89 -109 l-7 -31 59 31 c47 24 67 30 99 26 22
-3 41 -11 43 -16 2 -6 9 -9 15 -5 7 3 3 -2 -7 -10 -11 -9 -25 -16 -30 -16 -7
0 -7 3 1 8 6 4 -11 7 -37 7 -27 0 -46 -4 -42 -9 3 -5 -2 -7 -11 -3 -24 9 -21
-16 4 -39 18 -16 34 -19 99 -17 61 2 81 -1 91 -13 11 -14 10 -19 -10 -35 -13
-11 -32 -19 -43 -19 -17 0 -18 -3 -9 -14 10 -12 8 -15 -11 -18 -22 -4 -22 -5
9 -24 25 -16 30 -23 21 -32 -7 -7 -21 -12 -33 -12 -18 1 -18 2 5 15 22 13 23
14 5 14 -11 1 -26 -3 -34 -8 -10 -7 -9 -11 8 -23 25 -18 18 -28 -22 -28 -25 0
-27 -2 -17 -15 6 -8 9 -18 6 -24 -4 -5 3 -7 16 -3 15 3 19 2 14 -7 -5 -8 -20
-9 -44 -5 -31 6 -35 5 -25 -7 6 -8 13 -30 15 -49 3 -30 0 -35 -20 -38 -43 -6
-82 19 -127 82 -65 92 -94 114 -195 152 -143 54 -204 89 -281 161 -79 75 -113
126 -140 214 -24 75 -34 201 -21 257 5 23 9 42 8 42 -2 0 -13 -11 -25 -24z
m29 -301 c43 -114 121 -208 227 -275 26 -17 100 -51 165 -76 65 -26 130 -56
144 -66 14 -11 46 -51 71 -89 49 -76 66 -89 112 -89 24 0 31 -4 31 -20 0 -18
-7 -20 -75 -20 l-75 0 -1 -117 c-1 -65 0 -133 1 -150 1 -27 -2 -33 -18 -33
-11 0 -31 6 -46 13 -34 19 -126 112 -126 130 0 8 -9 22 -20 32 -17 15 -20 16
-20 3 0 -9 7 -21 15 -28 8 -7 15 -19 15 -26 0 -8 9 -19 20 -26 11 -7 20 -18
20 -25 0 -6 9 -15 20 -18 11 -3 25 -15 30 -26 6 -10 17 -19 24 -19 8 0 19 -7
27 -16 7 -9 22 -14 36 -11 21 4 23 1 23 -37 0 -22 -7 -50 -15 -60 -8 -11 -15
-24 -15 -30 0 -5 7 -1 15 10 13 17 14 14 15 -42 0 -50 -4 -64 -22 -80 -34 -30
-72 -52 -146 -85 -37 -17 -54 -28 -37 -24 17 3 69 25 118 49 48 24 87 40 87
35 0 -14 -57 -46 -145 -81 -72 -28 -91 -32 -187 -32 -73 -1 -111 3 -119 12
-10 10 2 12 62 12 128 0 276 52 348 122 l33 33 -31 6 c-26 5 -38 2 -57 -16
-24 -22 -150 -77 -207 -91 -15 -3 -26 -9 -23 -11 8 -8 147 37 201 65 69 37 72
38 56 18 -22 -27 -124 -74 -193 -91 -92 -21 -203 -19 -257 5 -24 11 -42 22
-40 25 3 2 35 0 72 -6 121 -19 303 28 387 101 l35 29 -30 1 c-16 0 -61 -16
-100 -35 -42 -21 -102 -41 -150 -49 -55 -10 -68 -14 -43 -15 58 -1 137 19 202
51 32 16 60 27 64 24 10 -11 -125 -67 -199 -82 -87 -18 -182 -12 -246 16 -58
25 -55 42 4 24 61 -18 168 -18 251 1 69 16 163 61 169 81 7 22 -44 25 -79 5
-44 -25 -120 -49 -193 -61 l-60 -9 75 3 c56 2 93 10 148 33 39 17 72 28 72 23
0 -10 -83 -45 -143 -60 -74 -19 -232 -9 -284 18 -23 12 -47 31 -53 42 -10 19
-9 19 37 -2 59 -26 188 -35 264 -19 62 13 159 50 159 60 0 16 -49 34 -62 23
-22 -17 -99 -35 -193 -43 l-90 -7 110 2 c69 2 126 8 152 18 24 9 43 12 43 7 0
-16 -107 -41 -200 -46 -81 -4 -103 -2 -152 17 -58 21 -118 68 -118 91 0 8 5 7
18 -4 51 -46 169 -70 285 -57 72 8 177 44 177 60 0 16 -59 18 -101 3 -28 -10
-79 -17 -141 -17 -54 -1 -90 -4 -80 -8 30 -12 156 -8 212 6 30 8 56 13 58 11
10 -10 -44 -25 -119 -34 -138 -18 -257 13 -314 81 -40 47 -32 63 16 29 66 -49
131 -66 239 -65 70 1 106 6 139 20 l44 20 -25 16 c-21 14 -33 15 -64 6 -62
-17 -183 -14 -228 5 -49 21 -60 15 -14 -9 41 -21 155 -29 226 -16 29 5 55 6
58 1 8 -13 -65 -24 -161 -23 -70 0 -101 5 -139 22 -65 30 -112 66 -131 102
-24 47 -17 54 20 21 104 -91 272 -125 387 -78 l33 14 -25 13 c-17 9 -53 13
-110 11 -78 -2 -127 7 -194 34 -13 6 -17 5 -12 -3 14 -23 139 -53 214 -51 88
3 104 -7 27 -16 -135 -17 -296 47 -351 140 -37 63 -29 71 24 25 58 -52 100
-74 183 -95 61 -16 189 -18 204 -3 4 3 -3 16 -14 27 -17 17 -34 21 -88 21 -60
1 -110 13 -188 45 -18 8 -18 7 -6 -8 20 -25 134 -57 202 -57 38 0 59 -4 59
-11 0 -18 -147 -4 -212 21 -111 41 -182 104 -194 172 l-6 33 34 -37 c49 -54
112 -94 184 -118 62 -21 185 -32 199 -18 3 3 0 15 -7 27 -9 15 -23 21 -48 21
-53 0 -165 34 -210 64 -22 14 -40 23 -40 19 0 -12 58 -49 112 -73 25 -11 74
-23 107 -26 34 -4 61 -11 61 -15 0 -24 -161 10 -230 47 -98 53 -171 146 -169
216 0 29 1 31 12 14 63 -100 144 -167 242 -201 58 -20 165 -32 165 -19 -1 21
-28 41 -64 48 -75 14 -145 47 -196 92 -27 25 -50 41 -50 36 0 -6 23 -31 50
-56 53 -47 139 -86 190 -86 16 0 32 -4 35 -10 13 -22 -95 -2 -176 33 -50 21
-116 82 -156 145 -35 55 -61 148 -48 179 5 14 10 8 24 -28 34 -88 115 -183
202 -237 36 -22 165 -59 174 -50 11 11 -21 58 -40 58 -39 0 -127 51 -186 106
-72 70 -79 57 -8 -14 48 -48 154 -112 186 -112 7 0 13 -4 13 -10 0 -14 -82 14
-137 45 -71 42 -127 104 -166 186 -35 72 -62 189 -40 176 6 -4 14 -22 17 -41
11 -55 98 -179 158 -224 58 -44 137 -85 182 -96 24 -6 27 -4 22 9 -3 9 -6 25
-6 36 0 10 -7 19 -15 19 -35 0 -124 57 -187 120 -85 85 -90 71 -7 -15 37 -39
86 -77 125 -97 63 -33 85 -56 42 -43 -46 14 -132 71 -184 123 -92 92 -144 234
-119 329 7 26 8 24 21 -26 18 -68 62 -150 118 -222 62 -79 242 -196 223 -144
-4 9 -7 27 -7 40 0 16 -7 25 -25 29 -34 9 -146 116 -186 177 -40 63 -51 56
-13 -8 37 -64 105 -135 165 -174 55 -35 67 -58 17 -33 -146 73 -264 249 -284
420 -6 48 10 134 24 134 4 0 8 -21 10 -46 3 -66 50 -197 92 -263 59 -91 153
-175 218 -195 20 -7 21 -5 12 18 -5 14 -7 32 -4 40 4 9 -5 20 -23 29 -33 18
-125 113 -173 179 -18 27 -36 46 -38 43 -14 -13 127 -188 181 -225 34 -23 49
-50 29 -50 -16 0 -86 56 -128 102 -130 141 -182 352 -123 493 12 28 13 22 20
-75 4 -71 14 -125 29 -165z m2161 212 c42 -152 -33 -373 -168 -498 -104 -97
-137 -90 -37 8 68 66 161 189 151 199 -3 3 -20 -16 -38 -43 -43 -63 -137 -161
-170 -179 -21 -10 -28 -22 -31 -54 -3 -36 -2 -39 17 -34 40 13 91 53 152 117
84 90 122 172 161 352 l9 40 12 -45 c17 -60 8 -133 -29 -228 -49 -127 -139
-230 -247 -286 -45 -23 -41 -3 5 25 80 50 168 148 192 216 l10 28 -17 -22
c-10 -13 -34 -45 -53 -73 -35 -51 -140 -140 -165 -140 -12 0 -31 -67 -22 -77
3 -2 25 5 49 18 138 69 245 201 289 354 15 55 17 58 24 32 39 -148 -98 -365
-279 -441 -44 -19 -46 -19 -46 -8 0 5 23 19 52 33 53 24 198 154 198 177 0 6
-30 -19 -67 -57 -63 -64 -152 -121 -188 -121 -8 0 -15 -9 -15 -19 0 -11 -3
-27 -6 -36 -5 -13 -2 -15 22 -9 45 11 124 52 182 96 63 47 149 172 158 229 10
60 28 48 21 -13 -14 -113 -107 -252 -210 -313 -55 -31 -137 -59 -137 -45 0 6
6 10 13 10 50 0 237 136 237 172 0 6 -27 -15 -60 -46 -56 -54 -157 -111 -190
-109 -14 1 -45 -46 -36 -55 9 -9 118 21 163 44 87 46 174 145 211 240 17 43
20 46 27 25 26 -82 -82 -259 -190 -311 -79 -38 -205 -65 -190 -40 3 6 19 10
35 10 51 0 137 39 190 86 27 25 50 51 50 56 0 6 -21 -8 -46 -32 -51 -47 -106
-74 -185 -91 -48 -10 -78 -30 -79 -51 -1 -25 144 3 227 43 57 27 142 110 171
165 l21 39 1 -40 c1 -106 -133 -228 -287 -260 -78 -17 -113 -19 -113 -6 0 4
28 11 62 15 62 6 145 38 199 77 47 33 27 33 -26 0 -46 -29 -155 -61 -212 -61
-18 -1 -34 -9 -45 -24 -17 -23 -17 -24 13 -30 107 -21 283 48 372 148 l29 31
-6 -35 c-4 -19 -14 -46 -24 -60 -26 -35 -104 -85 -169 -110 -66 -24 -213 -39
-213 -21 0 7 21 11 59 11 68 0 182 32 202 57 12 15 12 16 -6 8 -78 -32 -128
-44 -187 -45 -55 0 -72 -4 -89 -21 -11 -11 -18 -24 -14 -27 15 -15 143 -13
204 3 83 21 125 43 184 95 50 44 57 40 31 -16 -45 -94 -221 -167 -360 -149
-76 9 -60 18 28 16 80 -2 163 17 200 44 19 14 20 16 3 10 -78 -29 -118 -36
-196 -34 -64 2 -90 -1 -108 -13 l-22 -16 33 -11 c122 -43 281 -10 383 80 37
33 44 26 20 -21 -19 -36 -66 -72 -131 -102 -38 -17 -69 -22 -139 -22 -96 -1
-165 9 -165 24 0 6 14 6 33 2 17 -4 75 -7 127 -7 73 0 103 4 128 18 45 25 35
32 -14 10 -45 -19 -166 -22 -228 -5 -31 9 -43 8 -64 -6 l-25 -16 44 -20 c33
-15 67 -20 139 -20 108 -1 173 17 239 65 33 23 41 26 41 13 0 -28 -72 -88
-129 -108 -82 -29 -273 -24 -317 9 -16 11 -9 11 41 -1 62 -14 187 -18 217 -6
10 4 -26 7 -80 8 -62 0 -113 7 -141 17 -42 15 -101 13 -101 -3 0 -15 102 -51
173 -60 113 -14 238 10 289 57 13 11 18 12 18 4 0 -23 -60 -70 -118 -91 -49
-19 -71 -21 -152 -17 -93 5 -200 30 -200 46 0 5 19 2 43 -7 26 -10 83 -16 152
-18 l110 -2 -90 7 c-94 8 -171 26 -193 43 -9 8 -20 7 -39 -1 -23 -11 -24 -14
-12 -27 8 -7 42 -24 74 -36 49 -18 82 -22 175 -23 100 0 121 3 159 23 54 27
54 27 41 2 -6 -11 -30 -30 -53 -42 -52 -27 -210 -37 -284 -18 -60 15 -143 50
-143 60 0 5 33 -6 73 -23 54 -23 91 -31 147 -33 l75 -3 -60 9 c-71 12 -147 35
-195 61 -26 14 -43 17 -64 11 l-30 -8 35 -26 c82 -63 283 -96 397 -65 46 13
51 12 40 -1 -37 -44 -166 -61 -282 -37 -74 15 -180 58 -192 76 -8 13 -2 12 62
-20 64 -32 144 -52 202 -50 25 1 12 5 -43 15 -48 8 -108 28 -150 49 -38 19
-83 35 -99 35 -28 0 -28 -1 -12 -19 25 -27 122 -77 186 -94 85 -24 149 -29
220 -18 35 6 66 8 68 6 3 -3 -15 -14 -39 -25 -54 -24 -165 -26 -257 -5 -69 17
-171 64 -193 91 -16 20 -13 19 56 -18 55 -28 193 -73 201 -65 3 3 -9 8 -26 12
-50 11 -170 63 -204 88 -22 16 -39 21 -60 17 l-29 -5 34 -33 c41 -41 155 -96
227 -111 29 -6 88 -11 130 -11 65 -1 74 -3 57 -13 -13 -7 -59 -12 -125 -11
-92 0 -114 4 -180 30 -88 35 -171 85 -152 92 7 2 21 -3 30 -11 23 -21 139 -74
177 -82 17 -3 0 7 -37 24 -74 33 -112 55 -145 85 -19 16 -23 30 -23 80 0 55 1
58 15 40 8 -10 15 -14 15 -8 0 5 -7 19 -15 30 -8 10 -15 38 -15 61 0 35 3 40
18 36 20 -5 92 33 92 48 0 5 11 15 25 21 14 6 25 16 25 22 0 6 9 17 20 24 11
7 20 18 20 26 0 7 7 19 15 26 8 7 15 23 15 36 0 12 5 26 10 29 6 3 10 13 10
22 0 11 -6 10 -24 -8 -17 -16 -21 -26 -13 -31 8 -5 6 -12 -6 -26 -9 -10 -17
-24 -17 -31 0 -16 -93 -110 -126 -128 -41 -21 -64 -17 -64 12 0 19 4 23 18 18
16 -6 16 -5 0 14 -15 16 -18 39 -18 131 0 128 2 125 -101 121 -50 -2 -63 1
-71 16 -9 16 -7 17 14 12 13 -4 41 -2 61 4 30 8 46 23 86 82 27 40 58 80 69
90 11 11 75 41 142 67 155 62 197 88 274 163 104 104 156 230 156 380 0 85 12
94 31 24z m-1028 -530 c-3 -5 -13 -1 -24 9 -10 9 -16 21 -13 26 7 11 43 -24
37 -35z m-85 7 c28 -2 32 -5 32 -21 0 -15 2 -16 10 -3 5 8 12 11 16 7 4 -3 1
-13 -6 -22 -14 -17 -40 -4 -40 22 0 8 -5 11 -10 8 -14 -9 -42 14 -33 28 4 7 8
6 12 -4 3 -8 12 -14 19 -15z m142 11 c11 -13 10 -14 -4 -9 -9 3 -16 10 -16 15
0 13 6 11 20 -6z m-219 -28 c-8 -8 -14 -7 -23 2 -11 11 -10 13 5 8 12 -4 17
-1 18 11 0 12 2 13 6 4 3 -8 0 -19 -6 -25z m205 -6 c8 7 14 7 14 1 0 -5 -6
-15 -14 -21 -17 -14 -42 11 -30 31 7 10 9 9 12 -5 3 -14 7 -16 18 -6z m-167
-13 c1 6 5 12 11 12 5 0 6 -7 3 -17 -4 -11 -3 -14 5 -9 8 5 12 0 12 -14 0 -12
4 -18 11 -15 6 4 8 14 5 22 -3 8 -1 11 5 8 5 -4 7 -16 3 -27 -4 -14 -2 -18 5
-14 7 5 11 -1 11 -15 0 -22 0 -22 19 -3 13 14 16 23 8 32 -7 9 -7 16 1 24 9 9
12 6 12 -12 1 -23 2 -24 14 -7 13 17 15 16 21 -12 7 -33 25 -43 25 -14 0 13 3
14 12 5 8 -8 8 -15 -2 -27 -12 -14 -15 -14 -36 6 -28 26 -46 17 -39 -19 4 -19
3 -21 -3 -9 -7 17 -9 17 -35 -3 -29 -23 -36 -21 -12 4 14 14 11 20 -35 64 -28
26 -47 52 -43 56 4 4 11 -1 14 -11 4 -10 8 -12 8 -5z m-99 -3 c0 -8 5 -15 10
-15 6 0 10 7 10 16 0 8 5 12 10 9 6 -4 8 -11 5 -16 -4 -5 1 -16 9 -25 15 -14
16 -13 16 7 0 18 3 20 12 11 10 -9 9 -16 -3 -28 -15 -14 -18 -14 -31 0 -9 8
-18 12 -22 9 -3 -4 -13 2 -21 13 -17 23 -19 34 -5 34 6 0 10 -7 10 -15z m-33
-1 c-3 -3 -12 -4 -19 -1 -8 3 -5 6 6 6 11 1 17 -2 13 -5z m324 -26 c0 -10 2
-10 6 0 2 6 9 12 15 12 7 0 6 -5 -2 -14 -12 -15 -40 -11 -40 5 0 14 20 11 21
-3z m-291 -40 c1 -22 1 -23 15 -4 11 15 15 16 15 5 0 -8 -5 -20 -12 -27 -9 -9
-14 -7 -24 6 -16 20 -18 42 -4 42 6 0 10 -10 10 -22z m107 -4 c9 17 11 16 17
-9 4 -15 5 -30 1 -33 -3 -3 -5 1 -5 9 0 8 -9 15 -20 15 -23 0 -25 -12 -5 -46
11 -20 14 -21 15 -7 0 10 5 15 10 12 8 -5 7 -11 -1 -21 -14 -16 -39 -2 -39 23
0 8 -5 11 -10 8 -14 -9 -42 14 -34 27 4 6 10 5 15 -3 10 -17 22 -6 25 24 4 33
5 34 13 7 7 -23 8 -24 18 -6z m240 10 c-3 -3 -12 -4 -19 -1 -8 3 -5 6 6 6 11
1 17 -2 13 -5z m-32 -61 c-5 -15 -7 -15 -22 -1 -9 10 -12 21 -7 29 5 9 9 8 15
-7 7 -17 8 -16 9 6 2 18 4 20 7 7 3 -10 2 -25 -2 -34z m-350 27 c-3 -5 -21 -9
-38 -9 l-32 1 30 8 c43 11 47 11 40 0z m390 0 c3 -5 1 -10 -4 -10 -6 0 -11 5
-11 10 0 6 2 10 4 10 3 0 8 -4 11 -10z m-105 -4 c0 -2 -7 -9 -15 -16 -13 -11
-14 -10 -9 4 5 14 24 23 24 12z m-266 -30 c-4 -9 -13 -15 -21 -12 -10 4 -9 -1
4 -18 21 -29 47 -16 38 18 -5 17 -4 18 4 6 10 -13 12 -13 21 0 8 13 10 12 10
-2 0 -10 5 -18 10 -18 6 0 10 -8 10 -17 0 -15 2 -16 10 -3 5 8 12 11 16 7 4
-4 2 -13 -5 -20 -10 -9 -16 -7 -31 11 -17 20 -20 21 -34 6 -15 -14 -15 -17 0
-31 13 -14 17 -14 26 -2 7 10 7 7 3 -10 -5 -16 -4 -21 4 -17 6 4 11 0 11 -8 0
-28 17 -17 28 17 6 20 10 25 11 13 1 -20 1 -20 16 0 8 10 15 14 15 8 0 -16
-25 -35 -35 -26 -4 4 -5 -9 -1 -28 3 -21 2 -30 -3 -22 -4 8 -12 13 -16 12 -4
-2 -38 26 -75 60 -53 49 -66 66 -57 75 7 7 18 10 24 8 7 -3 13 1 13 8 0 7 2
10 5 7 3 -3 3 -13 -1 -22z m386 6 c0 -13 -12 -22 -22 -16 -10 6 -1 24 13 24 5
0 9 -4 9 -8z m-190 -13 c0 -8 5 -8 15 1 17 14 21 0 4 -17 -9 -9 -15 -8 -25 2
-17 16 -18 25 -4 25 6 0 10 -5 10 -11z m80 1 c0 -5 8 -6 18 -3 15 6 15 5 3
-10 -10 -13 -17 -15 -27 -6 -16 13 -18 29 -4 29 6 0 10 -4 10 -10z m-111 -42
c1 6 6 12 12 12 6 0 9 -6 6 -14 -3 -8 -1 -17 6 -19 7 -2 9 -7 5 -11 -9 -11
-58 35 -51 47 4 6 10 2 14 -9 4 -10 8 -13 8 -6z m171 -12 c-7 -9 -16 -13 -21
-10 -5 3 -9 -2 -9 -10 0 -9 4 -16 10 -16 5 0 7 -7 4 -15 -7 -18 12 -20 20 -2
3 6 5 3 3 -8 -3 -26 -19 -24 -32 4 -5 12 -15 19 -22 17 -16 -6 -38 20 -23 29
5 3 10 -2 10 -12 1 -17 1 -17 15 0 7 11 11 25 8 33 -3 8 -1 14 5 14 6 0 13 -6
15 -12 3 -7 6 -4 6 7 1 14 4 16 13 7 8 -8 8 -15 -2 -26z m-380 -13 c0 -13 3
-13 15 -3 17 14 21 0 4 -17 -9 -9 -18 -5 -36 13 -13 13 -29 22 -34 19 -5 -4
-9 1 -9 9 0 12 5 13 30 5 17 -6 30 -18 30 -26z m280 25 c0 -9 3 -8 10 2 5 8
12 11 16 7 4 -3 1 -13 -6 -22 -10 -12 -16 -13 -26 -4 -16 13 -18 29 -4 29 6 0
10 -6 10 -12z m123 -39 c4 -16 3 -18 -9 -8 -7 6 -11 15 -8 20 8 13 11 11 17
-12z m47 13 c0 -5 -7 -9 -15 -9 -8 0 -15 4 -15 9 0 4 7 8 15 8 8 0 15 -4 15
-8z m-174 -27 c7 -27 19 -33 27 -12 4 7 6 6 6 -5 1 -9 7 -19 14 -22 6 -2 2 -4
-10 -2 -28 3 -55 25 -46 39 4 6 0 8 -10 4 -11 -4 -14 -2 -10 9 8 22 22 17 29
-11z m-276 -31 c0 -8 -4 -14 -10 -14 -5 0 -10 4 -10 9 0 5 -3 18 -7 28 -6 16
-5 16 10 4 9 -7 17 -20 17 -27z m51 6 c5 0 9 6 10 13 0 6 5 1 10 -12 5 -13 7
-26 4 -29 -3 -3 -5 0 -5 7 0 7 -5 9 -11 6 -13 -9 -40 26 -31 40 4 5 8 2 10 -7
2 -10 8 -18 13 -18z m167 5 c6 11 11 16 12 10 0 -18 -18 -38 -28 -31 -6 3 -12
0 -15 -6 -3 -7 -3 1 -2 17 5 42 6 43 14 15 7 -24 7 -24 19 -5z m-268 -20 c0
-8 -4 -15 -9 -15 -5 0 -11 7 -15 15 -3 9 0 15 9 15 8 0 15 -7 15 -15z m680
-260 l0 -235 -125 0 -125 0 0 75 0 74 -87 3 c-49 2 -87 6 -85 11 1 4 2 75 2
157 l0 150 210 0 210 0 0 -235z m-813 75 c-11 -55 0 -80 34 -80 27 0 69 -22
67 -34 0 -6 2 -19 7 -29 4 -9 3 -35 -2 -56 -6 -23 -7 -45 -1 -55 5 -10 5 -16
0 -16 -13 0 -24 29 -16 41 3 5 -2 32 -11 59 -13 39 -21 50 -38 50 -17 0 -19 2
-8 9 12 8 9 11 -13 17 -38 9 -48 41 -34 108 7 31 15 51 18 45 4 -5 3 -32 -3
-59z m159 -238 c-11 -10 -14 3 -7 38 l6 35 3 -33 c2 -19 1 -36 -2 -40z m315
-72 l53 -5 -40 -29 c-21 -16 -41 -31 -43 -32 -2 -2 4 -24 13 -50 9 -26 16 -49
16 -51 0 -1 -20 12 -45 29 l-44 31 -40 -26 c-22 -15 -42 -27 -45 -27 -2 0 4
21 13 46 l16 46 -40 33 -40 34 54 3 54 3 15 44 15 45 17 -45 c17 -43 18 -44
71 -49z m-269 -51 c-8 -88 45 -187 128 -238 l50 -31 0 -141 0 -142 -42 7 c-93
15 -247 137 -311 247 -15 25 -36 71 -46 102 -23 65 -45 202 -37 223 5 12 29
14 133 12 l128 -3 -3 -36z m662 -94 c78 -60 221 -101 321 -93 30 3 55 3 55 1
0 -14 -80 -33 -138 -33 -93 0 -292 69 -292 101 0 7 8 6 23 -3 35 -23 174 -78
194 -78 10 1 -2 9 -27 19 -93 37 -180 84 -180 97 0 19 6 18 44 -11z m-924 5
c0 -11 -80 -53 -165 -86 -33 -13 -52 -23 -42 -24 20 0 164 56 185 73 7 5 16 7
19 3 10 -10 -10 -21 -102 -58 -113 -44 -249 -51 -299 -15 -16 12 -10 13 42 9
83 -6 192 20 277 67 78 43 85 45 85 31z m10 -68 c0 -5 -30 -23 -67 -40 -80
-37 -69 -43 12 -8 77 35 69 22 -10 -15 -72 -34 -197 -50 -231 -31 -16 10 -12
11 23 12 49 0 185 41 228 69 34 22 45 25 45 13z m1029 -66 c30 -9 72 -16 93
-16 24 0 37 -4 33 -10 -8 -13 -97 -13 -152 0 -51 12 -158 58 -151 65 3 3 31
-6 63 -20 77 -34 81 -26 5 10 -33 16 -60 32 -60 37 0 5 26 -5 58 -21 31 -16
81 -36 111 -45z m-1009 1 c0 -7 -5 -18 -11 -24 -9 -9 -7 -10 10 -6 34 9 24 -5
-19 -27 -22 -11 -40 -18 -40 -15 0 3 9 24 20 45 20 39 40 53 40 27z m859 -27
c12 -22 21 -43 21 -45 0 -12 -30 -3 -51 16 -17 15 -19 19 -6 15 18 -6 24 9 7
19 -8 5 -4 35 5 35 2 0 12 -18 24 -40z m-829 -38 c0 -4 -6 -14 -12 -21 -11
-11 -9 -12 10 -6 16 5 22 2 22 -9 0 -18 -45 -23 -55 -6 -10 16 5 50 21 50 8 0
14 -4 14 -8z m798 -32 c3 -22 -1 -26 -28 -28 -22 -2 -30 1 -27 10 2 7 11 12
21 10 9 -2 16 2 16 8 0 5 -4 10 -10 10 -5 0 -10 5 -10 11 0 22 35 3 38 -21z
m-868 2 c0 -4 -5 -13 -12 -20 -8 -8 -9 -12 -1 -12 6 0 13 6 16 13 2 6 8 9 12
5 12 -11 -12 -35 -40 -41 -29 -5 -29 -5 -10 33 14 28 35 41 35 22z m950 -59
c0 -7 -9 -9 -22 -6 -31 8 -48 22 -48 41 0 12 6 10 27 -9 l26 -24 -16 25 c-9
13 -17 29 -17 35 1 14 50 -47 50 -62z m-824 10 c9 -14 10 -21 1 -32 -10 -11
-8 -13 12 -6 17 5 22 4 19 -6 -5 -16 -68 -25 -68 -11 0 20 13 72 18 72 2 0 11
-8 18 -17z m-74 -5 c-17 -17 -15 -33 3 -18 9 7 19 10 23 6 9 -10 -25 -35 -44
-32 -8 1 -14 6 -14 12 1 25 13 44 28 44 12 0 13 -3 4 -12z m752 -10 c14 -54
-1 -70 -48 -52 -24 9 -19 26 5 19 18 -6 19 -4 10 13 -7 13 -7 22 1 30 17 17
25 15 32 -10z m76 -9 c6 -10 10 -22 10 -27 0 -15 -51 -7 -61 9 -11 18 -2 26
13 11 19 -19 33 -14 15 6 -10 10 -17 21 -17 25 0 12 31 -6 40 -24z m-922 -26
c-15 -15 -30 -24 -34 -21 -8 8 32 48 48 48 7 0 0 -12 -14 -27z m219 -22 c-3
-15 0 -17 17 -13 18 4 17 1 -9 -26 l-30 -31 -3 30 c-2 17 2 37 9 45 16 19 22
18 16 -5z m-125 -3 c-20 -20 -13 -32 8 -13 21 19 28 7 8 -13 -19 -19 -48 -15
-48 6 0 23 8 32 29 32 12 0 12 -3 3 -12z m698 -44 c0 -19 4 -34 9 -34 5 0 18
-15 30 -32 11 -18 21 -27 21 -20 0 16 35 7 66 -17 29 -23 134 -142 134 -152 0
-5 -9 -9 -19 -9 -28 0 -35 -13 -40 -82 -1 -21 -75 -61 -164 -88 -34 -11 -65
-20 -68 -20 -12 0 -72 219 -64 237 5 14 13 2 32 -50 14 -37 27 -66 30 -64 2 2
-8 40 -22 85 -14 44 -22 88 -19 97 5 12 22 -23 53 -106 26 -68 53 -133 60
-144 l13 -20 -7 20 c-4 11 -32 86 -61 167 -51 141 -68 228 -44 228 6 0 19 -13
28 -30 19 -33 32 -39 32 -14 0 9 -14 29 -31 45 -32 30 -34 54 -3 28 15 -12 16
-11 9 11 -7 22 -6 23 9 11 9 -8 16 -28 16 -47z m133 16 c8 -29 -38 -28 -54 3
-12 22 -12 22 10 3 11 -11 21 -14 21 -8 0 6 -4 14 -10 17 -5 3 -10 11 -10 16
0 17 37 -9 43 -31z m-898 20 c-3 -5 -1 -10 6 -10 8 0 8 -4 -1 -15 -17 -21 -61
-20 -53 1 3 9 15 20 27 24 28 12 28 12 21 0z m125 -19 c-15 -29 -12 -39 5 -17
12 16 15 16 15 4 0 -8 -8 -23 -19 -32 -17 -16 -19 -16 -23 1 -6 23 8 63 22 63
7 0 8 -6 0 -19z m700 -10 c12 -24 13 -61 1 -61 -9 0 -41 44 -41 56 0 3 7 1 15
-6 18 -15 20 1 3 18 -9 9 -9 12 0 12 6 0 16 -9 22 -19z m-589 -31 c1 -19 -2
-44 -6 -54 -6 -14 -5 -17 3 -12 9 5 12 -6 12 -37 0 -24 -3 -47 -7 -51 -11 -10
-42 -116 -34 -116 3 0 14 20 24 45 18 44 37 59 37 31 0 -17 -58 -196 -69 -215
-7 -11 -15 -11 -45 -1 -31 10 -36 15 -30 33 6 22 6 22 -9 2 -15 -19 -16 -19
-85 14 -65 31 -69 35 -70 68 -2 38 -17 63 -38 63 -24 0 -16 15 55 96 66 75
121 110 130 83 2 -6 12 4 23 22 18 29 22 31 32 17 11 -15 15 -13 40 18 15 20
30 34 32 32 1 -2 4 -19 5 -38z m1263 -7 c-8 -25 -14 -50 -14 -55 0 -4 25 -8
55 -8 l55 0 -64 -63 c-34 -35 -82 -91 -105 -125 -49 -72 -66 -79 -57 -23 5 36
3 41 -31 69 l-37 30 38 48 c47 59 158 174 167 174 4 0 1 -21 -7 -47z m-818
-91 c-14 -13 -32 20 -27 50 l5 33 7 -30 c7 -26 8 -24 7 15 0 71 5 71 9 1 2
-35 2 -66 -1 -69z m-406 81 c0 -28 3 -34 10 -23 8 12 10 12 15 -2 9 -22 3 -50
-12 -55 -12 -4 -18 11 -28 75 -5 28 -3 42 4 42 6 0 11 -17 11 -37z m-217 10
c-6 -16 -5 -16 10 -4 15 12 17 11 17 -2 0 -17 -34 -32 -50 -22 -7 4 -7 13 0
26 13 24 32 25 23 2z m837 -9 c13 -33 13 -34 -8 -34 -20 0 -42 18 -42 34 0 6
5 5 12 -2 7 -7 17 -12 22 -12 6 0 5 5 -2 12 -15 15 -16 28 -2 28 6 0 15 -12
20 -26z m36 5 c1 -5 2 -14 3 -20 0 -5 5 -8 10 -5 5 4 12 0 14 -6 4 -8 6 -7 6
4 1 9 -5 19 -11 21 -9 4 -7 6 3 6 30 2 74 -74 62 -106 -4 -10 -2 -14 4 -10 7
4 27 -15 48 -43 20 -27 43 -50 50 -50 8 0 17 -5 20 -11 13 -19 -3 -21 -32 -3
l-28 18 20 -23 c11 -13 27 -20 37 -18 9 3 25 -1 35 -9 10 -7 13 -14 8 -14 -6
0 -16 5 -23 12 -9 9 -12 8 -12 -4 0 -9 6 -18 13 -21 6 -2 9 -7 6 -11 -3 -3
-17 3 -32 14 -14 11 -31 20 -39 20 -8 0 -19 5 -26 12 -6 6 -15 9 -18 5 -4 -3
14 -16 40 -29 25 -12 46 -28 46 -36 0 -7 4 -10 10 -7 6 3 7 -1 4 -9 -3 -9 -1
-16 5 -16 6 0 11 5 11 12 0 18 10 3 15 -22 5 -26 15 -40 15 -21 0 7 5 9 10 6
17 -10 11 -25 -10 -25 -11 0 -20 4 -20 8 0 5 -23 32 -52 60 -54 54 -72 58
-109 26 -24 -21 -34 -17 -14 6 10 11 25 20 34 20 12 0 13 2 3 8 -10 7 -7 17
12 45 25 36 25 36 6 59 -11 13 -19 18 -20 13 0 -6 5 -16 11 -22 12 -12 4 -33
-12 -33 -6 0 -7 9 -4 20 4 13 2 20 -6 20 -20 0 -79 62 -79 83 0 11 -5 17 -13
14 -8 -3 -13 9 -14 40 -1 25 2 42 5 38 4 -4 8 -11 8 -16z m-961 1 c-3 -5 -1
-10 5 -10 6 0 9 -4 5 -9 -3 -5 0 -13 6 -17 7 -4 9 -3 6 2 -3 6 -2 16 4 24 7
13 9 12 9 -2 0 -9 3 -24 6 -32 5 -12 2 -15 -10 -10 -11 4 -16 0 -16 -14 0 -11
-16 -37 -35 -58 -43 -45 -47 -28 -5 19 30 35 36 47 23 47 -5 0 -23 -22 -41
-48 -22 -33 -30 -54 -26 -67 6 -14 4 -17 -9 -12 -9 3 -17 4 -17 1 0 -15 43
-86 55 -91 8 -3 15 -12 15 -21 0 -12 -4 -12 -21 4 -11 10 -33 24 -47 31 -24
12 -25 12 -3 7 21 -5 22 -4 10 9 -17 18 -41 10 -35 -12 3 -9 -5 -23 -19 -34
-26 -19 -44 -7 -20 13 8 7 15 17 15 22 0 9 -91 -62 -118 -92 -12 -13 -13 -13
-8 3 3 10 6 23 6 28 0 6 4 8 9 4 5 -3 13 4 16 15 4 12 12 19 18 17 16 -5 36
23 37 51 0 12 8 26 18 29 30 11 74 47 83 68 5 11 13 27 18 35 5 8 18 36 31 63
12 26 26 47 31 47 6 0 7 -4 4 -10z m662 -47 c-6 -6 -47 19 -47 29 0 5 9 8 20
8 11 0 21 6 21 13 1 6 4 -1 6 -16 3 -16 2 -31 0 -34z m-291 34 c10 4 15 0 14
-8 -1 -8 -2 -25 -1 -38 1 -19 4 -21 15 -12 24 20 27 -15 4 -45 l-22 -27 -13
38 c-10 30 -10 41 0 53 10 13 9 15 -5 9 -15 -5 -18 -1 -17 21 0 15 3 22 5 15
3 -7 12 -9 20 -6z m213 -41 c-14 -29 -20 -31 -37 -14 -16 16 -15 31 0 26 7 -3
19 2 27 9 19 20 24 10 10 -21z m-117 4 c6 0 5 -6 -2 -15 -10 -12 -16 -13 -26
-4 -19 16 -18 33 2 25 9 -3 20 -6 26 -6z m184 -36 c-2 -6 2 -20 10 -31 14 -17
15 -17 8 6 -4 17 -2 22 7 19 18 -6 24 -67 9 -82 -15 -15 -51 28 -44 52 5 13 4
14 -4 3 -12 -16 -52 2 -52 24 0 20 21 30 31 14 6 -10 9 -8 9 10 0 20 2 22 15
11 9 -7 14 -19 11 -26z m-156 -9 c0 -14 5 -25 10 -25 6 0 10 12 10 26 0 22 2
25 15 14 20 -17 19 -24 -8 -56 l-24 -27 -22 32 c-18 25 -20 35 -11 46 18 22
30 18 30 -10z m-158 -27 c-5 -21 -4 -22 11 -9 15 12 17 11 17 -4 0 -19 -27
-55 -40 -55 -13 0 -19 54 -9 72 14 26 28 22 21 -4z m107 -23 c1 18 2 18 17 3
15 -14 15 -18 -1 -42 -22 -32 -30 -33 -51 -1 -16 24 -16 27 2 46 l19 21 6 -24
c6 -19 7 -20 8 -3z m120 9 c1 18 2 18 21 1 18 -16 18 -20 4 -46 -17 -34 -25
-36 -49 -9 -16 17 -16 24 -5 48 12 25 13 26 21 7 7 -19 8 -19 8 -1z m-801 -37
l32 -33 -30 -27 c-16 -15 -30 -34 -30 -42 0 -8 -5 -15 -11 -15 -5 0 -7 5 -4
10 8 13 -18 13 -31 0 -7 -7 -21 2 -44 25 -18 19 -32 36 -29 38 2 1 23 19 47
40 23 20 48 37 55 37 7 0 28 -15 45 -33z m1559 -9 c21 -18 40 -33 42 -35 7 -5
-42 -74 -60 -83 -14 -8 -17 -7 -13 4 3 8 -3 16 -18 20 -13 3 -38 20 -56 36
l-32 30 32 30 c42 38 59 37 105 -2z m-704 -8 c-3 -11 0 -20 6 -20 6 0 11 10
11 22 0 21 1 21 17 5 16 -16 16 -19 0 -52 -20 -42 -32 -44 -51 -6 -13 25 -13
31 0 50 19 26 24 27 17 1z m-122 -34 c5 -6 9 -1 9 12 0 25 12 28 30 8 9 -12 7
-21 -11 -45 -13 -17 -25 -31 -27 -31 -3 0 -15 12 -28 27 -21 25 -22 27 -6 49
14 19 18 20 20 6 2 -10 8 -21 13 -26z m-130 12 l2 -23 4 23 c5 26 18 29 27 6
6 -15 -22 -74 -34 -74 -9 0 -30 72 -24 82 10 16 24 8 25 -14z m-45 -25 c-3
-10 -8 -31 -11 -48 l-6 -30 15 25 14 25 11 -26 c9 -25 -4 -107 -23 -137 -6
-10 -61 0 -74 13 -10 10 53 195 66 195 8 0 11 -7 8 -17z m424 -184 c0 -8 -70
-22 -76 -16 -3 2 -13 33 -23 69 -15 52 -16 67 -6 81 17 24 22 21 29 -15 3 -17
9 -29 12 -26 3 3 0 25 -6 47 -6 23 -8 47 -4 53 6 10 74 -168 74 -193z m-1123
172 c10 -15 9 -22 -1 -30 -10 -9 -15 -8 -20 5 -16 41 0 59 21 25z m178 0 c-7
-13 -45 -21 -45 -10 0 5 7 9 15 9 8 0 15 5 15 11 0 5 5 7 10 4 6 -4 8 -10 5
-14z m1591 3 c-3 -9 -6 -23 -6 -31 0 -13 -3 -13 -15 -3 -11 9 -12 17 -4 31 12
23 34 26 25 3z m-1421 -4 c3 -5 2 -10 -4 -10 -5 0 -13 5 -16 10 -3 6 -2 10 4
10 5 0 13 -4 16 -10z m486 -48 c-5 -10 -17 -24 -25 -31 -12 -10 -18 -8 -31 13
-14 21 -14 28 -3 48 l13 23 3 -23 c4 -27 22 -19 22 11 l0 21 15 -22 c12 -16
13 -27 6 -40z m109 18 c5 0 10 8 12 18 3 15 5 15 15 -3 9 -17 8 -26 -7 -45
l-19 -25 -22 22 c-21 20 -21 25 -9 50 13 27 14 27 18 6 2 -13 7 -23 12 -23z
m462 18 c-7 -7 -12 -8 -12 -2 0 14 12 26 19 19 2 -3 -1 -11 -7 -17z m224 -21
c8 3 14 1 14 -5 0 -16 -35 -7 -36 9 -1 8 1 9 3 2 2 -7 11 -9 19 -6z m-1330 -6
c19 -19 216 -113 277 -132 196 -63 403 -64 607 -4 30 9 106 43 169 76 128 67
131 67 187 -6 34 -45 29 -51 -89 -109 -156 -77 -340 -128 -505 -140 -171 -12
-418 37 -587 118 -101 48 -175 92 -175 105 0 14 81 101 94 101 7 0 16 -4 22
-9z m-222 -13 c-5 -7 -2 -9 9 -5 11 4 14 2 10 -9 -6 -16 -19 -18 -28 -4 -6 10
1 30 11 30 3 0 2 -5 -2 -12z m795 -20 c1 27 12 28 29 2 10 -17 9 -25 -4 -45
-19 -29 -31 -31 -56 -8 -22 20 -22 27 -1 60 l18 27 6 -29 c5 -24 7 -25 8 -7z
m751 -2 c0 4 9 -2 20 -14 23 -25 25 -32 7 -32 -15 0 -67 57 -67 74 1 6 10 0
20 -13 11 -13 20 -20 20 -15z m-1446 2 c-5 -8 -2 -9 10 -5 19 7 15 -4 -12 -35
-16 -20 -42 -24 -42 -8 0 6 6 9 13 8 6 -2 12 4 12 12 1 16 13 40 21 40 3 0 2
-5 -2 -12z m619 -88 c-5 -35 -9 -40 -32 -40 -47 0 -51 9 -33 76 l16 62 27 -29
c23 -25 26 -35 22 -69z m213 39 c7 -30 14 -60 14 -66 0 -14 -70 -19 -70 -5 0
4 -4 24 -9 44 -7 28 -5 38 6 42 8 4 17 -4 24 -21 5 -14 12 -24 15 -21 2 3 0
18 -6 33 -10 27 -6 64 6 52 3 -3 12 -29 20 -58z m-181 -30 c-4 -11 -2 -19 4
-19 6 0 11 5 11 11 0 5 5 7 10 4 6 -3 10 -17 10 -31 0 -24 -22 -32 -46 -16
-13 9 -6 84 7 76 6 -3 7 -14 4 -25z m104 -32 c1 -25 -2 -28 -26 -25 -30 3 -43
32 -24 51 9 9 15 8 22 -3 9 -12 10 -12 5 3 -3 11 -3 24 1 30 8 14 21 -18 22
-56z m381 -164 c14 -26 36 -60 48 -75 l24 -28 -27 0 c-41 0 -92 28 -130 73
-19 22 -35 44 -35 49 0 20 37 5 72 -29 44 -43 48 -41 13 7 -13 18 -22 37 -19
41 12 20 30 6 54 -38z m-730 7 c0 -6 -9 -30 -21 -53 l-20 -42 35 40 c19 22 35
43 36 48 0 4 7 7 15 7 50 0 -45 -111 -113 -131 -53 -15 -63 -7 -30 29 14 15
38 46 53 70 27 40 45 54 45 32z"/>
<path d="M519 5690 c13 -11 27 -20 32 -20 18 0 8 10 -23 25 l-33 16 24 -21z"/>
<path d="M490 5665 c0 -8 61 -37 67 -31 3 2 -9 12 -26 20 -31 17 -41 19 -41
11z"/>
<path d="M588 5634 c-12 -11 -10 -42 3 -49 14 -10 16 -4 10 28 -3 16 -9 25
-13 21z"/>
<path d="M490 5625 c0 -2 14 -11 30 -20 17 -9 30 -12 30 -7 0 5 -11 14 -25 20
-28 13 -35 14 -35 7z"/>
<path d="M699 5609 c13 -11 26 -17 29 -14 7 6 -29 34 -43 34 -5 0 1 -9 14 -20z"/>
<path d="M686 5575 c10 -8 26 -14 34 -14 11 0 10 3 -4 14 -11 8 -27 15 -35 15
-11 0 -10 -4 5 -15z"/>
<path d="M505 5570 c28 -12 47 -12 40 0 -3 6 -18 10 -33 9 -24 0 -25 -1 -7 -9z"/>
<path d="M570 5552 c0 -18 18 -42 31 -42 4 0 2 14 -4 30 -13 33 -27 40 -27 12z"/>
<path d="M660 5555 c0 -5 55 -35 65 -35 18 0 0 20 -26 29 -36 12 -39 13 -39 6z"/>
<path d="M500 5530 c20 -13 53 -13 45 0 -3 6 -18 10 -33 10 -21 0 -24 -2 -12
-10z"/>
<path d="M566 5512 c-4 -7 -4 -17 0 -23 4 -7 7 -28 8 -47 1 -19 6 -37 11 -39
12 -4 10 62 -2 96 -6 16 -12 20 -17 13z"/>
<path d="M680 5500 c8 -5 24 -10 35 -10 17 0 17 2 5 10 -8 5 -24 10 -35 10
-17 0 -17 -2 -5 -10z"/>
<path d="M505 5490 c27 -12 35 -12 35 0 0 6 -12 10 -27 9 -25 0 -26 -1 -8 -9z"/>
<path d="M665 5471 c6 -5 24 -13 40 -17 20 -4 27 -3 20 3 -5 6 -23 14 -40 17
-20 5 -27 4 -20 -3z"/>
<path d="M495 5460 c3 -5 17 -10 31 -10 14 0 22 4 19 10 -3 6 -17 10 -31 10
-14 0 -22 -4 -19 -10z"/>
<path d="M675 5430 c3 -5 17 -10 31 -10 14 0 22 4 19 10 -3 6 -17 10 -31 10
-14 0 -22 -4 -19 -10z"/>
<path d="M500 5420 c0 -5 12 -10 26 -10 14 0 23 4 19 10 -3 6 -15 10 -26 10
-10 0 -19 -4 -19 -10z"/>
<path d="M680 5400 c-11 -7 -7 -10 18 -10 17 0 32 5 32 10 0 13 -30 13 -50 0z"/>
<path d="M505 5380 c28 -12 45 -12 45 0 0 6 -15 10 -32 9 -28 0 -30 -2 -13 -9z"/>
<path d="M580 5369 c0 -16 27 -46 35 -38 2 2 -5 15 -15 29 -15 19 -20 21 -20
9z"/>
<path d="M700 5370 c-24 -8 -23 -8 8 -9 17 -1 32 4 32 9 0 11 -5 11 -40 0z"/>
<path d="M520 5350 c-24 -8 -23 -8 8 -9 17 -1 32 4 32 9 0 11 -5 11 -40 0z"/>
<path d="M705 5330 c-18 -8 -17 -9 7 -9 15 -1 30 4 33 9 7 12 -12 12 -40 0z"/>
<path d="M520 5310 c-12 -8 -12 -10 5 -10 11 0 27 5 35 10 12 8 12 10 -5 10
-11 0 -27 -5 -35 -10z"/>
<path d="M725 5303 l-30 -14 30 6 c31 7 41 12 34 19 -2 2 -17 -3 -34 -11z"/>
<path d="M541 5279 c-13 -5 -22 -12 -19 -15 8 -8 58 7 58 17 0 11 -8 11 -39
-2z"/>
<path d="M730 5274 l-25 -15 25 7 c14 3 29 10 35 15 15 14 -7 10 -35 -7z"/>
<path d="M749 5251 c-24 -20 -24 -20 -2 -14 12 3 28 11 34 19 17 21 -5 17 -32
-5z"/>
<path d="M555 5240 c-18 -12 -24 -20 -14 -20 18 0 56 26 49 34 -3 3 -19 -4
-35 -14z"/>
<path d="M764 5219 l-19 -22 33 17 c34 18 40 26 19 26 -8 0 -22 -10 -33 -21z"/>
<path d="M574 5205 c-10 -8 -14 -15 -8 -15 5 0 19 7 30 15 10 8 14 15 8 15 -5
0 -19 -7 -30 -15z"/>
<path d="M785 5200 c-10 -11 -14 -20 -8 -20 5 0 18 9 28 20 10 11 14 20 8 20
-5 0 -18 -9 -28 -20z"/>
<path d="M595 5164 l-30 -25 33 16 c17 8 32 20 32 25 0 14 -1 13 -35 -16z"/>
<path d="M619 5134 c-21 -24 -22 -26 -3 -16 25 13 50 42 37 42 -5 0 -20 -12
-34 -26z"/>
<path d="M649 5104 c-23 -25 -23 -26 -2 -15 23 12 38 29 31 37 -3 2 -15 -8
-29 -22z"/>
<path d="M680 5085 c-13 -14 -19 -25 -13 -25 12 0 48 38 41 45 -2 3 -15 -6
-28 -20z"/>
<path d="M710 5058 l-23 -33 28 27 c16 15 26 30 23 33 -3 4 -16 -9 -28 -27z"/>
<path d="M746 5045 c-10 -14 -16 -29 -13 -31 7 -8 39 35 35 47 -2 7 -12 0 -22
-16z"/>
<path d="M783 5038 c-24 -32 -24 -41 0 -19 15 14 27 26 27 28 0 8 -19 2 -27
-9z"/>
<path d="M2028 5697 c-16 -6 -28 -14 -28 -19 0 -14 17 -9 41 12 27 22 26 22
-13 7z"/>
<path d="M2027 5654 c-16 -9 -27 -18 -24 -21 6 -5 67 24 67 32 0 8 -14 5 -43
-11z"/>
<path d="M1960 5621 c0 -10 -3 -28 -7 -38 -6 -16 -5 -16 10 -4 19 15 23 46 7
56 -5 3 -10 -3 -10 -14z"/>
<path d="M1846 5615 c-11 -8 -17 -17 -14 -20 3 -3 16 3 29 14 27 23 14 28 -15
6z"/>
<path d="M2033 5620 c-13 -5 -23 -14 -23 -20 0 -6 12 -4 30 5 45 23 39 33 -7
15z"/>
<path d="M1844 5575 c-14 -11 -15 -14 -4 -14 8 0 24 6 34 14 15 11 16 15 5 15
-8 0 -24 -7 -35 -15z"/>
<path d="M2015 5570 c-7 -12 12 -12 40 0 18 8 17 9 -7 9 -15 1 -30 -3 -33 -9z"/>
<path d="M1963 5539 c-10 -27 -10 -30 4 -25 12 5 14 2 9 -16 -10 -33 -12 -98
-4 -98 11 0 19 44 18 98 -1 9 -1 29 -1 45 0 36 -12 34 -26 -4z"/>
<path d="M1858 5548 c-16 -5 -28 -14 -28 -19 0 -14 12 -11 45 11 32 21 26 24
-17 8z"/>
<path d="M2020 5530 c0 -13 20 -13 40 0 12 8 9 10 -12 10 -16 0 -28 -4 -28
-10z"/>
<path d="M1840 5500 c-12 -8 -12 -10 5 -10 11 0 27 5 35 10 12 8 12 10 -5 10
-11 0 -27 -5 -35 -10z"/>
<path d="M2020 5490 c0 -12 8 -12 35 0 18 8 17 9 -7 9 -16 1 -28 -3 -28 -9z"/>
<path d="M1865 5473 c-11 -3 -24 -10 -30 -15 -13 -13 46 -1 60 13 10 10 4 10
-30 2z"/>
<path d="M2020 5460 c0 -5 9 -10 19 -10 11 0 23 5 26 10 4 6 -5 10 -19 10 -14
0 -26 -4 -26 -10z"/>
<path d="M1835 5430 c-8 -13 25 -13 45 0 12 8 9 10 -12 10 -15 0 -30 -4 -33
-10z"/>
<path d="M2015 5420 c-4 -6 5 -10 19 -10 14 0 26 5 26 10 0 6 -9 10 -19 10
-11 0 -23 -4 -26 -10z"/>
<path d="M1830 5400 c0 -5 15 -10 33 -10 24 0 28 3 17 10 -20 13 -50 13 -50 0z"/>
<path d="M2010 5380 c0 -12 17 -12 45 0 17 7 15 9 -12 9 -18 1 -33 -3 -33 -9z"/>
<path d="M1820 5370 c0 -5 12 -10 28 -9 24 0 25 1 7 9 -27 12 -35 12 -35 0z"/>
<path d="M2000 5350 c0 -5 14 -10 32 -10 36 0 35 4 -4 14 -17 4 -28 2 -28 -4z"/>
<path d="M1815 5330 c3 -5 18 -10 33 -9 24 0 25 1 7 9 -28 12 -47 12 -40 0z"/>
<path d="M1796 5303 c-8 -20 0 -29 34 -37 24 -7 24 -6 -2 9 -37 21 -35 28 5
21 17 -3 25 -3 17 0 -8 4 -22 11 -32 15 -11 6 -18 4 -22 -8z"/>
<path d="M1995 5310 c3 -5 21 -10 38 -10 24 0 28 3 17 10 -20 13 -63 13 -55 0z"/>
<path d="M1980 5281 c0 -8 34 -21 55 -21 11 1 -35 29 -47 30 -5 0 -8 -4 -8 -9z"/>
<path d="M1779 5256 c6 -8 22 -16 34 -19 22 -6 22 -6 -2 14 -27 22 -49 26 -32
5z"/>
<path d="M1970 5250 c0 -11 38 -32 50 -28 5 2 -4 11 -20 20 -17 9 -30 13 -30
8z"/>
<path d="M1764 5225 c26 -19 42 -19 26 0 -7 8 -20 15 -29 15 -13 -1 -13 -3 3
-15z"/>
<path d="M1740 5214 c0 -9 32 -33 44 -34 5 0 1 9 -9 20 -18 20 -35 26 -35 14z"/>
<path d="M1964 5205 c11 -8 25 -15 30 -15 6 0 2 7 -8 15 -11 8 -25 15 -30 15
-6 0 -2 -7 8 -15z"/>
<path d="M1930 5181 c0 -6 14 -17 30 -26 17 -9 30 -13 30 -11 0 3 -13 14 -30
26 -16 12 -30 17 -30 11z"/>
<path d="M1910 5144 c8 -8 23 -20 34 -26 19 -10 18 -8 -3 16 -26 27 -53 37
-31 10z"/>
<path d="M1880 5114 c8 -8 23 -20 34 -26 19 -10 18 -8 -3 16 -26 27 -53 37
-31 10z"/>
<path d="M1850 5103 c0 -12 38 -48 45 -41 3 2 -6 15 -20 28 -14 13 -25 19 -25
13z"/>
<path d="M1820 5082 c0 -5 12 -19 27 -33 l27 -24 -23 33 c-23 32 -31 39 -31
24z"/>
<path d="M1789 5052 c11 -21 41 -48 41 -38 0 4 -7 18 -16 31 -19 29 -40 34
-25 7z"/>
<path d="M1760 5042 c0 -5 10 -17 21 -28 22 -19 22 -19 10 3 -12 24 -31 39
-31 25z"/>
<path d="M1440 5313 c-47 -31 -81 -67 -75 -81 3 -8 2 -19 -2 -25 -4 -7 -8 -19
-8 -28 -1 -13 4 -16 19 -11 19 6 30 7 74 3 6 -1 12 -10 12 -21 0 -13 5 -18 15
-13 13 4 15 -2 13 -40 -2 -25 -6 -43 -10 -40 -5 2 -8 -1 -8 -6 0 -11 6 -12 78
-15 47 -2 49 -1 27 20 -17 17 -20 89 -5 99 6 4 17 2 25 -5 9 -7 15 -8 20 0 9
14 42 13 48 -2 3 -7 6 9 6 35 1 35 -5 58 -21 79 -42 59 -153 86 -208 51z m166
-30 c-8 -9 -50 -12 -63 -5 -8 5 3 8 27 8 22 0 38 -1 36 -3z m-186 -20 c-8 -3
-22 -11 -30 -17 -13 -10 -13 -9 -1 7 7 9 21 17 30 16 13 0 14 -1 1 -6z m74
-19 c3 -8 2 -12 -4 -9 -6 3 -10 10 -10 16 0 14 7 11 14 -7z m74 -9 c-2 -1 -16
-5 -31 -9 -24 -6 -26 -5 -16 7 8 8 22 12 32 9 10 -2 16 -6 15 -7z m52 5 c0 -5
-2 -10 -4 -10 -3 0 -8 5 -11 10 -3 6 -1 10 4 10 6 0 11 -4 11 -10z m-210 -25
c-14 -17 -30 -20 -30 -6 0 5 8 12 18 14 9 3 19 5 21 6 2 0 -2 -6 -9 -14z m50
-5 c-20 -13 -33 -13 -25 0 3 6 14 10 23 10 15 0 15 -2 2 -10z m187 -6 c-3 -3
-12 -4 -19 -1 -8 3 -5 6 6 6 11 1 17 -2 13 -5z m-142 -14 c-27 -12 -43 -12
-25 0 8 5 22 9 30 9 10 0 8 -3 -5 -9z m30 -19 c-3 -5 -1 -12 5 -16 13 -8 13
-25 0 -25 -5 0 -10 7 -10 15 0 18 -16 20 -23 3 -4 -8 -6 -7 -6 4 -1 9 5 19 12
21 20 9 29 8 22 -2z m100 -1 c-27 -12 -43 -12 -25 0 8 5 22 9 30 9 10 0 8 -3
-5 -9z"/>
<path d="M980 5110 c0 -5 5 -10 11 -10 5 0 7 5 4 10 -3 6 -8 10 -11 10 -2 0
-4 -4 -4 -10z"/>
<path d="M1017 4808 c6 -11 43 -10 43 1 0 5 -11 8 -24 7 -13 0 -22 -4 -19 -8z"/>
<path d="M1050 4750 c-12 -8 -11 -10 8 -10 12 0 22 5 22 10 0 13 -11 13 -30 0z"/>
<path d="M1090 4695 c-13 -16 -3 -20 24 -9 9 3 13 10 10 15 -8 13 -20 11 -34
-6z"/>
<path d="M1142 4644 l-23 -11 23 -6 c25 -7 41 3 30 19 -5 7 -14 7 -30 -2z"/>
<path d="M1221 4609 c0 -9 -11 -20 -22 -25 -20 -9 -19 -11 15 -21 29 -9 35 -9
28 0 -6 7 -12 23 -15 37 -2 14 -5 18 -6 9z"/>
<path d="M1017 4258 c-9 -29 -15 -54 -13 -56 2 -2 12 20 21 48 9 28 15 53 13
55 -2 3 -12 -19 -21 -47z"/>
<path d="M966 4119 c-15 -39 -25 -74 -23 -76 3 -2 16 29 31 68 15 39 25 74 23
76 -3 2 -16 -29 -31 -68z"/>
<path d="M1006 4095 c-9 -26 -7 -32 5 -12 6 10 9 21 6 23 -2 3 -7 -2 -11 -11z"/>
<path d="M1770 4303 c0 -6 14 -26 31 -44 l31 -34 -19 33 c-20 37 -43 61 -43
45z"/>
<path d="M625 4160 c-10 -11 -14 -20 -8 -20 5 0 18 9 28 20 10 11 14 20 8 20
-5 0 -18 -9 -28 -20z"/>
<path d="M1471 4024 c0 -11 3 -14 6 -6 3 7 2 16 -1 19 -3 4 -6 -2 -5 -13z"/>
<path d="M693 4015 c-28 -45 -16 -54 14 -10 24 36 28 45 16 45 -5 -1 -18 -16
-30 -35z"/>
<path d="M717 3999 c-10 -18 -16 -34 -13 -36 4 -4 46 51 46 61 0 16 -17 3 -33
-25z"/>
<path d="M747 3975 c-20 -42 -8 -47 16 -6 19 32 21 41 9 41 -5 0 -16 -16 -25
-35z"/>
<path d="M1827 3978 c18 -18 35 -29 39 -26 7 8 -45 57 -61 58 -5 0 5 -14 22
-32z"/>
<path d="M785 3970 c-24 -46 -13 -60 13 -17 11 20 17 39 12 42 -5 3 -16 -8
-25 -25z"/>
<path d="M817 3946 c-21 -45 -9 -55 14 -11 21 39 23 45 11 45 -5 0 -16 -15
-25 -34z"/>
<path d="M1728 3975 c-7 -7 25 -74 35 -75 5 0 5 10 2 23 -6 18 -5 20 6 10 7
-7 20 -13 28 -13 10 0 7 6 -9 17 -14 10 -29 18 -33 18 -4 0 -11 6 -16 13 -4 7
-10 10 -13 7z"/>
<path d="M864 3943 c17 -62 18 -65 26 -53 9 15 -8 70 -22 70 -5 0 -7 -8 -4
-17z"/>
<path d="M1690 3953 c1 -13 39 -79 40 -69 0 18 -24 76 -32 76 -4 0 -8 -3 -8
-7z"/>
<path d="M934 3920 c3 -14 6 -33 6 -42 0 -10 5 -18 11 -18 14 0 4 60 -13 75
-8 7 -9 3 -4 -15z"/>
<path d="M1610 3926 c0 -13 32 -77 37 -73 8 8 -17 77 -28 77 -5 0 -9 -2 -9 -4z"/>
<path d="M985 3884 c-3 -20 -4 -39 -1 -42 3 -3 6 2 6 11 0 10 8 17 18 17 12 0
14 2 4 8 -7 5 -10 16 -6 25 3 9 2 17 -4 17 -5 0 -13 -16 -17 -36z"/>
<path d="M1057 3903 c-12 -20 -18 -73 -9 -73 6 0 13 6 15 13 3 7 6 5 6 -5 1
-21 21 -25 21 -5 0 7 -6 22 -14 32 -8 11 -12 25 -9 32 5 14 -3 18 -10 6z"/>
<path d="M1570 3899 c0 -18 39 -71 40 -54 0 6 -9 24 -20 40 -13 20 -20 24 -20
14z"/>
<path d="M1487 3893 c-13 -12 -7 -51 10 -64 15 -13 15 -12 4 10 -7 12 -11 32
-8 42 5 20 4 23 -6 12z"/>
<path d="M1417 3883 c-10 -9 -9 -61 1 -67 4 -2 8 13 7 35 0 21 0 39 -1 39 0 0
-4 -3 -7 -7z"/>
<path d="M1445 3880 c3 -5 8 -10 11 -10 2 0 4 5 4 10 0 6 -5 10 -11 10 -5 0
-7 -4 -4 -10z"/>
<path d="M1140 3861 c0 -24 10 -51 19 -51 4 0 5 16 3 35 -4 37 -22 49 -22 16z"/>
<path d="M1208 3873 c6 -2 12 -20 12 -39 0 -48 16 -43 18 6 2 35 -1 40 -21 39
-12 0 -16 -3 -9 -6z"/>
<path d="M1272 3843 c2 -20 8 -38 13 -40 7 -2 9 12 7 37 -2 22 -8 40 -14 40
-5 0 -8 -17 -6 -37z"/>
<path d="M1357 3844 c15 -20 29 -31 31 -24 4 12 -35 60 -50 60 -5 0 3 -16 19
-36z"/>
<path d="M1520 3851 c0 -6 5 -13 10 -16 6 -3 10 1 10 9 0 9 -4 16 -10 16 -5 0
-10 -4 -10 -9z"/>
<path d="M1450 3831 c0 -12 5 -21 10 -21 6 0 10 6 10 14 0 8 -4 18 -10 21 -5
3 -10 -3 -10 -14z"/>
<path d="M1164 4014 c-4 -10 -9 -22 -11 -26 -2 -5 0 -8 6 -8 11 0 26 39 17 47
-3 3 -9 -3 -12 -13z"/>
<path d="M2780 5590 l0 -690 755 0 755 0 0 168 0 168 103 111 c56 61 107 112
112 112 6 0 74 -124 151 -277 l142 -277 466 -3 466 -2 0 254 0 254 193 5 c201
5 254 14 342 58 94 47 195 189 195 274 0 14 3 25 8 25 4 0 6 -196 4 -435 l-3
-435 216 0 215 0 0 254 0 254 193 5 c127 3 210 10 244 20 179 51 282 171 301
350 29 275 -90 446 -340 487 -35 5 -234 10 -446 10 l-384 0 4 -170 c1 -94 0
-170 -4 -170 -5 0 -8 11 -8 25 0 96 -107 234 -212 273 -104 39 -162 42 -844
42 l-662 0 -48 -53 c-27 -30 -128 -146 -224 -260 l-175 -205 -3 259 -2 259
-215 0 -215 0 0 -520 0 -519 -326 -3 c-179 -2 -328 -1 -330 1 -2 2 -4 238 -4
523 l0 518 -210 0 -210 0 0 -690z m2520 18 c-1 -598 -2 -661 -16 -643 -8 11
-55 85 -103 165 -93 152 -348 570 -371 607 -13 20 -1 34 234 277 137 141 250
256 252 256 2 0 4 -298 4 -662z m680 366 c54 -31 75 -68 75 -129 0 -61 -21
-98 -76 -130 -27 -16 -57 -21 -141 -24 l-108 -3 0 157 0 158 108 -5 c84 -3
117 -9 142 -24z m1172 2 c71 -34 99 -141 55 -206 -39 -59 -78 -74 -199 -79
l-108 -3 0 157 0 157 108 -4 c76 -3 118 -9 144 -22z"/>
<path d="M1128 6052 c-27 -17 -37 -32 -19 -32 4 0 20 9 35 21 18 14 36 20 57
17 16 -3 32 -1 35 4 9 15 -80 6 -108 -10z"/>
<path d="M1300 6036 c0 -8 -3 -22 -6 -30 -4 -12 -2 -15 9 -10 12 4 14 -1 11
-28 -5 -47 -8 -61 -18 -76 -10 -16 1 -29 13 -16 15 15 31 118 20 129 -5 5 -9
17 -9 27 0 10 -4 18 -10 18 -5 0 -10 -6 -10 -14z"/>
<path d="M1156 6015 c-4 -11 -13 -14 -28 -10 -22 6 -22 6 -4 -9 16 -13 23 -14
39 -3 20 13 24 30 9 35 -5 1 -12 -4 -16 -13z"/>
<path d="M1064 6005 c8 -8 17 -15 20 -15 3 0 6 7 6 15 0 9 -9 15 -21 15 -18 0
-19 -2 -5 -15z"/>
<path d="M1244 5946 c0 -41 2 -43 15 -17 7 13 6 23 -2 35 -11 16 -13 13 -13
-18z"/>
<path d="M1367 5945 c-4 -8 2 -24 12 -36 l18 -23 -5 32 c-5 36 -17 49 -25 27z"/>
<path d="M2770 4530 l0 -160 101 0 c64 0 98 4 94 10 -3 6 -44 10 -91 10 l-84
0 0 150 c0 93 -4 150 -10 150 -6 0 -10 -60 -10 -160z"/>
<path d="M3660 4688 c0 -2 -2 -74 -3 -161 -1 -120 1 -157 11 -157 6 0 12 5 12
11 0 8 4 8 13 1 29 -24 93 -17 112 12 22 33 22 129 1 162 -22 32 -63 41 -98
21 l-28 -16 0 64 c0 37 -4 65 -10 65 -5 0 -10 -1 -10 -2z m120 -138 c15 -15
20 -33 20 -73 0 -66 -16 -90 -60 -90 -44 0 -60 24 -60 90 0 58 23 93 60 93 11
0 29 -9 40 -20z"/>
<path d="M4740 4530 c0 -100 4 -160 10 -160 6 0 10 18 10 41 0 32 8 50 36 85
20 24 40 44 43 44 4 0 29 -38 55 -85 26 -47 54 -85 61 -85 9 0 -6 35 -40 94
-30 52 -55 98 -55 102 0 4 20 31 45 60 48 56 52 64 33 64 -7 -1 -47 -43 -88
-95 -41 -52 -78 -95 -82 -95 -5 0 -8 43 -8 95 0 57 -4 95 -10 95 -6 0 -10 -60
-10 -160z"/>
<path d="M5260 4530 c0 -90 4 -160 9 -160 5 0 11 5 13 11 2 7 13 5 31 -4 57
-30 106 3 114 76 12 104 -56 170 -125 121 l-22 -15 0 65 c0 37 -4 66 -10 66
-6 0 -10 -60 -10 -160z m126 19 c14 -15 19 -36 19 -76 0 -45 -4 -58 -24 -74
-29 -24 -43 -24 -72 0 -19 15 -23 28 -23 74 0 86 54 127 100 76z"/>
<path d="M5500 4675 c0 -8 7 -15 15 -15 8 0 15 7 15 15 0 8 -7 15 -15 15 -8 0
-15 -7 -15 -15z"/>
<path d="M5617 4684 c-8 -8 1 -24 14 -24 5 0 9 7 9 15 0 15 -12 20 -23 9z"/>
<path d="M5967 4684 c-4 -4 -7 -76 -7 -161 0 -129 2 -153 15 -153 10 0 15 10
15 33 1 30 29 77 47 77 4 0 23 -25 41 -55 18 -30 40 -55 48 -55 10 0 0 22 -31
67 l-45 67 37 38 c20 21 33 41 29 45 -5 5 -34 -20 -65 -54 -31 -35 -59 -63
-61 -63 -3 0 -3 45 -2 101 4 93 -4 130 -21 113z"/>
<path d="M3057 4579 c-24 -14 -47 -62 -47 -99 0 -46 25 -97 52 -105 48 -16
127 2 113 25 -4 6 -18 4 -35 -5 -39 -20 -77 -10 -95 26 -24 46 -20 49 60 49
l75 0 0 31 c0 60 -74 107 -123 78z m83 -31 c11 -12 20 -30 20 -40 0 -16 -9
-18 -66 -18 -63 0 -65 1 -59 23 8 28 42 57 66 57 10 0 27 -10 39 -22z"/>
<path d="M3260 4483 c0 -69 4 -113 10 -113 6 0 10 33 10 80 0 88 17 120 63
120 43 0 57 -28 57 -118 0 -66 3 -82 15 -82 12 0 15 16 15 84 0 76 2 86 22
100 30 21 54 20 78 -4 17 -17 20 -33 20 -100 0 -47 4 -80 10 -80 6 0 10 35 10
84 0 104 -16 131 -78 131 -23 0 -48 -7 -59 -17 -17 -15 -20 -15 -42 3 -27 22
-60 24 -86 5 -17 -12 -21 -12 -32 3 -10 13 -12 -4 -13 -96z"/>
<path d="M3930 4583 c-25 -9 -40 -25 -34 -34 3 -5 15 -2 27 6 43 30 107 6 107
-41 0 -22 -4 -24 -45 -24 -84 0 -126 -42 -92 -94 18 -27 57 -37 99 -25 16 4
36 5 44 2 11 -4 14 11 14 85 0 86 -1 92 -26 111 -26 20 -62 26 -94 14z m100
-142 c0 -49 -60 -76 -105 -47 -51 33 -20 76 56 76 47 0 49 -1 49 -29z"/>
<path d="M4156 4567 c-13 -13 -26 -40 -30 -60 -8 -42 7 -109 29 -127 19 -16
81 -16 100 0 13 11 15 7 15 -24 0 -65 -46 -90 -114 -61 -14 6 -18 5 -14 -6 12
-36 91 -36 128 1 18 18 20 34 20 155 0 83 -4 135 -10 135 -5 0 -10 -5 -10 -11
0 -5 -10 -3 -22 5 -32 22 -65 20 -92 -7z m94 -17 c15 -15 20 -33 20 -72 0 -59
-5 -70 -37 -87 -26 -13 -67 -1 -77 24 -3 9 -6 39 -6 66 0 54 24 89 60 89 11 0
29 -9 40 -20z"/>
<path d="M4410 4583 c-25 -9 -40 -25 -34 -34 3 -5 15 -2 27 6 46 32 107 7 107
-43 0 -20 -5 -22 -49 -22 -34 0 -56 -6 -75 -21 -31 -24 -33 -48 -8 -79 15 -18
27 -22 63 -21 24 1 54 2 67 3 21 0 22 4 22 88 0 84 -1 90 -26 109 -26 20 -62
26 -94 14z m100 -142 c0 -36 -23 -55 -67 -55 -32 0 -63 22 -63 45 0 22 35 39
81 39 47 0 49 -1 49 -29z"/>
<path d="M5060 4577 c-47 -24 -62 -131 -26 -180 26 -34 121 -39 142 -6 11 18
-2 20 -32 4 -16 -8 -34 -15 -40 -15 -23 0 -64 42 -64 66 0 23 3 24 69 24 39 0
72 4 75 8 8 13 -12 78 -28 91 -22 18 -69 22 -96 8z m80 -27 c11 -11 20 -29 20
-40 0 -18 -7 -20 -60 -20 -53 0 -60 2 -60 20 0 11 9 29 20 40 11 11 29 20 40
20 11 0 29 -9 40 -20z"/>
<path d="M5508 4480 c-2 -83 0 -110 10 -110 9 0 12 28 12 104 0 142 -18 147
-22 6z"/>
<path d="M5618 4443 c-3 -143 -4 -148 -25 -158 -13 -5 -23 -13 -23 -17 0 -13
24 -9 48 8 21 14 22 22 22 159 0 195 -19 202 -22 8z"/>
<path d="M5740 4570 l-25 -22 25 7 c65 17 78 17 99 -4 12 -12 21 -30 21 -41 0
-17 -7 -20 -53 -20 -64 0 -97 -20 -97 -58 0 -15 4 -33 8 -40 13 -20 68 -32
103 -22 16 5 37 6 45 3 23 -9 20 157 -4 187 -26 32 -91 38 -122 10z m116 -132
c-7 -34 -17 -44 -54 -54 -27 -8 -72 20 -72 44 0 30 22 42 78 42 l55 0 -7 -32z"/>
<path d="M6230 4583 c-25 -9 -40 -25 -34 -34 3 -5 15 -2 27 6 46 32 107 7 107
-43 0 -20 -5 -22 -50 -22 -41 0 -56 -5 -75 -25 -30 -29 -31 -45 -7 -75 15 -18
27 -22 63 -21 24 1 54 2 67 3 21 0 22 4 22 87 0 47 -4 91 -8 97 -18 28 -74 41
-112 27z m100 -143 c0 -39 -37 -64 -80 -55 -40 9 -54 35 -34 63 12 18 25 22
65 22 48 0 49 -1 49 -30z"/>
<path d="M6447 4583 c-11 -11 -8 -213 3 -213 6 0 10 33 10 80 0 88 17 120 63
120 43 0 57 -28 57 -118 0 -66 3 -82 15 -82 12 0 15 16 15 81 0 76 -2 82 -29
110 -31 31 -59 36 -93 18 -15 -8 -22 -8 -27 0 -4 6 -10 8 -14 4z"/>
<path d="M1755 4420 c3 -5 11 -10 16 -10 6 0 7 5 4 10 -3 6 -11 10 -16 10 -6
0 -7 -4 -4 -10z"/>
<path d="M6577 3988 c-36 -106 -63 -195 -61 -197 11 -12 29 29 84 194 64 191
65 195 51 195 -5 0 -38 -87 -74 -192z"/>
<path d="M9080 4136 c0 -9 7 -16 16 -16 9 0 14 5 12 12 -6 18 -28 21 -28 4z"/>
<path d="M2770 3980 c0 -100 4 -160 10 -160 6 0 10 30 10 70 l0 70 60 0 c64 0
113 18 124 45 14 38 6 91 -17 113 -20 19 -35 22 -105 22 l-82 0 0 -160z m172
123 c18 -16 24 -68 10 -89 -14 -22 -52 -34 -106 -34 l-56 0 0 70 0 70 67 0
c48 0 72 -5 85 -17z"/>
<path d="M4150 4078 c0 -48 -3 -59 -12 -50 -7 7 -31 12 -55 12 -34 0 -46 -5
-59 -25 -60 -92 12 -231 95 -184 25 15 29 15 39 0 8 -12 11 25 11 147 1 102
-3 162 -9 162 -6 0 -10 -27 -10 -62z m-13 -89 c23 -44 12 -119 -21 -141 -56
-37 -108 41 -85 126 16 59 79 68 106 15z"/>
<path d="M5110 3980 l0 -160 58 0 c73 0 129 16 142 40 17 32 12 82 -11 106
l-21 23 21 27 c28 35 27 69 -4 99 -22 22 -32 25 -105 25 l-80 0 0 -160z m162
128 c27 -22 30 -53 7 -81 -18 -24 -27 -27 -85 -27 l-64 0 0 60 0 60 63 0 c35
0 70 -6 79 -12z m2 -149 c30 -24 34 -63 9 -91 -13 -14 -31 -18 -85 -18 l-68 0
0 65 0 65 59 0 c44 0 65 -5 85 -21z"/>
<path d="M6820 4015 c0 -122 -1 -127 -26 -152 -25 -25 -33 -26 -91 -8 -32 10
-30 -13 3 -25 41 -16 71 -12 103 15 l30 26 3 134 c2 103 0 135 -9 135 -10 0
-13 -32 -13 -125z"/>
<path d="M7752 3983 c2 -88 7 -156 12 -153 5 3 9 32 10 65 l1 60 65 6 c81 7
97 14 116 51 19 36 11 81 -19 108 -17 17 -35 20 -104 20 l-84 0 3 -157z m170
120 c22 -19 24 -71 4 -99 -12 -16 -27 -19 -83 -19 l-68 0 -3 68 -3 67 67 0
c49 0 73 -5 86 -17z"/>
<path d="M9822 3983 c2 -99 7 -157 13 -156 6 2 11 41 13 87 3 91 12 109 57
109 51 0 65 -27 65 -120 0 -63 3 -84 13 -81 13 5 22 115 13 153 -10 39 -44 65
-86 65 -21 0 -42 -4 -45 -10 -15 -24 -21 -6 -17 50 4 51 2 60 -12 60 -15 0
-16 -17 -14 -157z"/>
<path d="M9450 4075 c0 -27 -4 -35 -17 -35 -17 -1 -17 -1 0 -11 14 -8 17 -24
17 -89 0 -67 3 -83 20 -100 21 -21 50 -27 50 -11 0 5 -9 13 -20 16 -25 8 -32
35 -28 115 3 59 5 65 28 71 l25 6 -25 4 c-20 3 -26 11 -28 37 -4 43 -22 41
-22 -3z"/>
<path d="M3062 4017 c-48 -51 -33 -166 25 -188 33 -12 86 -4 103 16 15 18 1
20 -34 4 -37 -17 -75 -3 -91 34 -7 17 -11 35 -9 39 3 5 39 8 80 8 l76 0 -7 33
c-16 73 -96 104 -143 54z m100 -14 c10 -9 18 -24 18 -35 0 -16 -8 -18 -65 -18
l-65 0 11 27 c6 15 16 31 22 35 20 13 60 9 79 -9z"/>
<path d="M3280 3936 c0 -59 4 -108 10 -111 6 -4 10 23 10 73 0 92 17 125 65
125 48 0 67 -34 64 -117 -1 -39 2 -73 7 -76 5 -3 10 31 12 76 2 69 0 84 -18
107 -16 21 -30 27 -59 27 -20 0 -43 -6 -50 -12 -11 -10 -14 -10 -18 0 -14 37
-23 0 -23 -92z"/>
<path d="M3543 4013 c-12 -19 -18 -46 -18 -86 1 -52 4 -62 28 -83 33 -28 63
-30 96 -7 l24 16 -6 -42 c-3 -23 -11 -48 -17 -56 -14 -17 -63 -20 -90 -5 -12
6 -21 7 -25 1 -8 -14 28 -31 64 -31 77 0 91 30 91 195 0 69 -4 125 -9 125 -5
0 -11 -6 -14 -12 -4 -10 -7 -10 -18 0 -7 6 -30 12 -51 12 -30 0 -41 -6 -55
-27z m114 -24 c23 -44 12 -119 -21 -141 -19 -13 -52 -9 -69 10 -20 22 -30 79
-19 117 16 57 83 65 109 14z"/>
<path d="M3780 4025 c-17 -20 -5 -32 14 -15 17 14 84 16 96 4 5 -5 11 -21 15
-35 6 -26 5 -27 -49 -31 -82 -7 -115 -45 -86 -98 13 -24 73 -36 105 -22 16 7
26 7 33 0 18 -18 24 14 20 103 -3 66 -7 83 -23 95 -26 19 -109 18 -125 -1z
m127 -111 c9 -24 -14 -63 -42 -70 -63 -16 -110 32 -65 68 28 23 98 25 107 2z"/>
<path d="M4267 4029 c-9 -6 -15 -15 -11 -20 4 -6 11 -6 20 2 22 18 86 14 101
-7 27 -37 17 -51 -42 -56 -80 -7 -113 -45 -85 -98 13 -25 74 -36 108 -20 19 8
28 8 30 1 2 -6 8 -11 13 -11 5 0 9 41 9 90 0 77 -3 93 -20 110 -22 22 -92 27
-123 9z m123 -124 c0 -53 -77 -87 -114 -49 -36 35 1 74 71 74 39 0 43 -2 43
-25z"/>
<path d="M4500 4025 c-19 -23 -7 -27 28 -9 42 21 85 2 90 -39 3 -25 1 -27 -32
-27 -40 0 -87 -16 -98 -33 -15 -24 -8 -66 14 -81 26 -18 70 -21 98 -6 13 7 21
7 25 0 15 -24 25 6 25 76 0 72 -10 111 -34 126 -21 14 -103 9 -116 -7z m122
-130 c-4 -35 -26 -55 -60 -55 -37 0 -62 18 -62 45 0 32 25 45 80 42 44 -2 45
-3 42 -32z"/>
<path d="M4732 3933 c4 -129 22 -142 26 -19 3 92 12 109 59 109 46 0 63 -34
63 -124 0 -46 4 -79 10 -79 14 0 13 156 -1 183 -7 12 -17 25 -23 29 -17 12
-81 9 -93 -3 -8 -8 -13 -8 -17 0 -20 31 -26 3 -24 -96z"/>
<path d="M5410 4025 c-19 -23 -7 -27 28 -9 42 21 85 2 90 -39 3 -25 1 -27 -33
-27 -19 0 -51 -7 -70 -14 -31 -13 -35 -20 -35 -50 0 -25 6 -39 22 -50 25 -18
75 -21 98 -6 9 5 19 5 27 -2 15 -12 15 -16 13 92 -2 104 -12 120 -80 120 -30
0 -52 -6 -60 -15z m122 -130 c-4 -35 -26 -55 -60 -55 -37 0 -62 18 -62 45 0
32 25 45 80 42 44 -2 45 -3 42 -32z"/>
<path d="M5640 3936 c0 -126 17 -150 21 -31 5 105 22 127 89 113 8 -2 17 2 20
7 8 15 -69 18 -87 3 -13 -10 -17 -10 -20 0 -3 6 -9 12 -14 12 -5 0 -9 -47 -9
-104z"/>
<path d="M5833 4033 c-15 -5 -18 -33 -4 -33 5 0 11 5 13 11 5 15 75 14 93 -1
8 -7 15 -23 15 -35 0 -20 -6 -23 -57 -28 -59 -6 -76 -17 -88 -54 -14 -48 64
-90 116 -62 15 7 24 7 35 -2 12 -10 14 2 14 83 0 113 -10 128 -81 127 -24 0
-50 -3 -56 -6z m117 -132 c0 -35 -31 -61 -70 -61 -32 0 -50 17 -50 47 0 29 25
42 78 43 40 0 42 -1 42 -29z"/>
<path d="M6060 3929 c0 -71 4 -108 10 -104 6 3 10 41 10 84 0 63 4 81 18 94
22 20 75 22 90 4 6 -7 12 -51 14 -97 2 -47 7 -83 12 -80 16 9 6 173 -11 192
-19 21 -92 25 -111 6 -9 -9 -12 -9 -12 0 0 7 -4 12 -10 12 -6 0 -10 -44 -10
-111z"/>
<path d="M6321 4014 c-25 -32 -28 -111 -6 -154 17 -33 70 -49 103 -31 12 6 23
11 25 11 10 0 -12 -83 -24 -91 -19 -12 -76 -11 -84 1 -4 6 -11 7 -17 4 -19
-12 23 -34 62 -34 26 0 43 7 61 26 23 24 24 34 27 160 3 128 -1 147 -25 123
-8 -8 -13 -8 -17 0 -4 6 -25 11 -46 11 -30 0 -43 -6 -59 -26z m107 -12 c18
-24 15 -122 -5 -144 -16 -18 -49 -23 -69 -10 -32 21 -45 103 -23 143 20 38 70
43 97 11z"/>
<path d="M6940 4025 c-19 -23 -7 -27 28 -9 42 21 85 2 90 -39 3 -25 1 -27 -33
-27 -74 0 -112 -28 -106 -80 5 -39 82 -65 121 -40 9 5 19 5 27 -2 10 -8 13 8
13 84 0 79 -3 98 -18 111 -24 22 -105 23 -122 2z m120 -124 c0 -36 -23 -61
-56 -61 -39 0 -64 18 -64 45 0 31 24 44 78 45 40 0 42 -1 42 -29z"/>
<path d="M7177 4022 c-18 -19 -21 -40 -11 -66 6 -14 26 -22 107 -40 20 -5 27
-12 27 -31 0 -43 -48 -54 -130 -30 -23 7 -24 7 -9 -10 22 -22 96 -30 129 -13
20 11 25 21 25 53 0 43 -1 44 -90 62 -34 7 -40 12 -40 33 0 35 41 54 84 39 34
-12 55 -4 31 11 -27 17 -105 12 -123 -8z"/>
<path d="M7400 4025 c-19 -23 -7 -27 28 -9 42 21 85 2 90 -39 3 -25 1 -27 -33
-27 -19 0 -51 -7 -70 -14 -31 -13 -35 -20 -35 -50 0 -25 6 -39 22 -50 25 -18
75 -21 98 -6 9 5 19 5 27 -2 10 -8 13 8 13 84 0 79 -3 98 -18 111 -24 22 -105
23 -122 2z m120 -124 c0 -39 -24 -61 -64 -61 -38 0 -56 15 -56 47 0 29 25 42
78 43 40 0 42 -1 42 -29z"/>
<path d="M8041 4015 c-11 -14 -22 -39 -26 -55 -7 -34 9 -103 29 -119 26 -22
84 -25 112 -6 33 21 24 31 -15 15 -44 -18 -80 -5 -96 33 -7 17 -11 35 -9 39 3
5 39 8 80 8 79 0 84 3 65 53 -15 40 -40 57 -81 57 -29 0 -43 -6 -59 -25z m118
-32 c6 -13 11 -26 11 -28 0 -3 -29 -5 -65 -5 -57 0 -65 2 -65 18 0 20 24 46
50 54 23 7 57 -11 69 -39z"/>
<path d="M8262 3933 c3 -125 18 -141 21 -23 2 88 16 113 61 113 52 0 66 -27
66 -120 0 -54 4 -82 10 -78 6 3 10 41 10 84 0 87 15 114 66 114 42 0 54 -27
54 -114 0 -43 5 -81 10 -84 18 -11 13 167 -6 193 -19 27 -88 31 -116 5 -17
-15 -19 -15 -36 0 -22 20 -82 22 -101 5 -11 -10 -14 -10 -18 0 -3 6 -9 12 -14
12 -6 0 -9 -44 -7 -107z"/>
<path d="M8675 4020 c-12 -14 -20 -41 -23 -80 -4 -55 -2 -61 26 -90 18 -17 41
-30 56 -30 34 0 76 20 76 37 0 12 -4 11 -22 -1 -12 -9 -33 -16 -46 -16 -28 0
-72 42 -72 70 0 18 6 20 76 20 l77 0 -6 38 c-4 20 -16 45 -28 55 -30 24 -91
22 -114 -3z m110 -23 c28 -40 20 -47 -50 -47 -67 0 -74 5 -54 41 21 41 78 44
104 6z"/>
<path d="M8900 3929 c0 -71 4 -108 10 -104 6 3 10 42 10 85 0 72 2 80 26 99
20 16 31 18 51 10 28 -10 39 -7 28 10 -9 15 -78 14 -93 -1 -9 -9 -12 -9 -12 0
0 7 -4 12 -10 12 -6 0 -10 -44 -10 -111z"/>
<path d="M9080 3936 c0 -59 4 -108 10 -111 6 -4 10 33 10 104 0 67 -4 111 -10
111 -6 0 -10 -41 -10 -104z"/>
<path d="M9192 3933 c3 -125 18 -141 21 -23 2 89 15 113 63 113 47 0 64 -33
64 -125 0 -50 4 -77 10 -73 6 3 10 40 10 81 0 72 -10 111 -34 126 -17 12 -81
9 -93 -3 -8 -8 -13 -8 -17 0 -20 31 -26 3 -24 -96z"/>
<path d="M9590 4025 c-17 -20 -5 -32 14 -15 9 6 32 12 53 12 39 0 63 -21 63
-54 0 -14 -8 -18 -39 -18 -45 0 -92 -15 -103 -33 -13 -20 -9 -64 6 -76 22 -19
81 -24 107 -11 17 10 24 10 27 1 2 -6 8 -9 13 -5 5 3 9 43 9 90 0 71 -3 87
-20 104 -25 25 -111 28 -130 5z m128 -122 c7 -48 -69 -82 -113 -50 -13 10 -16
21 -11 40 7 29 24 36 81 34 33 -2 41 -6 43 -24z"/>
</g>
</svg>
