<?xml version="1.0" standalone="no"?>
<!DOCTYPE svg PUBLIC "-//W3C//DTD SVG 20010904//EN"
 "http://www.w3.org/TR/2001/REC-SVG-20010904/DTD/svg10.dtd">
<svg version="1.0" xmlns="http://www.w3.org/2000/svg"
 width="1200.000000pt" height="1141.000000pt" viewBox="0 0 1200.000000 1141.000000"
 preserveAspectRatio="xMidYMid meet">

<g transform="translate(0.000000,1141.000000) scale(0.100000,-0.100000)"
fill="#627492" stroke="none">
<path d="M3126 7828 c-40 -64 -556 -952 -556 -958 0 -4 127 -225 283 -491
l283 -484 565 -3 565 -2 21 22 c11 13 142 234 292 491 l272 468 -285 487 -285
487 -570 3 -570 2 -15 -22z"/>
<path d="M8735 6819 c-285 -24 -500 -132 -595 -298 -19 -33 -37 -61 -40 -61
-3 0 -13 20 -24 45 -21 53 -115 152 -177 188 -24 14 -80 38 -124 54 l-80 28
-597 3 -598 3 0 -726 0 -725 -455 0 -455 0 0 730 0 730 -295 0 -295 0 0 -970
0 -970 1050 0 1050 0 0 355 0 355 193 0 c212 0 324 10 437 41 194 52 308 162
390 373 l11 29 18 -29 c24 -40 90 -97 169 -149 112 -72 219 -110 482 -174 91
-23 192 -54 226 -71 149 -73 185 -204 84 -301 -51 -49 -125 -73 -220 -73 -161
1 -276 95 -316 257 l-17 67 -36 0 c-20 0 -130 -7 -246 -15 -115 -8 -227 -15
-249 -15 l-39 0 7 -52 c10 -72 60 -221 98 -286 40 -71 131 -167 196 -209 116
-75 254 -110 475 -122 398 -23 649 51 820 240 l62 68 5 -142 5 -142 818 -3
817 -2 0 220 0 220 -520 0 -520 0 0 190 0 190 468 2 467 3 0 195 0 195 -467 3
-468 2 0 150 0 150 505 0 505 0 0 205 0 205 -805 0 -805 0 0 -187 -1 -188 -38
81 c-87 183 -256 287 -521 323 -119 16 -247 19 -355 10z m234 -392 c73 -37
117 -89 136 -164 l12 -48 74 4 c41 2 161 8 267 15 l192 11 0 -218 0 -219 -65
60 c-132 124 -302 194 -667 276 -243 54 -304 88 -302 168 2 66 55 120 141 144
67 18 136 9 212 -29z m-1534 -61 c81 -35 124 -102 125 -193 0 -64 -10 -91 -50
-136 -50 -58 -118 -77 -274 -80 l-131 -2 -3 219 -2 218 147 -4 c111 -3 158 -9
188 -22z"/>
<path d="M1018 6328 c-152 -260 -281 -482 -286 -494 -9 -17 -4 -33 31 -90 23
-38 150 -256 283 -484 l241 -415 576 -3 576 -2 14 22 c26 43 380 652 464 798
46 80 83 151 83 159 0 8 -127 232 -282 497 l-282 484 -571 0 -572 0 -275 -472z"/>
<path d="M1300 4650 l0 -60 538 0 537 0 300 -526 300 -526 735 7 c404 4 738
10 741 13 4 4 139 238 300 520 l293 512 3108 0 3108 0 0 55 0 55 -3092 0
c-1701 0 -3115 3 -3143 6 l-50 5 -21 -43 c-11 -24 -143 -256 -292 -517 -150
-260 -272 -477 -272 -482 0 -5 -286 -8 -677 -7 l-677 3 -299 523 -300 522
-568 0 -569 0 0 -60z"/>
<path d="M5160 4285 l0 -115 90 0 c50 0 90 4 90 9 0 5 14 3 30 -6 22 -11 38
-12 58 -5 15 5 43 7 63 5 l35 -5 -4 69 c-3 53 -8 72 -24 86 -34 29 -134 16
-145 -20 -6 -17 45 -29 60 -14 15 15 50 14 45 -1 -3 -7 -26 -18 -53 -24 -27
-7 -52 -20 -57 -28 -7 -12 -25 -16 -63 -16 l-55 0 0 90 0 90 -35 0 -35 0 0
-115z m296 -71 c-6 -17 -46 -16 -48 1 0 6 10 15 23 22 26 13 35 4 25 -23z"/>
<path d="M6600 4285 l0 -115 35 0 c34 0 35 1 35 40 0 35 3 40 24 40 70 0 102
32 94 96 -4 39 -38 54 -120 54 l-68 0 0 -115z m124 56 c11 -18 -6 -41 -30 -41
-19 0 -24 5 -24 25 0 20 5 25 24 25 14 0 27 -4 30 -9z"/>
<path d="M7690 4361 l0 -39 -30 11 c-25 10 -34 8 -57 -9 -22 -16 -29 -31 -31
-63 -6 -74 44 -119 93 -87 14 9 25 12 25 6 0 -5 14 -10 30 -10 l30 0 0 115 0
115 -30 0 c-28 0 -30 -2 -30 -39z m-6 -93 c13 -21 -2 -51 -27 -56 -18 -4 -33
38 -23 64 7 19 35 15 50 -8z"/>
<path d="M8486 4379 c-51 -40 -28 -86 58 -115 34 -12 46 -21 44 -33 -5 -25
-44 -25 -61 -1 -12 18 -21 21 -46 15 -37 -8 -38 -15 -8 -51 20 -23 31 -27 81
-28 55 0 61 2 87 34 18 21 29 28 29 19 0 -50 116 -74 161 -33 l21 19 -28 5
c-16 4 -36 2 -45 -4 -21 -12 -49 -1 -49 19 0 12 13 15 60 15 56 0 60 -2 75
-30 20 -38 80 -57 130 -40 18 6 36 18 39 26 5 13 9 12 24 -6 12 -15 28 -22 48
-22 16 1 52 2 79 2 l51 0 -4 68 c-3 52 -8 71 -24 85 -34 29 -134 16 -145 -20
-6 -17 45 -29 60 -14 15 15 50 14 45 -1 -3 -7 -23 -17 -46 -23 -23 -5 -47 -16
-54 -22 -6 -7 -26 -13 -43 -13 -17 0 -36 -5 -42 -11 -6 -6 -21 -9 -34 -7 -19
2 -25 10 -27 35 -4 39 24 60 53 39 17 -12 65 -10 65 3 -1 24 -46 51 -85 51
-37 0 -82 -26 -90 -51 -7 -21 -7 -21 -19 2 -16 33 -54 51 -99 45 -40 -5 -77
-30 -77 -53 0 -17 -15 -17 -30 2 -7 8 -33 21 -59 29 -27 8 -47 20 -49 30 -4
21 36 22 44 1 8 -19 74 -21 74 -2 -1 53 -111 78 -164 36z m302 -101 c3 -14 -3
-18 -27 -18 -29 0 -41 17 -24 34 13 13 48 1 51 -16z m378 -64 c-6 -17 -46 -16
-48 1 0 6 10 15 23 22 26 13 35 4 25 -23z"/>
<path d="M9690 4285 l0 -115 95 0 c95 0 95 0 95 25 0 24 -3 25 -60 25 -57 0
-60 1 -60 25 0 24 3 25 55 25 48 0 55 2 55 20 0 18 -7 20 -55 20 -48 0 -55 2
-55 20 0 18 7 20 61 20 57 0 60 1 57 23 -3 21 -8 22 -95 25 l-93 3 0 -116z"/>
<path d="M9900 4285 l0 -115 30 0 30 0 0 115 0 115 -30 0 -30 0 0 -115z"/>
<path d="M10170 4285 l0 -115 34 0 c30 0 35 4 38 27 4 37 23 39 38 3 10 -25
18 -30 46 -30 19 0 34 2 34 5 0 3 -12 27 -27 54 -27 48 -28 49 -9 70 22 25 36
27 36 6 0 -8 5 -15 10 -15 6 0 10 -22 10 -50 0 -42 4 -52 25 -66 31 -20 75
-12 75 15 0 10 -9 21 -20 24 -15 4 -20 14 -20 37 0 23 5 33 20 37 11 3 20 13
20 23 0 10 -9 20 -20 23 -14 3 -20 14 -20 31 0 30 0 30 -35 14 -14 -6 -25 -19
-25 -30 0 -15 -8 -18 -47 -18 -34 0 -53 -6 -70 -22 l-23 -21 0 56 0 57 -35 0
-35 0 0 -115z"/>
<path d="M11010 4380 c0 -16 7 -20 30 -20 23 0 30 4 30 20 0 16 -7 20 -30 20
-23 0 -30 -4 -30 -20z"/>
<path d="M11090 4285 l0 -115 30 0 c22 0 30 5 30 18 0 18 18 42 31 42 4 0 12
-13 19 -30 10 -25 18 -30 46 -30 19 0 34 2 34 5 0 3 -13 26 -30 52 l-29 48 26
27 27 28 -36 0 c-22 0 -41 -7 -53 -20 -28 -31 -35 -24 -35 35 0 54 0 55 -30
55 l-30 0 0 -115z"/>
<path d="M5750 4334 c-8 -4 -21 -14 -29 -23 -12 -15 -13 -14 -7 2 5 16 1 18
-26 15 -29 -3 -34 -8 -46 -51 -8 -27 -16 -47 -18 -44 -2 2 -10 24 -17 48 -11
39 -16 44 -45 47 -18 2 -32 1 -32 -3 0 -3 14 -39 31 -80 34 -81 33 -105 -5
-105 -19 0 -23 -4 -19 -20 4 -15 14 -20 39 -20 46 0 66 23 99 114 28 76 29 78
57 72 16 -3 37 -1 47 6 20 12 56 4 47 -11 -3 -5 -23 -12 -43 -16 -58 -11 -73
-22 -73 -56 0 -36 37 -55 79 -41 14 5 43 7 64 4 l37 -4 0 64 c0 83 -12 100
-76 104 -27 2 -56 1 -64 -2z m80 -102 c0 -14 -23 -32 -42 -32 -20 0 -25 26 -5
33 20 8 47 8 47 -1z"/>
<path d="M5991 4331 c-8 -5 -29 -7 -48 -4 l-33 6 0 -82 0 -81 30 0 c28 0 29 1
32 58 3 49 6 57 23 57 17 0 20 -8 23 -57 3 -57 4 -58 32 -58 l30 0 0 68 c0 54
-4 72 -18 85 -20 19 -49 22 -71 8z"/>
<path d="M6131 4327 c-14 -6 -26 -17 -28 -24 -6 -17 45 -29 60 -14 15 15 50
14 45 -1 -3 -7 -23 -18 -46 -23 -23 -6 -49 -18 -58 -27 -36 -36 20 -89 75 -70
14 5 43 7 64 4 l37 -4 0 61 c0 52 -4 66 -25 86 -27 28 -83 33 -124 12z m77
-104 c-4 -22 -48 -31 -48 -10 0 19 10 27 32 27 13 0 18 -6 16 -17z"/>
<path d="M6372 4324 c-12 -8 -22 -10 -22 -5 0 6 -13 11 -30 11 l-30 0 0 -80 0
-80 35 0 35 0 0 55 c0 42 4 57 16 62 23 8 34 -14 34 -69 0 -47 1 -48 30 -48
l30 0 0 69 c0 61 -3 72 -22 85 -12 9 -29 16 -38 16 -9 0 -26 -7 -38 -16z"/>
<path d="M6844 4331 c-55 -24 -69 -92 -30 -137 20 -24 31 -28 75 -28 40 0 56
5 74 23 l22 23 -60 -4 c-50 -2 -60 0 -63 15 -3 15 5 17 57 17 58 0 61 1 61 24
0 54 -77 92 -136 67z m71 -51 c0 -9 -11 -16 -27 -18 -27 -3 -38 14 -21 32 12
12 48 2 48 -14z"/>
<path d="M7072 4324 c-12 -8 -22 -10 -22 -5 0 6 -13 11 -30 11 l-30 0 0 -80 0
-80 35 0 35 0 0 55 c0 42 4 57 16 62 23 8 34 -14 34 -69 0 -47 1 -48 30 -48
l30 0 0 65 c0 52 -4 69 -20 85 -24 24 -48 25 -78 4z"/>
<path d="M7206 4317 c-31 -31 -35 -84 -8 -116 18 -24 44 -29 80 -17 18 6 22 4
22 -14 0 -26 -26 -37 -51 -22 -10 7 -30 12 -43 12 -19 0 -23 -4 -19 -20 8 -31
40 -43 96 -37 69 6 77 20 77 134 l0 94 -37 -1 c-21 -1 -50 2 -65 6 -21 5 -33
0 -52 -19z m89 -62 c0 -23 -5 -31 -21 -33 -24 -3 -38 20 -28 50 4 13 13 18 27
16 17 -2 22 -10 22 -33z"/>
<path d="M7411 4327 c-14 -6 -26 -17 -28 -24 -6 -18 37 -27 63 -13 24 13 59 7
50 -9 -4 -5 -25 -12 -47 -16 -38 -7 -79 -34 -79 -53 0 -22 29 -45 56 -44 16 1
53 2 82 2 l52 0 0 52 c0 29 -3 63 -6 74 -11 40 -92 58 -143 31z m79 -107 c-12
-22 -50 -27 -50 -7 0 20 10 27 37 27 21 0 22 -3 13 -20z"/>
<path d="M7801 4327 c-14 -6 -26 -17 -28 -24 -6 -17 45 -29 60 -14 15 15 50
14 45 -1 -3 -7 -23 -17 -45 -23 -22 -5 -47 -16 -57 -24 -35 -29 -9 -75 42 -73
15 1 51 2 81 2 l53 0 -4 66 c-3 55 -8 70 -27 85 -27 22 -84 25 -120 6z m75
-113 c-6 -17 -46 -16 -48 1 0 6 10 15 23 22 26 13 35 4 25 -23z"/>
<path d="M7994 4331 c-12 -5 -24 -16 -27 -24 -8 -20 37 -31 62 -16 20 13 56 5
47 -10 -3 -5 -23 -12 -43 -16 -58 -11 -73 -22 -73 -56 0 -36 37 -55 79 -41 14
5 43 7 64 4 l37 -4 0 64 c0 38 -6 72 -13 82 -16 21 -99 31 -133 17z m86 -99
c0 -14 -23 -32 -42 -32 -20 0 -25 26 -5 33 20 8 47 8 47 -1z"/>
<path d="M8251 4331 c-7 -5 -31 -6 -52 -4 l-39 6 0 -82 0 -81 30 0 c29 0 30 1
30 48 0 55 11 77 34 69 12 -5 16 -20 16 -62 0 -54 0 -55 30 -55 l30 0 0 69 c0
50 -4 74 -16 85 -17 18 -42 20 -63 7z"/>
<path d="M9336 4333 c-3 -4 -24 -6 -46 -5 l-40 3 0 -81 0 -80 35 0 34 0 3 58
c3 50 6 57 25 60 22 3 37 27 27 43 -6 11 -28 12 -38 2z"/>
<path d="M9411 4327 c-14 -6 -26 -17 -28 -24 -6 -17 45 -29 60 -14 15 15 50
14 45 -1 -3 -7 -23 -18 -46 -23 -23 -6 -49 -18 -58 -27 -36 -36 20 -89 75 -70
14 5 43 7 64 4 l37 -4 0 61 c0 52 -4 66 -25 86 -27 28 -83 33 -124 12z m77
-104 c-4 -22 -48 -31 -48 -10 0 19 10 27 32 27 13 0 18 -6 16 -17z"/>
<path d="M10023 4330 c-55 -23 -68 -105 -22 -146 30 -27 113 -25 142 5 l22 23
-60 -4 c-50 -2 -60 0 -63 15 -3 15 5 17 57 17 58 0 61 1 61 24 0 54 -77 92
-137 66z m72 -50 c0 -9 -11 -16 -27 -18 -27 -3 -38 14 -21 32 12 12 48 2 48
-14z"/>
<path d="M10566 4333 c-4 -4 -23 -6 -42 -4 l-34 3 0 -81 0 -81 30 0 c28 0 30
3 30 34 0 50 16 86 39 86 18 0 35 33 23 44 -8 8 -37 7 -46 -1z"/>
<path d="M10664 4331 c-54 -23 -69 -92 -31 -137 20 -23 32 -27 72 -27 40 0 52
4 72 27 29 34 29 77 1 111 -25 28 -79 40 -114 26z m71 -61 c10 -32 -4 -60 -30
-60 -15 0 -26 7 -30 20 -10 32 4 60 30 60 15 0 26 -7 30 -20z"/>
<path d="M10892 4324 c-12 -8 -22 -10 -22 -5 0 6 -13 11 -30 11 l-30 0 0 -80
0 -80 30 0 c29 0 30 2 30 43 0 47 20 84 38 73 7 -4 12 -31 12 -62 l0 -54 36 0
36 0 -4 71 c-3 55 -8 74 -23 85 -24 18 -45 18 -73 -2z"/>
<path d="M11010 4250 l0 -80 30 0 30 0 0 80 0 80 -30 0 -30 0 0 -80z"/>
</g>
</svg>
