<?xml version="1.0" standalone="no"?>
<!DOCTYPE svg PUBLIC "-//W3C//DTD SVG 20010904//EN"
 "http://www.w3.org/TR/2001/REC-SVG-20010904/DTD/svg10.dtd">
<svg version="1.0" xmlns="http://www.w3.org/2000/svg"
 width="731.000000pt" height="403.000000pt" viewBox="0 0 731.000000 403.000000"
 preserveAspectRatio="xMidYMid meet">

<g transform="translate(0.000000,403.000000) scale(0.100000,-0.100000)"
fill="#627492" stroke="none">
<path d="M5841 4010 c-275 -58 -490 -246 -577 -505 -35 -106 -44 -245 -19
-299 25 -52 68 -79 134 -84 46 -3 62 0 90 20 57 39 73 68 81 154 14 133 56
221 140 297 130 117 306 143 465 68 134 -62 216 -183 240 -352 12 -93 28 -125
76 -161 61 -46 166 -27 217 40 25 33 27 43 26 121 -2 306 -217 582 -529 681
-79 25 -268 36 -344 20z"/>
<path d="M4759 3370 c-46 -13 -78 -41 -99 -84 -20 -42 -20 -53 -20 -1241 0
-1192 0 -1199 21 -1241 12 -26 36 -53 57 -66 l37 -23 1205 -3 1205 -2 45 22
c25 13 55 38 67 57 l23 34 0 1219 c0 1329 3 1250 -56 1297 -41 32 -96 44 -146
30 -38 -9 -106 -73 -586 -552 l-542 -542 -543 542 c-463 463 -548 543 -582
552 -45 12 -50 12 -86 1z"/>
<path d="M4293 3235 c-74 -52 -2 -153 89 -125 61 18 77 72 33 115 -28 29 -88
34 -122 10z"/>
<path d="M2085 3185 l-25 -24 0 -320 c0 -217 4 -328 11 -345 16 -35 61 -52 98
-37 40 17 51 49 51 145 l0 84 118 3 c108 4 123 7 177 34 74 38 119 95 135 170
21 101 -19 212 -96 264 -63 43 -100 50 -277 51 -165 0 -168 0 -192 -25z m343
-129 c47 -24 64 -51 64 -101 1 -51 -22 -91 -63 -112 -14 -7 -63 -13 -116 -13
l-93 0 0 120 0 120 90 0 c58 0 101 -5 118 -14z"/>
<path d="M3470 3182 l-30 -30 0 -316 c0 -213 4 -323 11 -340 20 -42 54 -49
226 -44 133 4 167 9 216 28 274 105 328 475 95 646 -83 61 -142 76 -325 82
l-162 4 -31 -30z m402 -157 c55 -40 89 -100 95 -174 10 -106 -35 -190 -127
-237 -24 -12 -67 -19 -137 -22 l-103 -5 0 238 0 237 114 -4 c109 -3 117 -5
158 -33z"/>
<path d="M2913 3027 c-80 -23 -105 -73 -58 -117 22 -21 28 -22 69 -11 63 16
152 14 186 -4 34 -18 50 -43 50 -81 0 -23 -3 -25 -22 -20 -59 17 -165 18 -220
2 -123 -36 -172 -171 -99 -274 58 -81 219 -95 302 -25 28 24 32 25 40 10 29
-51 92 -64 129 -27 19 19 20 33 20 209 0 187 0 189 -28 242 -22 43 -38 59 -81
81 -48 25 -63 28 -150 27 -53 -1 -115 -6 -138 -12z m220 -318 c40 -11 42 -15
26 -72 -14 -50 -57 -77 -124 -77 -74 0 -97 20 -93 78 3 42 6 49 38 64 40 20
97 23 153 7z"/>
<path d="M4295 3009 l-26 -32 3 -239 3 -240 29 -25 c23 -19 36 -24 60 -19 64
12 66 22 66 293 l0 244 -25 24 c-35 36 -76 33 -110 -6z"/>
<path d="M124 2251 c-23 -10 -52 -34 -65 -52 l-24 -34 0 -470 c0 -417 2 -477
18 -535 60 -222 199 -364 414 -421 110 -30 325 -30 434 -1 115 31 195 75 269
151 75 76 121 157 152 268 21 74 22 103 26 530 4 506 5 497 -66 551 -30 23
-45 27 -98 27 -68 0 -98 -15 -138 -69 -20 -26 -21 -43 -26 -474 -6 -440 -6
-448 -29 -506 -30 -75 -87 -137 -154 -167 -75 -34 -219 -34 -294 0 -67 30
-124 92 -154 167 -23 58 -24 66 -29 499 -5 430 -5 441 -27 475 -43 69 -135 96
-209 61z"/>
<path d="M3300 2238 c-84 -43 -86 -48 -93 -359 -11 -431 -8 -998 4 -1044 33
-119 187 -159 275 -71 45 45 54 89 54 267 l0 157 94 86 94 86 34 -43 c19 -23
119 -153 222 -290 104 -136 204 -260 222 -277 58 -50 143 -50 209 2 49 38 69
120 45 184 -6 14 -113 155 -238 312 -125 158 -235 296 -244 308 -18 22 -16 24
205 228 243 226 272 263 264 335 -11 101 -102 157 -210 128 -18 -5 -147 -124
-360 -333 l-332 -325 -5 278 c-3 185 -9 285 -17 298 -30 51 -102 95 -157 95
-12 0 -42 -10 -66 -22z"/>
<path d="M1600 2228 c-18 -13 -43 -36 -54 -51 -21 -28 -21 -34 -21 -696 l0
-668 27 -35 c69 -90 209 -83 268 14 19 31 20 51 20 431 0 218 3 397 8 397 4 0
72 -102 152 -226 80 -124 160 -239 177 -254 45 -40 94 -48 152 -24 50 21 44
13 271 359 l105 160 5 -410 c5 -410 5 -410 28 -443 79 -110 256 -77 291 56 8
29 11 230 9 670 l-3 628 -27 41 c-37 57 -83 76 -172 71 -53 -2 -79 -9 -101
-25 -19 -13 -105 -143 -232 -350 -111 -180 -208 -336 -215 -346 -11 -15 -38
23 -213 310 -110 180 -211 340 -225 356 -33 41 -78 57 -153 57 -50 0 -71 -5
-97 -22z"/>
<path d="M3012 438 c-18 -18 -16 -332 1 -347 8 -6 17 -8 20 -4 10 9 8 351 -1
357 -5 3 -14 0 -20 -6z"/>
<path d="M1933 424 c-7 -18 11 -39 26 -30 17 11 13 46 -4 46 -9 0 -18 -7 -22
-16z"/>
<path d="M2393 424 c-8 -21 13 -42 28 -27 13 13 5 43 -11 43 -6 0 -13 -7 -17
-16z"/>
<path d="M5657 433 c-4 -3 -7 -35 -7 -70 l0 -64 -26 20 c-18 14 -41 21 -71 21
-38 0 -50 -5 -79 -34 -30 -30 -34 -40 -34 -85 0 -63 20 -105 60 -126 42 -22
85 -19 117 9 27 23 27 23 38 3 23 -46 30 -13 33 158 2 142 0 175 -11 175 -8 0
-17 -3 -20 -7z m-54 -134 c74 -33 62 -156 -17 -182 -90 -30 -156 112 -79 173
29 22 60 25 96 9z"/>
<path d="M6934 425 c-7 -18 3 -35 21 -35 15 0 24 19 18 38 -6 17 -32 15 -39
-3z"/>
<path d="M77 423 c-9 -8 -9 -328 0 -336 16 -16 33 19 33 68 l0 53 76 4 c71 3
78 6 105 36 52 58 34 138 -37 168 -34 14 -165 20 -177 7z m181 -50 c34 -29 37
-66 9 -99 -21 -24 -33 -28 -91 -32 l-66 -4 0 76 0 76 64 0 c46 0 69 -5 84 -17z"/>
<path d="M1555 418 c-3 -7 -4 -83 -3 -168 l3 -155 97 0 c82 0 101 3 125 21 49
36 73 82 73 136 0 66 -24 114 -73 146 -33 22 -53 27 -128 30 -70 4 -90 1 -94
-10z m216 -67 c36 -35 39 -43 39 -93 0 -92 -55 -138 -165 -138 l-55 0 0 135 0
135 71 0 c70 0 72 -1 110 -39z"/>
<path d="M3280 308 c0 -97 4 -130 18 -158 43 -88 190 -93 242 -8 17 29 20 50
20 161 0 106 -2 127 -15 127 -12 0 -15 -18 -15 -102 0 -121 -12 -172 -45 -194
-51 -33 -132 -16 -154 33 -6 13 -11 71 -11 128 0 112 -5 135 -26 135 -11 0
-14 -24 -14 -122z"/>
<path d="M3662 260 c4 -207 21 -231 28 -38 l5 133 58 -83 c31 -45 62 -82 67
-82 5 0 35 37 67 83 l58 82 5 -133 c7 -193 24 -169 28 38 2 147 0 170 -13 170
-8 0 -43 -43 -77 -95 -35 -52 -65 -95 -68 -95 -3 0 -33 43 -68 95 -34 52 -69
95 -77 95 -13 0 -15 -23 -13 -170z"/>
<path d="M4087 423 c-10 -10 -8 -316 2 -332 15 -23 31 -2 31 43 0 36 6 48 39
80 l38 37 68 -86 c64 -80 84 -94 92 -68 2 5 -26 47 -62 91 -36 45 -65 85 -65
89 0 5 27 35 60 68 58 57 73 85 48 85 -7 0 -59 -46 -115 -102 l-103 -103 0
103 c0 78 -3 102 -13 102 -8 0 -17 -3 -20 -7z"/>
<path d="M4442 260 c4 -207 21 -231 28 -38 l5 133 55 -79 c30 -44 60 -81 67
-83 7 -3 36 32 65 76 29 44 56 81 60 81 4 0 9 -59 10 -130 4 -194 22 -166 26
40 2 147 0 170 -13 170 -8 0 -43 -43 -77 -95 -35 -52 -66 -95 -69 -95 -3 0
-33 43 -67 95 -88 137 -93 133 -90 -75z"/>
<path d="M5017 424 c-4 -4 -7 -78 -7 -164 0 -127 3 -160 15 -170 23 -19 26 0
23 175 -3 148 -9 181 -31 159z"/>
<path d="M2537 413 c-4 -3 -7 -21 -7 -40 0 -22 -5 -33 -14 -33 -24 0 -30 -21
-7 -27 19 -5 21 -12 21 -99 0 -81 3 -97 20 -114 21 -21 65 -26 89 -11 17 11 4
34 -16 27 -8 -3 -23 -1 -34 4 -17 9 -19 22 -19 100 l0 90 41 0 c52 0 48 24 -4
28 -31 3 -37 7 -37 27 0 43 -16 66 -33 48z"/>
<path d="M413 330 c-44 -18 -26 -32 32 -25 64 8 105 -10 105 -48 0 -21 -4 -22
-69 -22 -84 0 -111 -18 -111 -75 0 -46 24 -70 80 -77 32 -5 48 -1 70 15 l28
21 5 -21 c3 -11 12 -18 19 -16 10 4 13 31 13 107 0 100 -1 103 -28 127 -30 26
-99 32 -144 14z m137 -149 c0 -16 -7 -37 -16 -45 -36 -37 -107 -32 -126 9 -9
21 -8 28 7 45 14 16 31 20 77 20 58 0 58 0 58 -29z"/>
<path d="M686 317 c-48 -48 -30 -85 56 -117 64 -24 72 -31 63 -60 -9 -28 -49
-35 -98 -16 -52 20 -57 20 -57 2 0 -8 20 -22 45 -31 77 -30 145 -2 145 60 0
39 -9 47 -83 75 -53 20 -58 24 -55 48 3 23 8 27 40 30 20 2 47 -2 59 -8 13 -7
25 -8 30 -3 16 16 -18 36 -71 41 -42 4 -52 1 -74 -21z"/>
<path d="M943 330 c-44 -18 -26 -32 32 -25 64 8 105 -10 105 -48 0 -21 -4 -22
-69 -22 -84 0 -111 -18 -111 -75 0 -51 28 -75 90 -75 32 0 54 6 68 18 19 17
20 17 25 -4 3 -12 12 -19 19 -17 9 3 14 30 16 88 3 90 -8 132 -42 155 -23 16
-98 19 -133 5z m137 -149 c0 -59 -88 -93 -130 -51 -24 24 -25 38 -3 62 12 13
31 18 75 18 58 0 58 0 58 -29z"/>
<path d="M1207 334 c-9 -9 -9 -238 0 -247 3 -4 12 -2 20 4 8 8 13 35 13 79 0
58 4 73 25 98 14 16 36 33 50 36 29 7 34 36 6 36 -11 0 -33 -11 -50 -25 l-30
-26 -3 22 c-3 23 -19 35 -31 23z"/>
<path d="M1942 215 c4 -168 22 -170 26 -2 2 110 0 127 -13 127 -13 0 -15 -17
-13 -125z"/>
<path d="M2084 306 c-29 -29 -34 -41 -34 -81 0 -40 5 -52 34 -81 29 -29 41
-34 79 -34 29 0 53 7 70 20 14 11 28 20 32 20 13 0 -8 -65 -28 -87 -25 -27
-92 -31 -136 -8 -27 13 -41 11 -41 -6 0 -18 62 -39 114 -39 47 0 61 4 88 29
l33 29 3 136 c3 116 1 136 -12 136 -8 0 -18 -9 -21 -20 l-6 -20 -26 20 c-17
13 -41 20 -70 20 -38 0 -50 -5 -79 -34z m152 -20 c62 -52 20 -146 -65 -146
-50 0 -85 36 -85 87 0 73 92 110 150 59z"/>
<path d="M2395 328 c-3 -8 -4 -66 -3 -129 2 -93 6 -114 18 -114 13 0 15 20 15
124 0 91 -3 125 -12 128 -7 3 -15 -2 -18 -9z"/>
<path d="M2742 329 c-25 -9 -25 -37 -1 -30 80 20 139 3 139 -42 0 -21 -4 -22
-71 -22 -62 0 -73 -3 -90 -24 -43 -53 -13 -118 59 -128 34 -5 49 -1 72 15 l29
22 6 -21 c4 -11 12 -18 18 -16 8 2 12 37 12 106 0 100 -1 103 -28 127 -30 26
-99 32 -145 13z m138 -148 c0 -34 -20 -58 -56 -67 -61 -16 -109 27 -79 72 13
21 23 24 75 24 60 0 60 0 60 -29z"/>
<path d="M5152 215 c4 -150 21 -172 28 -36 5 82 8 95 29 112 28 22 70 25 97 5
16 -12 20 -30 24 -113 4 -78 8 -98 20 -98 12 0 15 18 15 103 0 101 -1 104 -28
128 -36 31 -94 32 -131 3 l-26 -20 0 20 c0 12 -6 21 -15 21 -13 0 -15 -18 -13
-125z"/>
<path d="M5819 317 c-22 -15 -39 -38 -49 -65 -13 -37 -13 -47 0 -84 35 -100
161 -118 229 -32 26 33 28 104 5 144 -37 61 -123 79 -185 37z m130 -28 c50
-47 50 -111 -1 -154 -34 -29 -57 -31 -98 -10 -37 19 -50 43 -50 90 0 77 95
124 149 74z"/>
<path d="M6097 333 c-4 -3 -7 -57 -7 -118 0 -82 4 -116 13 -124 22 -18 27 -2
27 86 0 76 2 86 25 108 30 31 75 33 101 4 15 -16 20 -41 24 -112 3 -60 9 -92
18 -95 9 -3 12 22 12 103 0 99 -2 107 -25 130 -31 32 -91 34 -128 5 -25 -20
-25 -20 -30 0 -5 20 -18 26 -30 13z"/>
<path d="M6425 307 c-111 -111 20 -288 153 -207 53 32 36 56 -18 25 -41 -23
-78 -18 -111 14 -52 53 -42 61 71 61 112 0 116 3 86 74 -19 45 -52 66 -104 66
-36 0 -50 -6 -77 -33z m134 -23 c37 -47 29 -54 -59 -54 -90 0 -100 11 -55 55
34 35 86 34 114 -1z"/>
<path d="M6702 317 c-29 -30 -28 -71 0 -91 12 -9 43 -23 69 -31 54 -18 67 -39
43 -66 -21 -23 -59 -24 -98 -4 -35 19 -46 19 -46 1 0 -15 68 -46 101 -46 34 0
78 29 85 56 11 44 -9 69 -74 92 -63 23 -81 44 -60 69 12 15 71 14 111 -2 12
-5 17 -2 17 9 0 40 -114 49 -148 13z"/>
<path d="M6942 215 c4 -168 22 -170 26 -2 2 110 0 127 -13 127 -13 0 -15 -17
-13 -125z"/>
<path d="M7088 330 c-34 -21 -18 -30 41 -24 51 6 61 4 80 -15 11 -11 21 -29
21 -38 0 -16 -10 -18 -71 -18 -65 0 -73 -2 -95 -28 -13 -15 -24 -37 -24 -47 0
-10 11 -32 24 -47 21 -24 32 -28 74 -28 34 0 56 6 70 18 19 17 20 17 25 -4 3
-11 10 -18 16 -14 7 4 11 46 11 104 0 127 -11 143 -96 148 -32 2 -67 -1 -76
-7z m140 -151 c6 -54 -87 -91 -130 -52 -22 20 -23 46 -2 68 12 12 31 15 73 13
52 -3 56 -5 59 -29z"/>
</g>
</svg>
