<?xml version="1.0" standalone="no"?>
<!DOCTYPE svg PUBLIC "-//W3C//DTD SVG 20010904//EN"
 "http://www.w3.org/TR/2001/REC-SVG-20010904/DTD/svg10.dtd">
<svg version="1.0" xmlns="http://www.w3.org/2000/svg"
 width="1256.000000pt" height="533.000000pt" viewBox="0 0 1256.000000 533.000000"
 preserveAspectRatio="xMidYMid meet">

<g transform="translate(0.000000,533.000000) scale(0.100000,-0.100000)"
fill="#627492" stroke="none">
<path d="M925 3651 c-385 -107 -628 -318 -734 -636 -152 -458 54 -926 509
-1155 96 -48 269 -113 410 -153 172 -49 380 -101 385 -95 5 4 -153 759 -160
766 -2 2 -55 21 -118 42 -286 96 -390 191 -391 355 0 122 59 202 199 270 39
18 89 38 113 45 29 7 42 16 42 28 -1 9 -27 139 -58 287 -51 239 -60 270 -77
272 -11 1 -65 -11 -120 -26z"/>
<path d="M340 1289 c-151 -15 -287 -28 -301 -28 -30 -1 -30 12 2 -164 35 -189
112 -384 212 -532 56 -84 187 -216 271 -274 276 -190 671 -274 1136 -241 91 6
165 12 166 13 3 4 -122 586 -127 591 -2 2 -51 -1 -109 -6 -182 -17 -358 11
-498 78 -88 42 -201 145 -251 229 -46 76 -97 204 -117 293 l-16 72 -47 -1
c-25 -1 -170 -14 -321 -30z"/>
</g>
</svg>
