<svg version="1.1" id="Layer_1" xmlns="http://www.w3.org/2000/svg" xmlns:xlink="http://www.w3.org/1999/xlink" x="0px" y="0px"
	 width="100%" viewBox="0 0 686 261" enable-background="new 0 0 686 261" xml:space="preserve">
<path fill="#000000" opacity="1.000000" stroke="none"
	d="
M438.000000,262.000000
	C293.500000,262.000000 149.499985,261.983002 5.500072,262.094055
	C1.750594,262.096954 0.899262,261.249847 0.904791,257.499847
	C1.028880,173.333374 1.026670,89.166626 0.904055,5.000140
	C0.899066,1.575837 1.576487,0.904108 5.000043,0.905689
	C231.000000,1.010008 457.000000,1.010008 682.999939,0.905689
	C686.423523,0.904108 687.100830,1.575839 687.095886,5.000139
	C686.973328,89.333298 686.973389,173.666718 687.095947,257.999847
	C687.100891,261.424164 686.424194,262.101227 682.999878,262.096008
	C601.500061,261.972473 520.000000,262.000000 438.000000,262.000000
z"/>
<path fill="#FEFFFE" opacity="1.000000" stroke="none"
	d="
M176.143311,247.376770
	C166.655167,250.900681 157.238281,250.768921 147.852310,248.931458
	C141.505051,247.688858 136.836624,243.276840 132.505798,238.878876
	C123.085037,229.312042 112.865402,220.511368 104.456726,209.963043
	C104.353378,209.833420 104.166267,209.742691 104.118858,209.600311
	C99.018425,194.283051 83.042336,189.592453 73.541336,178.429047
	C63.641075,166.796539 52.161976,156.493256 41.200092,145.786026
	C36.945736,141.630508 35.551548,136.639771 34.944965,130.989304
	C33.210583,114.833038 40.818024,101.369949 47.732288,87.969177
	C56.288826,71.385452 64.393898,54.578537 73.002884,38.025723
	C75.966003,32.328411 78.935188,26.632473 82.018906,21.000134
	C85.434471,14.761667 91.611343,12.764276 97.915833,12.121525
	C111.273392,10.759706 123.453995,12.766073 132.894699,24.156784
	C140.808975,33.705780 150.877609,41.329651 158.640472,51.112240
	C161.210785,54.351276 170.399994,59.893917 174.495712,61.240269
	C178.310333,62.494217 181.854980,64.186180 184.838669,67.225418
	C198.491013,81.131912 212.305145,94.880501 226.138306,108.608063
	C231.373260,113.803047 233.532410,120.160278 234.009583,127.312019
	C234.754944,138.483078 232.157410,148.519394 226.478531,158.428452
	C218.250381,172.785706 211.748428,188.120575 203.926651,202.725937
	C197.183395,215.317444 191.601334,228.509491 184.075256,240.693756
	C182.182022,243.758820 179.860657,246.016296 176.143311,247.376770
z"/>
<path fill="#373435" opacity="1.000000" stroke="none"
	d="
M368.000000,107.998360
	C367.999573,112.660995 367.733124,116.845566 368.069153,120.981194
	C368.449829,125.666206 365.417633,125.075920 362.620239,124.981995
	C360.016266,124.894554 356.882874,126.093094 356.926208,121.225189
	C357.105560,101.078064 357.037933,80.928261 356.958313,60.779846
	C356.947540,58.054951 357.716614,56.641716 360.619080,56.996506
	C360.947113,57.036606 361.284546,57.004444 361.617523,56.999058
	C373.058594,56.814079 373.038177,56.822094 377.327667,67.593887
	C382.584503,80.794853 387.879944,93.980446 393.356781,107.667717
	C399.663849,92.126839 405.946899,77.122040 411.776611,61.943134
	C413.223877,58.174862 415.002441,56.846352 418.963348,56.914387
	C429.995117,57.103886 429.997894,56.944195 429.997864,67.850052
	C429.997803,85.334488 429.813354,102.822105 430.115540,120.301315
	C430.200623,125.224281 427.744568,125.216049 424.298492,125.026276
	C421.127380,124.851654 417.744537,126.047737 417.878235,120.402893
	C418.236115,105.291443 418.000244,90.165932 417.296387,74.843697
	C412.529419,86.736214 407.765656,98.630028 402.993286,110.520378
	C401.698608,113.745979 400.132599,116.887512 399.138031,120.201744
	C398.146912,123.504448 396.642120,125.156258 392.865479,125.124504
	C389.285004,125.094406 388.080566,123.376930 386.917633,120.431969
	C381.038971,105.545319 374.947815,90.742599 368.000000,76.024010
	C368.000000,86.515564 368.000000,97.007126 368.000000,107.998360
z"/>
<path fill="#373435" opacity="1.000000" stroke="none"
	d="
M490.998169,80.671844
	C489.020538,94.185196 479.569916,100.205978 466.258728,100.945305
	C457.012787,101.458832 457.000092,101.228401 456.999908,110.640213
	C456.999847,114.139977 456.773529,117.657906 457.053497,121.135094
	C457.441650,125.956390 454.135193,124.957001 451.460419,124.984810
	C448.723816,125.013252 445.860748,125.811218 445.911224,121.059715
	C446.123688,101.063332 445.989197,81.063370 446.021973,61.064785
	C446.024750,59.362991 445.414551,57.044292 448.339203,57.051971
	C456.663330,57.073830 465.119781,56.271503 473.278656,57.467754
	C484.141083,59.060394 491.856628,65.106522 490.998169,80.671844
z"/>
<path fill="#373435" opacity="1.000000" stroke="none"
	d="
M288.694031,94.328270
	C282.032135,90.486649 275.658051,86.947739 273.804596,78.901085
	C271.805206,70.220757 275.923096,61.660995 284.360016,58.398930
	C292.961365,55.073311 301.863373,55.214508 310.781952,57.109200
	C313.014587,57.583511 314.193665,58.825760 314.034424,61.311775
	C313.867249,63.921768 313.997070,66.550789 313.997070,69.651772
	C308.630981,67.335945 303.693115,65.528000 298.236603,65.955856
	C296.403595,66.099586 294.646088,66.255844 292.887787,66.877060
	C289.660858,68.017151 286.482605,69.257652 286.058716,73.196098
	C285.589172,77.558144 287.998383,80.374207 291.672241,82.315193
	C297.387024,85.334480 303.254211,88.015144 308.625580,91.731918
	C315.629700,96.578491 318.204529,103.291992 316.812500,111.154335
	C315.525635,118.422600 310.358612,122.970161 303.217133,124.773666
	C294.351440,127.012604 285.475708,126.560837 276.772614,123.792038
	C273.650909,122.798882 271.153046,113.118698 273.330719,110.841316
	C274.595367,109.518761 275.361298,111.088905 276.243835,111.598923
	C283.267456,115.657883 290.579376,117.361488 298.640167,115.033943
	C302.418793,113.942863 304.383362,111.119377 304.659760,107.898308
	C304.922150,104.840706 303.149384,101.756363 300.149445,100.112312
	C296.508484,98.116974 292.733429,96.366341 288.694031,94.328270
z"/>
<path fill="#373435" opacity="1.000000" stroke="none"
	d="
M520.775696,125.999619
	C515.004883,126.051285 509.831818,125.965546 504.847168,123.374489
	C493.605225,117.530907 490.442780,97.358627 498.412842,85.181694
	C503.200195,77.867378 512.918823,73.505783 521.705444,75.089424
	C530.400269,76.656509 536.387939,83.189507 538.022522,92.892456
	C539.893616,103.999413 539.893677,103.999344 528.864502,103.999420
	C522.533936,103.999466 516.197632,104.161293 509.874847,103.939621
	C506.054138,103.805656 505.775574,105.160110 506.908142,108.353050
	C509.319336,115.150459 516.964966,118.727570 524.927246,116.533829
	C528.251404,115.617950 531.356323,114.159348 534.473999,112.487373
	C535.670959,122.868462 536.922363,123.262184 520.775696,125.999619
z"/>
<path fill="#373435" opacity="1.000000" stroke="none"
	d="
M581.839478,125.000336
	C572.042114,125.000229 562.723389,124.854729 553.413330,125.073868
	C549.863708,125.157433 548.908081,123.952034 548.932495,120.513390
	C549.072083,100.885780 549.057251,81.256348 548.943420,61.628407
	C548.924622,58.383091 549.529907,56.801647 553.270874,56.924694
	C562.496277,57.228138 560.931580,56.270866 560.976624,64.642799
	C561.058899,79.946014 561.094910,95.251007 560.929016,110.552856
	C560.891235,114.042503 561.938843,115.225838 565.445496,115.068001
	C571.089783,114.813957 576.759583,115.153900 582.407349,114.941971
	C585.706299,114.818192 587.259033,115.593933 587.093872,119.300369
	C586.942383,122.701378 587.243713,125.856590 581.839478,125.000336
z"/>
<path fill="#373435" opacity="1.000000" stroke="none"
	d="
M364.798096,190.863937
	C359.982147,185.265381 356.260406,186.054382 353.950043,192.637115
	C352.180206,197.679810 353.407990,202.867050 352.982544,207.968140
	C352.762604,210.605469 354.433777,214.061768 349.140594,214.133240
	C343.568176,214.208481 345.081177,210.563431 345.039795,207.743607
	C344.929901,200.251404 344.961884,192.756088 345.037384,185.263031
	C345.052551,183.759506 344.266815,181.321396 346.642670,181.240082
	C348.739777,181.168304 351.820984,179.257950 352.945587,182.952393
	C353.875214,186.006256 354.812805,183.414932 355.532471,182.952667
	C362.006317,178.794281 365.509308,179.022598 371.204803,184.558746
	C372.824493,186.133118 373.498016,185.041641 374.353760,184.117294
	C378.206512,179.955612 382.724915,179.214783 387.814697,181.426270
	C392.896362,183.634262 393.792053,188.216171 393.953644,192.972504
	C394.145752,198.627975 393.876160,204.298691 394.048584,209.955444
	C394.138062,212.891296 393.312469,214.068405 390.149658,214.100098
	C386.810516,214.133530 385.960388,212.955124 385.913086,209.755722
	C385.822662,203.643448 386.781311,197.487732 385.122772,191.398895
	C384.543091,189.270859 383.838501,187.641281 381.626587,187.098724
	C379.196686,186.502670 377.479401,187.718094 376.026855,189.505096
	C374.608612,191.249863 373.934113,193.188553 373.976562,195.477692
	C374.066101,200.305420 373.814301,205.146317 374.074036,209.961777
	C374.262512,213.456284 372.712799,214.072647 369.649750,214.087540
	C366.427612,214.103195 364.760468,213.518372 364.922302,209.747421
	C365.186157,203.599152 364.947723,197.429337 364.798096,190.863937
z"/>
<path fill="#373435" opacity="1.000000" stroke="none"
	d="
M288.002411,200.998383
	C286.239532,198.630646 284.616821,196.591690 281.998749,193.302002
	C281.998749,199.780228 281.826324,204.824600 282.059509,209.850143
	C282.214294,213.186462 280.983398,214.104385 277.748932,214.101425
	C274.452393,214.098404 273.935516,212.651733 273.957428,209.851074
	C274.056580,197.188477 274.088013,184.523636 273.940033,171.862000
	C273.903015,168.696716 275.107483,167.938980 278.036957,167.918121
	C281.066345,167.896561 282.181274,168.857193 282.053741,171.939896
	C281.847443,176.925461 281.998230,181.925781 281.998230,188.036133
	C286.905396,181.802673 291.608673,176.546249 295.447083,170.720001
	C298.398712,166.239792 302.265656,168.264969 305.743866,168.298996
	C307.564270,168.316803 306.333496,169.984650 305.644653,170.827271
	C301.039917,176.459885 296.511353,182.159485 291.745972,187.653320
	C290.253418,189.374069 290.031769,190.426483 291.527649,192.248550
	C296.455811,198.251389 301.211792,204.395966 306.007904,210.506500
	C306.671509,211.351974 308.212952,211.988144 307.410004,213.343994
	C306.723907,214.502441 305.263153,213.752609 304.184235,214.012955
	C296.983246,215.750473 295.069366,209.350311 291.421844,205.685333
	C290.151581,204.408981 289.225769,202.789780 288.002411,200.998383
z"/>
<path fill="#373435" opacity="1.000000" stroke="none"
	d="
M341.000000,71.007050
	C340.999969,87.660675 340.774139,103.821098 341.132294,119.968567
	C341.245361,125.065964 338.846558,125.187553 335.131195,125.053520
	C331.761688,124.931992 328.782806,125.658424 328.873047,120.234436
	C329.197113,100.753395 329.197449,81.260406 328.872559,61.779396
	C328.782379,56.371826 331.733124,57.055912 335.117249,56.946766
	C338.810455,56.827656 341.789917,56.890495 341.069397,62.024498
	C340.679718,64.801163 341.000000,67.677475 341.000000,71.007050
z"/>
<path fill="#373435" opacity="1.000000" stroke="none"
	d="
M481.000000,173.093246
	C481.000000,180.400940 481.000000,187.219940 481.000000,194.917358
	C483.630585,192.008484 485.891602,189.840393 487.562744,187.067917
	C490.677490,181.900558 494.985870,179.380310 501.615265,181.602158
	C499.115875,186.173752 495.450745,189.784790 491.952698,193.322723
	C488.956146,196.353455 489.116791,198.046356 492.132996,200.783600
	C495.550476,203.884949 498.422394,207.588211 501.521851,211.038483
	C502.058777,211.636185 502.892548,212.218781 502.545624,213.126602
	C502.082672,214.338135 500.851990,213.783005 499.948242,214.009155
	C492.465332,215.881790 489.895172,209.747116 486.338867,205.474121
	C484.873108,203.712952 483.620941,201.876740 480.995667,200.115173
	C480.995667,204.077332 480.839111,207.340637 481.040283,210.581726
	C481.236328,213.739304 479.507843,213.971909 477.027008,214.060715
	C474.075134,214.166382 472.908600,213.279907 472.942535,210.129913
	C473.086060,196.813522 473.053192,183.494354 472.962067,170.177032
	C472.943176,167.414124 473.389771,165.887909 476.717865,165.901596
	C479.892944,165.914673 481.466736,166.735992 481.015472,170.109619
	C480.906097,170.927307 480.999725,171.772171 481.000000,173.093246
z"/>
<path fill="#373435" opacity="1.000000" stroke="none"
	d="
M338.998138,194.278351
	C339.643524,198.735855 338.220673,200.392395 333.898163,200.088058
	C328.611481,199.715820 323.278656,199.999390 317.940552,199.999390
	C318.704010,207.136200 324.365540,210.020477 331.971375,207.535019
	C333.517609,207.029755 335.628815,204.334152 336.782104,207.557877
	C337.763672,210.301559 336.898865,212.609634 333.351410,213.413940
	C328.827026,214.439743 324.579987,215.514084 319.755280,214.188187
	C310.948792,211.768005 308.351044,203.339462 309.046112,195.226044
	C309.715637,187.410843 316.279022,180.292557 323.767578,180.169052
	C330.650055,180.055573 337.606476,182.810883 338.998138,194.278351
z"/>
<path fill="#373435" opacity="1.000000" stroke="none"
	d="
M426.996887,207.552155
	C427.565735,212.045807 425.189606,213.309799 421.634003,214.105850
	C412.697083,216.106766 404.773132,213.565048 401.740021,207.366867
	C397.713928,199.139679 399.622192,188.898819 406.226959,183.287537
	C410.538788,179.624298 418.481018,179.145309 423.467499,182.247772
	C427.659485,184.855911 431.023682,193.279724 429.993652,197.981491
	C429.525970,200.116425 428.124146,199.980743 426.643158,199.987030
	C421.657043,200.008224 416.657593,200.222733 411.688782,199.929855
	C407.685059,199.693848 408.135345,201.692886 409.164825,204.082382
	C410.845856,207.984116 416.628876,209.041885 422.992615,207.326202
	C423.954956,207.066727 425.680298,203.457932 426.996887,207.552155
z"/>
<path fill="#373435" opacity="1.000000" stroke="none"
	d="
M540.017761,207.604248
	C537.970520,199.164612 539.196045,191.001236 539.176086,182.902634
	C539.168640,179.897888 542.236450,181.283020 543.992859,181.042007
	C546.027588,180.762802 547.046143,181.697449 547.013672,183.880402
	C546.941895,188.704712 546.964417,193.531281 547.019409,198.356125
	C547.036255,199.834366 547.024414,201.395554 547.477783,202.769608
	C548.534912,205.973389 550.379822,208.534225 554.298340,207.936249
	C558.170776,207.345306 559.987183,204.850632 559.995544,200.992706
	C560.006348,196.000885 560.136169,191.003967 559.951599,186.018997
	C559.830078,182.736588 560.171692,180.783920 564.376526,180.854248
	C568.180847,180.917877 569.206604,182.090286 569.087708,185.754379
	C568.834351,193.566696 569.052002,201.393372 568.974792,209.213150
	C568.959595,210.755768 569.824707,213.010452 567.844421,213.639160
	C565.534912,214.372391 562.131226,215.074738 560.750671,213.339935
	C559.004089,211.145111 558.599487,212.306412 557.168579,213.178040
	C550.876160,217.010941 543.508850,214.706314 540.017761,207.604248
z"/>
<path fill="#373435" opacity="1.000000" stroke="none"
	d="
M509.817444,183.686646
	C515.365112,179.361313 521.146973,179.084137 526.824097,182.030823
	C532.518127,184.986282 533.280090,190.839752 533.987976,196.497437
	C534.301331,199.001770 533.287842,200.110779 530.621399,200.037125
	C525.466797,199.894745 520.304138,200.068817 515.147217,199.978760
	C511.578033,199.916443 511.694794,201.578049 513.013794,204.007553
	C515.077026,207.807968 520.552612,209.240677 525.915100,207.568039
	C527.479675,207.080017 529.556152,204.317978 530.774048,207.492584
	C531.969116,210.607758 530.382202,212.865707 527.089478,213.886826
	C518.384338,216.586487 509.722443,214.309265 506.135468,208.260742
	C502.826324,202.680649 502.468079,188.539185 509.817444,183.686646
z"/>
<path fill="#373435" opacity="1.000000" stroke="none"
	d="
M452.675110,187.088867
	C446.237732,187.812271 444.075745,190.108078 444.011047,195.967865
	C443.957825,200.787018 443.864410,205.612274 444.046692,210.425064
	C444.158661,213.381653 442.871796,214.071579 440.191589,214.063416
	C437.457672,214.055084 435.863281,213.659866 435.938812,210.309677
	C436.129852,201.837906 435.992279,193.358932 436.009125,184.882874
	C436.012665,183.093552 435.646851,180.876175 438.496735,181.060120
	C440.852356,181.212173 444.369781,179.520523 444.115479,184.832245
	C448.247253,181.364807 452.111847,179.052750 457.386688,180.891556
	C462.502441,182.674927 464.895355,186.066711 464.975067,191.242432
	C465.072327,197.556458 464.853424,203.877838 465.059235,210.186661
	C465.163940,213.396240 463.804230,214.043686 460.932770,214.080887
	C457.882324,214.120392 456.828766,213.097275 456.946991,210.049057
	C457.146515,204.904678 456.966339,199.746613 457.012238,194.594894
	C457.040985,191.369446 456.061615,188.741013 452.675110,187.088867
z"/>
<path fill="#CAC45A" opacity="1.000000" stroke="none"
	d="
M190.107208,174.782745
	C188.254501,179.203125 186.220901,183.310959 183.978546,187.708313
	C181.804306,189.535385 180.264450,188.322632 178.964157,187.045273
	C167.482544,175.766022 156.068573,164.418015 144.834778,152.891144
	C143.505905,151.527618 142.743469,149.883835 143.764343,147.585709
	C148.492401,144.792343 153.597000,145.048630 158.819366,144.172379
	C166.306580,150.653900 172.740814,157.762375 179.607147,164.434937
	C183.048019,167.778702 186.367203,171.247635 190.107208,174.782745
z"/>
<path fill="#D7C457" opacity="1.000000" stroke="none"
	d="
M143.652710,147.678619
	C143.795975,149.805557 144.598511,151.130814 145.854263,152.380875
	C157.151810,163.627335 168.414719,174.908600 179.682953,186.184464
	C180.635300,187.137482 181.586105,188.062515 183.423370,187.992630
	C182.049667,191.533417 180.329529,195.069000 178.341553,198.815765
	C175.630188,200.486069 174.349457,198.440674 173.052063,197.148331
	C159.527359,183.676102 145.933731,170.272186 132.402618,156.319702
	C133.424240,153.552399 134.624069,151.093689 136.008606,148.341675
	C138.424713,146.381607 140.805099,146.259811 143.652710,147.678619
z"/>
<path fill="#E2C451" opacity="1.000000" stroke="none"
	d="
M132.028687,156.308044
	C134.492508,156.182739 135.537949,158.081863 136.905823,159.442535
	C149.008743,171.481766 161.057205,183.575760 173.151703,195.623505
	C174.418045,196.884918 175.431946,198.522461 177.723602,198.987823
	C176.563904,202.215790 175.054108,205.404633 173.279205,208.809784
	C170.726105,208.525116 169.502563,206.616745 167.995300,205.132751
	C154.648315,191.991959 141.652512,178.497375 127.945854,165.235687
	C129.126465,162.152832 130.479721,159.378906 132.028687,156.308044
z"/>
<path fill="#EBC349" opacity="1.000000" stroke="none"
	d="
M127.526276,165.151382
	C129.436096,164.927139 130.494293,165.983017 131.562897,167.057648
	C145.278229,180.850388 159.000366,194.636353 172.867447,208.725052
	C171.966843,211.241638 170.919571,213.457214 169.636292,215.899048
	C167.560471,217.264618 166.150970,216.228500 164.974518,215.041290
	C151.283401,201.225189 137.034973,187.959167 123.831161,173.197464
	C124.894608,170.365555 126.086975,167.870773 127.526276,165.151382
z"/>
<path fill="#BBC459" opacity="1.000000" stroke="none"
	d="
M190.529785,174.863281
	C188.871307,175.056519 187.822693,174.332932 186.855515,173.362015
	C178.237305,164.710495 169.597321,156.080658 160.991531,147.416824
	C160.554352,146.976700 160.371948,146.283524 160.036499,145.364960
	C160.360535,144.315384 160.951508,143.847336 161.949738,143.276901
	C166.106537,141.930115 169.739899,140.083908 174.206482,139.950256
	C176.657578,140.386444 178.046249,141.841614 179.425781,143.256622
	C185.295700,149.277557 191.527771,154.941376 197.049805,161.571167
	C194.898483,166.159744 192.834976,170.395493 190.529785,174.863281
z"/>
<path fill="#13BC75" opacity="1.000000" stroke="none"
	d="
M114.806900,170.683014
	C110.396507,175.617035 107.074883,176.095062 102.763802,171.858826
	C88.192856,157.540833 73.811493,143.029877 58.833900,128.069550
	C62.164639,128.070786 64.865692,128.718582 67.612282,127.085159
	C69.619370,126.957695 70.940674,127.704140 71.901215,128.837891
	C74.800697,132.260178 78.401894,134.733719 82.481003,137.172546
	C83.545235,139.305328 84.902557,140.759155 86.327377,142.173538
	C95.781219,151.558090 105.106606,161.071625 114.806900,170.683014
z"/>
<path fill="#FBC237" opacity="1.000000" stroke="none"
	d="
M165.277054,223.996033
	C160.299622,229.173660 158.657944,229.200348 153.741318,224.304504
	C143.712616,214.318222 133.731064,204.284576 123.708382,194.292221
	C119.874405,190.469818 118.201042,186.069244 119.984604,180.357727
	C122.106148,178.680542 123.307289,180.230789 124.402512,181.313354
	C137.591187,194.349823 150.703461,207.463318 163.758408,220.633942
	C164.593872,221.476807 165.162247,222.470123 165.277054,223.996033
z"/>
<path fill="#CFDA8A" opacity="1.000000" stroke="none"
	d="
M150.292084,121.293854
	C151.623596,117.875679 153.166656,114.740967 154.896698,111.310349
	C156.146317,110.079628 157.325180,110.359032 158.348007,110.928146
	C169.537704,117.154312 180.728485,123.383362 191.110718,131.509094
	C191.407623,133.404846 190.204346,133.985794 188.871536,134.895081
	C184.518448,136.763992 180.961365,139.509949 176.237381,140.327179
	C173.329620,136.413818 169.548080,134.049011 165.747803,131.713318
	C160.545441,128.515884 155.402725,125.230194 150.292084,121.293854
z"/>
<path fill="#F3C23F" opacity="1.000000" stroke="none"
	d="
M165.437805,224.098862
	C161.477249,219.171692 156.537628,215.176559 152.130508,210.683014
	C143.170303,201.547134 134.071960,192.546432 124.995911,183.524872
	C123.721359,182.257996 122.702354,180.635849 120.489502,180.048767
	C121.183624,177.783249 122.210007,175.556793 123.469315,173.095337
	C129.327271,177.002533 133.747955,182.407013 138.698883,187.250839
	C147.329987,195.695282 155.791672,204.312683 164.352570,212.829254
	C165.618134,214.088287 166.656952,215.708527 169.022675,216.071442
	C168.166245,218.702011 166.932205,221.278717 165.437805,224.098862
z"/>
<path fill="#D1DF95" opacity="1.000000" stroke="none"
	d="
M191.345535,132.133942
	C179.325104,124.942299 168.144684,117.020233 155.433868,111.050018
	C156.490158,108.127815 157.896622,105.241180 159.555634,102.127907
	C161.502106,100.747437 163.058380,101.607521 164.440872,102.435081
	C175.928787,109.311661 187.255249,116.449951 198.534790,123.662407
	C199.093369,124.019569 199.510223,124.551445 200.086700,125.407440
	C200.528854,128.247070 198.383881,128.939377 196.622528,130.343658
	C194.794250,131.178040 193.341354,132.004822 191.345535,132.133942
z"/>
<path fill="#D6E3A1" opacity="1.000000" stroke="none"
	d="
M200.477631,126.153000
	C186.892868,118.103287 174.348740,109.037544 160.183533,101.961975
	C161.015778,99.402489 162.223328,96.903709 163.694031,94.192230
	C166.217926,92.550140 167.685760,94.413277 169.258041,95.382698
	C175.718323,99.365875 182.005478,103.624481 188.809113,107.753952
	C194.013458,112.742676 198.894104,117.556305 203.887985,122.684967
	C204.341095,125.439117 202.605286,125.861816 200.477631,126.153000
z"/>
<path fill="#D1D580" opacity="1.000000" stroke="none"
	d="
M149.881378,121.294388
	C159.194473,125.427887 167.441589,131.205307 175.481033,137.294739
	C175.889542,137.604156 175.836105,138.523453 176.007019,139.521118
	C175.975861,140.281509 175.780075,140.564819 175.148056,140.833740
	C170.562546,140.782516 166.947342,143.466583 162.399323,143.997025
	C156.915070,143.371994 154.251099,138.985474 150.431747,136.396973
	C148.554581,135.124756 146.895889,133.517349 144.561646,132.284515
	C146.112228,128.538589 147.897217,125.058487 149.881378,121.294388
z"/>
<path fill="#ACC451" opacity="1.000000" stroke="none"
	d="
M175.205475,141.098755
	C175.117828,140.688919 175.342224,140.424332 175.791443,140.021576
	C179.800400,138.030487 183.584534,136.177551 187.698364,134.216599
	C193.365692,138.619934 197.617844,144.281281 203.495758,148.730255
	C201.655197,153.154633 199.570938,157.327164 197.224335,161.711853
	C189.813843,155.030670 182.665680,148.137329 175.205475,141.098755
z"/>
<path fill="#84C5C8" opacity="1.000000" stroke="none"
	d="
M85.188919,70.253418
	C85.945862,67.866653 86.935738,65.747887 88.115051,63.332035
	C90.498474,61.193802 92.271133,62.588684 94.088455,63.770817
	C103.765694,70.065666 113.004173,77.008430 122.767487,83.178017
	C124.304710,84.149414 125.783180,85.304153 125.263153,87.817398
	C122.766724,89.974747 120.593765,92.002777 117.328514,92.858536
	C106.793205,84.931450 96.591454,77.042274 85.188919,70.253418
z"/>
<path fill="#8EC8CF" opacity="1.000000" stroke="none"
	d="
M125.428879,88.112305
	C124.981194,86.255417 123.836685,85.086349 122.354263,84.197540
	C111.968262,77.970497 102.300385,70.682755 92.320152,63.857128
	C91.270485,63.139252 90.198441,62.988369 88.662552,63.026138
	C89.178749,60.448288 90.480072,58.096600 92.434799,55.728256
	C96.833450,56.554214 99.786888,59.678577 103.202919,61.923634
	C111.930244,67.659325 120.630852,73.438240 129.377106,79.148270
	C131.243073,80.366486 133.601883,81.392365 133.199707,84.602554
	C130.652924,86.108742 128.566208,87.867203 125.428879,88.112305
z"/>
<path fill="#79C2BF" opacity="1.000000" stroke="none"
	d="
M84.698730,70.195786
	C88.230247,69.228577 90.152985,71.696831 92.376068,73.241692
	C99.557541,78.232224 106.657677,83.340652 113.749016,88.459267
	C115.074890,89.416298 116.410843,90.465706 116.943581,92.508835
	C114.195076,94.408760 111.410973,95.974594 108.299591,97.618103
	C100.449074,91.177620 92.544670,85.142700 84.551666,79.220009
	C83.503159,78.443077 82.170494,77.973106 81.825386,76.254791
	C82.789284,74.087357 83.615379,72.246750 84.698730,70.195786
z"/>
<path fill="#AED5DC" opacity="1.000000" stroke="none"
	d="
M97.019241,47.213062
	C97.589882,44.457829 98.150101,41.884865 100.545509,39.888329
	C110.943336,45.592087 120.455940,52.476448 130.773880,58.766708
	C134.964584,62.953663 140.687347,65.574966 141.004547,72.615921
	C138.250107,74.907555 136.237976,72.895821 134.263809,71.599571
	C123.473808,64.514793 112.545372,57.637924 101.950668,50.259167
	C100.444550,49.210220 98.726967,48.567204 97.019241,47.213062
z"/>
<path fill="#66C984" opacity="1.000000" stroke="none"
	d="
M89.970932,116.289154
	C92.358681,114.632004 94.814911,113.319115 97.624222,111.948517
	C107.331871,121.173187 117.735733,129.264282 127.600716,137.967194
	C128.462997,138.727905 129.471161,139.328003 130.113068,140.746735
	C129.040665,143.629974 127.851173,146.179184 126.393219,148.958710
	C125.649475,149.094772 125.216583,148.906250 124.580444,148.356781
	C118.518036,140.990692 110.711617,136.076584 104.152939,129.792679
	C99.506996,125.341362 93.886551,121.936745 89.970932,116.289154
z"/>
<path fill="#A2D0D8" opacity="1.000000" stroke="none"
	d="
M96.561066,47.125565
	C99.251801,46.910370 101.099785,48.155315 103.079742,49.491734
	C114.309906,57.071800 125.636375,64.509766 136.972824,71.930771
	C137.895599,72.534851 139.138809,72.649445 140.604584,72.997887
	C141.217209,75.337830 140.453796,77.445183 139.237457,79.748047
	C137.090134,80.785217 135.839142,79.497704 134.478348,78.626305
	C121.089386,70.052551 107.749527,61.403503 94.304092,52.273983
	C94.812889,50.451477 95.567688,48.894608 96.561066,47.125565
z"/>
<path fill="#56C682" opacity="1.000000" stroke="none"
	d="
M89.564873,115.993988
	C100.459045,124.987915 111.036034,134.007355 121.546928,143.103180
	C122.892464,144.267578 124.466644,145.374878 124.966164,147.650192
	C121.909103,150.403702 118.736214,148.602615 115.219559,148.060089
	C106.267075,139.365768 96.574684,132.040833 87.666397,123.832542
	C86.329514,122.600716 84.937416,121.376663 84.034874,119.335793
	C85.717804,118.001038 87.472542,117.022057 89.564873,115.993988
z"/>
<path fill="#76CC86" opacity="1.000000" stroke="none"
	d="
M130.484711,140.876648
	C118.901993,133.356201 109.640854,123.134476 98.709686,114.923927
	C98.193130,114.535942 98.222397,113.421257 97.987381,112.267899
	C99.743889,110.913101 101.510468,109.935394 103.619202,108.891830
	C112.448082,115.955292 120.955048,123.061012 129.382111,130.260345
	C130.861755,131.524414 132.660156,132.576950 133.274353,134.915985
	C132.355301,137.061813 131.547272,138.867172 130.484711,140.876648
z"/>
<path fill="#98CCD4" opacity="1.000000" stroke="none"
	d="
M93.884201,52.280930
	C96.693428,51.643719 98.325081,53.593681 100.205818,54.811596
	C112.949471,63.064026 125.637779,71.401924 138.654053,79.848099
	C138.486481,83.020798 135.103928,82.795105 133.312286,84.812988
	C131.719803,80.256042 127.167610,79.275856 123.878380,77.053482
	C113.600716,70.109383 102.972397,63.684502 92.880470,55.825367
	C93.022118,54.508442 93.366203,53.530975 93.884201,52.280930
z"/>
<path fill="#19BB72" opacity="1.000000" stroke="none"
	d="
M115.252129,170.805054
	C113.708138,171.010910 112.816719,170.320099 111.978035,169.479385
	C102.308060,159.785995 92.625389,150.105225 82.973618,140.393753
	C82.537865,139.955322 82.364334,139.256287 82.036606,138.333160
	C85.220703,136.359268 87.605171,138.958755 90.718330,139.744690
	C92.645393,140.486786 94.164925,141.233017 95.905731,142.327637
	C102.932999,150.252762 110.443924,157.205048 117.882767,164.700165
	C117.209145,166.879303 116.371696,168.747955 115.252129,170.805054
z"/>
<path fill="#6EC1B5" opacity="1.000000" stroke="none"
	d="
M81.706985,76.143219
	C89.938240,81.934494 97.891777,87.970100 105.912872,93.914536
	C107.044968,94.753540 108.001205,95.491707 107.970520,97.350266
	C105.523598,98.982231 103.074890,100.268669 100.298065,101.628090
	C94.107788,96.472015 87.872238,91.704369 81.707436,86.846817
	C80.468575,85.870651 78.917145,85.023506 78.735199,82.829453
	C79.086723,80.179321 80.335335,78.297577 81.706985,76.143219
z"/>
<path fill="#85CE88" opacity="1.000000" stroke="none"
	d="
M133.417496,135.026855
	C124.094093,127.620712 115.024536,119.985336 105.956154,112.348579
	C105.059608,111.593582 104.222740,110.794174 104.000793,109.187416
	C105.726540,107.869110 107.491707,106.912239 109.597427,105.891823
	C118.744301,112.292595 126.939018,119.513931 135.389282,126.418655
	C136.032303,126.944061 136.361023,127.750557 136.294495,128.962967
	C135.344421,131.136063 134.508057,132.966660 133.417496,135.026855
z"/>
<path fill="#92D18A" opacity="1.000000" stroke="none"
	d="
M136.439148,129.076111
	C132.411880,124.120834 126.633492,121.250923 122.028702,117.026512
	C118.138054,113.457260 113.532356,110.686768 110.079620,106.147850
	C111.667381,104.880234 113.396782,103.932190 115.458237,102.925499
	C117.081757,102.354332 118.062088,103.073204 118.878006,103.842270
	C125.467354,110.053284 132.976074,115.173279 139.755249,121.667557
	C139.388885,124.529419 137.970383,126.653908 136.439148,129.076111
z"/>
<path fill="#D5D177" opacity="1.000000" stroke="none"
	d="
M144.116608,132.313446
	C146.000168,131.941727 147.486618,132.122635 148.898285,133.346420
	C152.988098,136.891968 157.224640,140.268265 161.706177,143.858826
	C161.538635,144.326553 161.068512,144.646454 160.300232,144.994049
	C154.913971,145.905823 149.825851,146.789902 144.369781,147.834320
	C141.684174,148.003021 139.366531,148.011398 136.621094,148.034058
	C138.764206,142.901627 141.335083,137.754898 144.116608,132.313446
z"/>
<path fill="#46C37F" opacity="1.000000" stroke="none"
	d="
M83.622879,119.019028
	C92.832512,126.677246 101.725067,134.348175 110.546745,142.099777
	C111.884636,143.275375 113.460579,144.374023 113.973709,146.640915
	C113.642479,147.386719 113.192650,147.650986 112.268127,147.818634
	C108.556290,147.366211 105.202568,147.011230 101.885361,145.153503
	C97.202789,137.847473 90.121979,133.531982 84.241684,127.992531
	C82.317886,126.180252 80.094200,124.687492 78.586349,122.037888
	C80.101723,120.809387 81.692207,119.933716 83.622879,119.019028
z"/>
<path fill="#2BBD74" opacity="1.000000" stroke="none"
	d="
M101.676979,143.746948
	C104.755302,146.072281 108.310257,145.399948 111.642242,146.858688
	C115.368935,150.018204 118.370308,153.410538 121.907242,156.714584
	C120.912941,159.550385 119.758652,162.084717 118.325478,164.814850
	C116.155937,165.047913 115.111031,163.674484 114.012222,162.490326
	C108.119186,156.139557 101.203598,150.764984 96.028389,143.351334
	C97.909874,141.732010 99.640610,142.531143 101.676979,143.746948
z"/>
<path fill="#64C0AB" opacity="1.000000" stroke="none"
	d="
M78.542313,82.719498
	C83.263298,87.443970 89.087219,90.733459 94.099998,95.013924
	C96.244141,96.844826 98.524216,98.497116 99.926636,101.379997
	C97.891312,102.784653 95.812660,103.868233 93.384499,104.985138
	C90.187614,105.256554 89.382713,102.509804 87.682556,101.166321
	C83.280876,97.688026 78.782310,94.310257 74.779099,90.186150
	C75.608810,87.344864 76.795174,85.081192 78.542313,82.719498
z"/>
<path fill="#BCDBE0" opacity="1.000000" stroke="none"
	d="
M130.925995,58.657555
	C130.262222,58.883427 129.257996,59.097000 128.652115,58.701035
	C119.426430,52.671848 109.601547,47.536034 100.982956,40.010082
	C100.839706,37.366783 101.416481,35.411819 103.899826,34.599693
	C106.188972,33.851074 107.694649,35.235611 109.087769,36.621864
	C116.342720,43.841087 123.548164,51.110069 130.925995,58.657555
z"/>
<path fill="#9ED48C" opacity="1.000000" stroke="none"
	d="
M140.171631,121.778748
	C132.550720,118.090973 127.001472,111.843689 120.441765,106.902054
	C118.992317,105.810135 117.759338,104.430847 116.108490,103.025375
	C117.558418,101.901382 119.326553,100.935905 121.428749,99.908997
	C122.235031,99.630211 122.787384,99.543266 123.173721,99.849190
	C129.385223,104.767891 135.905563,109.305214 141.675781,114.768661
	C142.163925,115.230858 142.328888,115.906639 142.284088,116.934196
	C141.592575,118.715141 141.009293,120.142754 140.171631,121.778748
z"/>
<path fill="#A0C247" opacity="1.000000" stroke="none"
	d="
M203.880188,148.656525
	C201.178040,149.341248 199.861359,147.453308 198.449097,145.911499
	C195.024063,142.172241 190.773636,139.199249 188.058365,134.441589
	C188.910370,133.578415 189.792679,133.048248 190.844925,132.262375
	C192.416290,131.371307 193.345657,129.784363 195.488098,129.932251
	C200.870728,132.081207 203.461075,136.965454 207.561890,140.673111
	C206.494339,143.430084 205.257645,145.880524 203.880188,148.656525
z"/>
<path fill="#AAD78F" opacity="1.000000" stroke="none"
	d="
M142.442795,117.068588
	C140.395676,113.669601 136.736282,111.975456 133.820465,109.666840
	C129.933380,106.589203 126.052399,103.528358 122.084381,100.008255
	C123.948769,98.604179 126.134735,97.360794 128.666779,96.078308
	C135.034012,99.965538 140.738251,104.293808 145.963501,109.677399
	C145.410095,112.526581 144.120560,114.717751 142.442795,117.068588
z"/>
<path fill="#B7DB94" opacity="1.000000" stroke="none"
	d="
M146.311371,109.805008
	C140.280731,105.790985 134.298904,101.832283 129.160309,96.336769
	C131.106094,94.105560 133.804031,93.289780 136.651367,92.055893
	C142.131714,93.958504 145.715134,98.025093 149.945648,101.685768
	C148.894653,104.543472 147.734375,107.068108 146.311371,109.805008
z"/>
<path fill="#37C27D" opacity="1.000000" stroke="none"
	d="
M101.964706,143.657379
	C100.163071,144.187729 98.439240,143.743500 96.372528,143.045563
	C94.535233,142.427887 93.078552,141.848526 91.312004,141.132263
	C85.677322,135.137253 78.775566,130.940857 73.913414,124.351730
	C75.300606,123.287308 76.596283,122.562805 78.201599,121.761681
	C86.454880,128.746170 95.514450,134.598801 101.964706,143.657379
z"/>
<path fill="#98C23D" opacity="1.000000" stroke="none"
	d="
M207.934799,140.678040
	C202.883118,138.552811 199.825317,134.232590 196.122849,130.095474
	C197.145065,128.807892 198.461624,127.707748 199.947159,126.329285
	C201.333466,125.231674 202.550781,124.412384 203.884659,123.296555
	C212.682861,129.308609 212.839172,129.965057 207.934799,140.678040
z"/>
<path fill="#58BFA2" opacity="1.000000" stroke="none"
	d="
M74.669662,90.071350
	C81.202950,94.278343 87.510780,98.664993 92.757370,104.829643
	C90.901337,106.222389 88.767677,107.426315 86.304398,108.693787
	C81.208008,104.637161 75.896149,101.152451 71.768280,96.125931
	C72.742966,93.963745 73.577438,92.126541 74.669662,90.071350
z"/>
<path fill="#DBE7AC" opacity="1.000000" stroke="none"
	d="
M188.969116,107.636147
	C182.384476,107.214760 178.268784,101.612991 172.549118,98.954071
	C169.765305,97.659943 167.284882,95.713158 164.312164,94.020676
	C164.368240,91.191086 166.822830,89.002426 166.900711,85.330246
	C174.202286,92.667908 181.503860,100.005577 188.969116,107.636147
z"/>
<path fill="#C6DF9C" opacity="1.000000" stroke="none"
	d="
M150.319336,101.809654
	C145.227905,99.666367 141.543076,95.766098 137.155853,92.312851
	C139.769501,89.752563 143.125198,88.605667 146.644531,87.049744
	C149.746429,88.777679 152.714096,90.297302 154.169815,93.725998
	C152.888809,96.570541 151.736282,99.085503 150.319336,101.809654
z"/>
<path fill="#29C07B" opacity="1.000000" stroke="none"
	d="
M73.660622,124.047348
	C79.456245,129.642166 86.560921,133.554962 90.967392,140.651093
	C88.247208,140.020950 85.492271,139.046524 82.370941,138.029907
	C76.219048,136.143402 73.100258,130.818771 68.203316,127.295059
	C69.778297,126.046638 71.547302,125.064758 73.660622,124.047348
z"/>
<path fill="#4ABF98" opacity="1.000000" stroke="none"
	d="
M71.636803,96.014771
	C76.460106,100.024666 82.202713,102.894737 85.931992,108.429535
	C84.409271,109.558266 82.843765,110.359177 80.949814,111.170746
	C77.633873,111.848289 76.359802,109.280190 74.490974,107.884094
	C72.536636,106.424110 70.502419,105.074585 68.344467,103.287239
	C69.189674,100.750572 70.277397,98.489578 71.636803,96.014771
z"/>
<path fill="#3ABF8D" opacity="1.000000" stroke="none"
	d="
M67.880638,103.269547
	C73.376350,103.652580 75.923073,108.352188 80.256760,111.058411
	C78.701286,113.024483 76.207222,113.865044 73.552536,115.061516
	C69.625374,114.691559 68.415970,110.927933 65.277397,109.331192
	C65.946228,107.195015 66.802773,105.361267 67.880638,103.269547
z"/>
<path fill="#37C27D" opacity="1.000000" stroke="none"
	d="
M122.340004,156.816452
	C117.532806,155.199951 114.762146,151.490585 112.030212,147.357147
	C112.441757,147.008759 112.890205,147.003265 113.675117,146.991302
	C117.386787,147.326157 120.761986,147.667480 124.568924,148.002014
	C125.283463,148.230331 125.566254,148.465439 125.986900,148.944794
	C124.954102,151.664963 123.783447,154.140915 122.340004,156.816452
z"/>
<path fill="#29C07B" opacity="1.000000" stroke="none"
	d="
M64.848671,109.269455
	C68.689392,109.492104 70.734779,112.001122 72.905937,114.916199
	C71.367874,116.046234 69.431923,116.852959 67.719048,117.994415
	C66.008492,119.134331 64.290352,119.539124 62.656338,118.355347
	C60.690407,116.931122 61.644627,115.135941 62.529991,113.472900
	C63.230850,112.156403 63.915703,110.831383 64.848671,109.269455
z"/>
<path fill="#D6E3A1" opacity="1.000000" stroke="none"
	d="
M154.316315,93.834862
	C151.726624,91.929390 149.411911,89.803192 147.049026,87.340729
	C147.942368,86.372452 148.841660,85.662514 149.834320,85.124985
	C151.775406,84.073891 153.770340,83.273941 155.715775,85.155212
	C157.641632,87.017570 157.045929,89.006554 155.990128,91.010338
	C155.530853,91.881973 155.057968,92.746429 154.316315,93.834862
z"/>
<path fill="#000000" opacity="1.000000" stroke="none"
	d="
M459.285034,67.037857
	C464.039124,67.089317 468.357025,66.571388 472.534424,68.263298
	C476.698456,69.949768 478.109406,73.165344 478.193420,77.309357
	C478.275024,81.332535 478.280975,85.364571 474.292206,87.824799
	C472.892395,88.688210 471.349854,89.426300 469.774200,89.881500
	C458.494934,93.140121 456.999725,92.024757 457.000122,80.563889
	C457.000214,77.233780 456.968079,73.903152 457.019073,70.573807
	C457.040894,69.148361 456.654449,67.422874 459.285034,67.037857
z"/>
<path fill="#000000" opacity="1.000000" stroke="none"
	d="
M519.509399,84.061386
	C521.836731,84.738586 523.578247,85.709732 524.793274,87.355080
	C526.183777,89.237892 527.461365,91.513435 526.679016,93.725098
	C525.819031,96.156090 523.199341,94.853996 521.381775,94.939316
	C517.412537,95.125633 513.422485,94.860779 509.452301,95.036613
	C505.963745,95.191109 505.922485,93.824272 507.322357,91.284782
	C509.896759,86.614609 513.261230,83.330780 519.509399,84.061386
z"/>
<path fill="#000000" opacity="1.000000" stroke="none"
	d="
M324.965454,193.999390
	C324.348145,193.999390 324.167908,194.042969 324.019409,193.992783
	C322.087677,193.340134 318.503235,195.580078 318.382507,192.208298
	C318.254272,188.625107 321.388947,187.036865 324.955109,187.011444
	C325.614655,187.006729 326.379883,186.879044 326.916077,187.156479
	C328.999939,188.234680 331.319916,189.579453 330.803192,192.254547
	C330.187286,195.442932 327.253693,193.451279 324.965454,193.999390
z"/>
<path fill="#000000" opacity="1.000000" stroke="none"
	d="
M410.864380,188.645142
	C416.172974,185.823898 419.714752,186.706345 421.382263,190.782364
	C422.228638,192.851349 421.912292,193.971695 419.496490,193.983948
	C417.347382,193.994858 415.191376,194.101364 413.051392,193.963638
	C411.503754,193.864029 409.324310,194.877197 408.567352,193.112579
	C407.910767,191.581924 409.441376,190.120224 410.864380,188.645142
z"/>
<path fill="#000000" opacity="1.000000" stroke="none"
	d="
M525.593262,192.443085
	C521.811218,195.428894 517.526123,193.622986 513.445251,193.808884
	C511.600586,193.892899 512.451599,192.188217 512.943665,191.228165
	C514.401062,188.384644 516.483948,186.829712 519.974548,186.916809
	C523.619080,187.007751 524.757629,189.168854 525.593262,192.443085
z"/>
</svg>
